<svg xmlns="http://www.w3.org/2000/svg" viewBox="0 0 157.488 211.344"><title>Chicago White Sox primary light logo</title><g fill="#FFF"><path d="M147.404 205.297h-2.233v6.047h-1.5v-6.047h-2.233v-1.34h5.966v1.34zm10.084 6.047h-1.495v-5.87h-.047l-2.13 5.87h-1.454l-2.076-5.87h-.028v5.87h-1.51v-7.386h2.62l1.71 4.83h.028l1.792-4.83h2.59v7.386zM129.96 189.63l-11.668-18.53 21.03-26.434 6.98 5.642-.022-15.044-9.415-8.482-26.04 32.413-3.673-5.83c3.18-2.38 7.27-5.438 7.717-5.668.764-.378 2.638-1.502 3.577-1.502.84 0-1.32-3.775-7.534-3.76l-.028-33.306 3.566-3.938s-4.328.677-6.385.054c-.44-.134-1.176-.486-2.076-.96 1.17-1.853 2.218-3.977 2.995-6.426 4.22-13.38 1.23-26.257-8.677-33.63-7.15-5.316-36.33-20.128-36.33-20.128s-17.68-8.644-19.593-10.54c-1.353-1.35-4.14-3.475-4.147-10.144 0-3.99 4.438-8.386 6.344-9.294 3.057-1.448 4.066-2.124 10.262-2.232 3.496-.04 6.75.784 7.19.826 3.86.406 12.986 3.422 17.694 9.78 1.82 1.8 2.17 7.088 2.17 7.088l7.347 4.695 15.97-20.9-8.66-5.816c-2.44 2.624-7.148 2.8-9.042 1.88-1.875-.934-18.02-6.805-20.307-7.535C64.872.514 55.456-.5 50.39.257c-5.086.758-13.42 2.3-19.94 9.227-7.623 8.116-7.71 14.596-7.705 18.072.014 5.466 1.435 12.69 7.543 18.777 8.82 8.82 22.22 14.298 25.25 15.963 5.336 2.962 22.206 11.78 24.653 13.175 10.35 6.02 14.294 12.418 13.184 20.508-.047.392-.19.772-.265 1.15-4.54-2.665-10.918-6.668-13.474-9.226 0 0-1.563 1.65-2.557 2.624l-7.523 5.668c.914-3.65 1.002-9.915.86-10.55-.196-.73-.757-6.765-6.034-10.512-3.585-2.557-11.586-7.332-18.465-10.713-2.942-1.447-12.534-7.223-17.126-11.052 0 0-7.907-7.358-9.13-11.877-2.36-5.166-2.47-17.41-1.24-18.626 0 0-3.002 3.41-5.065 10.173-1.014 3.3-1.69 7.616-1.69 10.537 0 4.883.86 13.446 6.216 20.684 2.374 3.192 6.094 6.83 10.03 9.402 4.775 3.165 9.618 5.02 9.943 5.262 1.312.932 13.73 6.168 14.866 6.723 1.13.568 9.104 4.68 9.415 4.79 2.45.892 5.546 4.206 6.48 6.465l-12.852 9.66s.555 1.027.562 2.623v1.23c-1.738-.58-3.517-1.08-5.27-1.38-8.467-1.42-13.62-1.34-20.318.31-7.44 1.854-15.24 4.87-22.58 12.19C-.1 129.84 0 135.413 0 135.413l8.27-4.896c6.913-3.91 16.038-6.25 22.47-6.25 15.538-.014 23.464 4.465 25.6 6.94.015 7.684.022 14.542.022 14.866 0 2.95-.893 3.34-1.542 3.883-.258.23-.488.256-1.38.866 0 0 1.136.42 1.427.704.744.554 30.037 18.207 30.037 18.207l11.35-8.32 5.608 8.93-15.544 19.342-10.734-9.766.02 18.234 12.237 11.28 21.57-27.136 17.755 28.22 14.28-11.485-.015-18.073-11.47 8.67zM79.9 104.937c1.732 1.488 3.83 2.867 5.926 4.085-.042.04-.163.137-.163.137s-7.555 6.452-12.377 7.224v-6.575c.094-.08 6.614-4.87 6.614-4.87m4.925 47.59c0-.108-11.56-7.142-11.56-7.142.028 0 .028-7.764.028-16.058v-1.582c4.937-.96 16.62-6.548 22.8-12.65.048.92.062 5.452.062 10.66 0 3.383-.014 6.966-.014 10.065l-7.068-11.23-10.936 7.793.014 13.895 6.053-4.005 4.484 7.116-3.862 3.14"/></g></svg>