<svg xmlns="http://www.w3.org/2000/svg" viewBox="0 0 803.6 671.4"><title>Cleveland Guardians primary logo on dark</title><path fill="#fff" d="M782.119 316.005c-6.9-15.5-15.4-30.4-25.2-44.3-8.4-11.9-18-23.1-28.4-33.3l2.3-48.7c.4-9.2-1.9-18.1-6.9-25.8-5.2-8.1-12.4-14-20.9-17.1l-421.6-143c-5.3-1.7-12.5-4.6-23.6-3.6 0 0-40.2 2.1-41.3 2.3-7 .8-12.4 6.5-12.9 13.5-.9 13.2.8 26 5.3 38.3 0 0-96.1-33.5-126.4-42.3-1.3-.4-5.1-1.5-11.7-1 0 0-41.5 2.2-54.1 2.8-2 .1-3.3.2-3.4.2-7.1.7-12.7 6.5-13.1 13.6-1.3 20.3 3.2 39.8 13.4 57.7 8.7 15.3 21.7 29.6 38.5 42.5.2 16.5 4.3 31.9 12.3 46 7.9 14 19.6 26.6 34.9 37.5.7 16.1 5.2 31 13.3 44.4 6.3 10.5 15 20 25.6 28.3 1.7 16.8 8.3 33 19.6 47.9 9.5 12.6 20 21.3 27.4 26.5l66.1 190.9c1.5 4.4 5 8.3 9.2 10.4l72.9 35.9c2 1 4.2 1.5 6.5 1.5 1.1 0 2.2-.1 3.3-.4l17.3-4-2.5 18.2c-.9 6.3 2.4 12.3 8 15.1l77.4 38.1c2 1 4.2 1.5 6.5 1.5 1.4 0 2.8-.2 4.1-.6l19.4-5.7c24.9 8 50.9 12.1 77.4 12.1m-.2 0c34.2 0 67.3-6.7 98.5-19.9 30.1-12.7 57.2-31 80.4-54.2 23.2-23.2 41.5-50.3 54.2-80.4 13.2-31.2 19.9-64.3 19.9-98.5 0-35.6-7.3-70.1-21.6-102.4"/><path fill="#e31937" d="M394.619 287.305c-1.3.3-2.5.5-3.7.8-2.1 3.5-4.5 8.7-3.8 13-7.4 5.8-12 11.8-14.1 15 1.3-.2 2.6-.4 4-.5 2.3-3.4 7.2-9.8 15.1-15.1-1.7-4 .5-9.5 2.5-13.2m13.7-1.9c-1.4.1-2.8.2-4.2.4-1.5 3.5-3.1 8.8-2.5 14.2-7.7 5.4-12.7 11.7-14.8 15.1h3.9c2.2-3.6 7.2-10.2 15.8-14.9-1.1-5.7.4-11.3 1.8-14.8m17.3-.4c-1.5 0-3-.1-4.4-.1-1.4 3.7-3.3 10.5-2.2 15.9-8 5-14.2 11.4-16.7 14.9 1.4.1 2.8.3 4.3.5 2.6-3.5 9.2-10.2 18-14.6-1.7-6.1-.2-12.9 1-16.6m196.3 106.3c2.1.4 4.2.9 6.2 1.3.9-3.2 4.2-13.2 15.2-19.8-9.5-8.5-10.1-20.1-10.2-24.5-1.9-.5-3.8-.9-5.7-1.4 0 4.3.6 15.6 8 24.9-9.8 7.2-12.5 16.1-13.5 19.5m58.2-15.8c-6.2 8.1-8 17.2-8.5 21.1 1.9 0 3.8-.1 5.7-.2.6-4.1 2.6-13.8 9.7-21.7-9.7-5.6-12.6-16.3-13.4-20.4-1.7-.1-3.4-.1-5.1-.3.8 3.6 3 14.3 11.6 21.5m20.2-3.4c-4.7 8.5-5.9 17.9-6.1 22 1.8-.4 3.6-.8 5.4-1.3.3-4.6 1.7-14.1 7.1-22.4-9.5-3.8-13.6-13.6-14.7-16.6-1.6.1-3.1.3-4.7.4 1.2 3.4 4.6 12.5 13 17.9m-34.3 2.9c-10.2-7.5-11.4-19.5-11.7-22.6-1.8-.3-3.6-.5-5.4-.9.3 3.3 1.4 14.7 9.7 23.3-8.1 7.8-10.3 17-11 20.5 2 .2 4 .4 6 .5.7-3.3 3.3-13.3 12.4-20.8m51-8.7c-3.7 8.9-4 17.8-3.8 21.9 1.5-.6 3.1-1.3 4.6-2-.2-4.4.1-13.1 4.4-22.1-7.7-2.7-11.9-9.9-13.5-13.5-1.3.4-2.7.8-4.1 1.1 1.6 3.8 5.5 11 12.4 14.6m13.6-7.8c-2.4 8.8-2.1 17.2-1.7 21.7 1.4-.9 2.7-1.7 4-2.7-.5-4.6-.8-12.9 2-22-6.8-1.4-11.4-6.8-13.6-10.3-1.2.6-2.4 1.3-3.6 1.8 2.2 3.7 6.7 9.3 12.9 11.5m10.6-8.6c-1.2 8.2-.6 16.4 0 21.3 1.2-1 2.3-2 3.4-3-.6-5.2-1.1-13.4.4-21.8-5.5-.9-10.1-5.3-12.7-8.6-.9.8-1.9 1.6-2.9 2.3 2.5 3.3 6.7 7.7 11.8 9.8m11.5-14.2c-4.5-.3-9.1-3.8-12-6.7-.7.9-1.5 1.8-2.3 2.7 2.7 2.9 6.9 6.4 11.3 8.2-.2 8 .7 16.1 1.6 21.3 1-1.1 1.9-2.2 2.8-3.3-1-5.4-1.8-13.9-1.4-22.2m-309.8-31c-1.9-6.9-.8-14.7.3-18.3-1.6-.2-3.3-.4-4.9-.6-1.1 3.5-2.5 10.5-1.5 17.6-9.7 5.2-15.3 11.5-17.7 14.8 1.5.3 3 .6 4.6.9 2.6-3.4 8.6-9.7 19.2-14.4m153 79.7c2.2.7 4.3 1.3 6.5 1.9 1.2-3.4 5.4-12.7 17.8-18.2-8.9-9.3-9.2-20.6-8.9-25.9-2-.6-4-1.3-6-1.9-.3 5.3 0 16.2 6.5 25.9-11.1 6.4-14.6 14.5-15.9 18.2m-24.1-8.3c2.1.8 4.1 1.5 6.2 2.3 1.7-3.6 6.8-12.5 18.3-17.3-8.4-10-8.2-21.4-7.7-26.5-2-.7-3.9-1.4-5.9-2.2-.5 5-1 16.2 5.4 26.5-10.4 5.7-14.7 13.4-16.3 17.2m-18.3-7.3c2-3.6 7.8-12.6 19-16.9-7.4-9.9-7.2-20.6-6.6-26-1.9-.7-3.8-1.5-5.7-2.3-.7 5.2-1.3 15.7 4.3 25.9-10.3 5.2-15.2 13.1-17 16.8 2 .9 4 1.7 6 2.5m55.8 199.5c3.3-8.3 2.1-15.7 1.3-18.7-1.6.9-3.2 1.7-4.9 2.5.8 3.4 1.7 11.1-2.7 19.2 7.8 1.3 12.6 5.7 15.1 8.7 1.4-.8 2.8-1.7 4.3-2.5-2.2-3-6.4-7.1-13.1-9.2m-84.3 32c2.4-6.3-.3-14.4-1.5-17.5-1.5.3-2.9.6-4.3.8 1.4 3.3 4 12 .4 17.6 9.8 3.8 15.3 10.4 16.8 12.4 1.4-.2 2.8-.4 4.3-.7-1.2-1.6-6.3-8.3-15.7-12.6m-15.6 1.4c2.1-5.6-.6-13.4-1.7-16.3-1.4.2-2.8.3-4.3.4 1.1 2.9 4.1 11.4.7 16.4 10 4.4 15.6 11.1 16.8 12.9 1.5 0 2.9-.1 4.4-.2-1.5-2.2-6.6-8.6-15.9-13.2m-4.2 12.9c1.4.1 2.7.2 4.1.3-1.2-1.6-4.9-6.2-11.3-10.7l-.5 2.7c4.1 3.3 6.6 6.3 7.7 7.7m225.3-95.5c2.1 4.7.5 11.8-.6 15.6 1.2.1 2.3.2 3.5.3 1.2-3.5 3.1-10.5 1.8-15.8 6.7-5.8 10.4-11.7 11.7-14.1-1.3-.1-2.5-.2-3.8-.2-1.7 2.8-5.7 8.9-12.6 14.2m1.7-14.2c-1.4.1-2.7.1-4.1.2-1.4 3.1-4.8 9.3-11.4 15.3 3 4 2.5 10.3 1.9 14.2 1.2-.1 2.5-.1 3.7-.2.8-3.7 1.6-9.9-.6-14.5 6.3-6.3 9.4-12.3 10.5-15m-36.2 5.7c-.8 3.4-3.1 10-9.1 16.9 4.6 3 5.8 8.6 6.1 12.3 1.4-.4 2.7-.9 4-1.3-.1-3.6-1-8.9-4.6-12.6 5.3-7.1 7.3-13.4 8-16.5-1.3.4-2.8.8-4.4 1.2m16.2-3.5c-1.2 3.4-4.1 9.7-10.1 16 3.9 3.4 4.3 9.4 4.2 13.1 1.3-.3 2.6-.5 3.9-.7.3-3.6.3-9.5-2.7-13.6 5.5-6.5 8.1-12.5 9.1-15.6-1.4.3-2.9.5-4.4.8m-167.3-189.5c-1.9-.7-3.7-1.5-5.6-2.2-.9 5.2-1.7 15.2 3.3 25.4-9.7 4.5-15.2 12.1-17.4 15.9 1.9.8 3.9 1.7 5.8 2.5 2.5-4 9.2-12.3 19.4-15.8-6.6-10-6.2-20.3-5.5-25.8m-21.1-8.2c-1.8-.7-3.6-1.4-5.5-2.1-1 5.1-2.1 14.7 2.4 24.2-9.6 4.6-15.3 11.7-17.7 15.4l5.4 2.4c2.6-3.8 9.3-11.7 19.8-15.4-5.9-9.4-5.4-19.1-4.4-24.5m-21.2-7.8c-1.8-.6-3.6-1.2-5.3-1.8-1.2 5.3-2.5 14.3 1.4 23-9.3 4.5-15.3 11.1-17.9 14.8l5.1 2.1c2.8-3.7 9.6-11 20-14.7-5-8.7-4.5-17.6-3.3-23.4m-20.3-6.6c-1.7-.5-3.5-1-5.2-1.5-1.3 5.6-2.6 13.6.5 21.1-9.5 4.6-15.8 11.2-18.5 14.7 1.6.6 3.3 1.2 4.9 1.8 2.8-3.5 9.8-10.5 20.5-14.5-3.9-7.5-3.7-15.2-2.2-21.6m-19.8-5.2c-1.7-.4-3.4-.8-5.2-1.1-1.4 6.1-2.7 13.2-.4 19.5-9.4 4.7-16 11-18.9 14.4 1.6.4 3.2.9 4.7 1.4 3-3.4 10-10 20.7-14-2.5-6.3-2.8-12.9-.9-20.2m163.6 269.2c4.1-9.1 3.2-16.9 2.7-19.4l-4.8 2.7c.5 3.2 1 11.1-4 19.6 7.1 1.6 11.2 6 13.4 9.2 1.4-.8 2.8-1.7 4.2-2.5-2.1-3.2-5.6-7.3-11.5-9.6m17-9.7c4.6-9 4.6-16.2 4.2-19.9-1.6.8-3.2 1.7-4.9 2.5.3 2.8.3 11.1-5.4 20.2 6.4 1.8 9.8 6.3 11.6 9.6 1.4-.9 2.8-1.7 4.1-2.5-1.6-3.2-4.4-7.3-9.6-9.9m17-9.9c4.9-8.4 5.5-15.6 5.6-18.4-1.6.7-3.2 1.3-4.8 2-.1 3.3-1.1 10.7-6.7 18.7 6.1 2.3 8.8 7.5 10 10.9 1.4-.7 2.7-1.5 4.1-2.2-1.1-3.2-3.3-8-8.2-11m19.1-23.6c-.5 3.5-2.2 10.3-7.9 17.6 5.4 2.7 7.4 8.2 8.1 11.8 1.4-.6 2.7-1.2 4.1-1.7-.6-3.4-2.1-8.6-6.4-12 4.9-7.5 6.4-14.1 6.8-17.2-1.6.4-3.1.9-4.7 1.5m-87.4 61.5c3-8.1 1.6-15.7.7-18.6-1.6.7-3.1 1.5-4.7 2.2.9 3.3 2.2 11.2-2 19.1 8.2 1.7 13.3 6.6 15.7 9.6 1.4-.8 2.8-1.5 4.2-2.3-2.3-3-6.7-7.6-13.9-10m-17 7.6c2.8-7.7 1.1-15.3.2-18.4-1.5.6-3 1.3-4.6 1.9.9 3.2 2.6 11.3-1.4 18.9 8.8 2.1 14.2 7.7 16.4 10.6 1.4-.7 2.7-1.3 4.1-2-2.1-2.8-6.9-8.2-14.7-11m-16.8 6.7c2.8-7.6.4-15.7-.5-18.3l-4.5 1.5c.9 2.8 3.3 11.4-.8 18.7 9.4 2.6 14.8 8.9 16.7 11.4 1.4-.5 2.7-1.1 4.1-1.6-1.8-2.5-6.7-8.4-15-11.7m-16.7 5.1c2.5-6.8.2-14.7-1-17.9-1.5.4-2.9.8-4.4 1.2 1.4 4 3.4 12.1-.2 18.1 10 3.3 15.5 10.1 16.9 12.2l4.2-1.2c-1.4-1.9-6.4-8.5-15.5-12.4m126.9-385.8.3-7.1c.3-7.2-4.2-14-11-16.4l-132.6-48.2-23.7 33 25.4 9.1c7.9-.8 15.9-1.2 24-1.2 42.8-.1 82.9 11.1 117.6 30.8m-284.4 192.2 29.6 28.1-6.2 37.1c-.9 5.5-5.1 10.2-10.6 12l-62.2 20.3-51.6-142.5 85.2-126.4 135 52.4 2-52.1c.3-7.9-4.8-15.3-11.9-17.9-7.1-2.6-144.3-52.5-144.3-52.5l-136 189.5 64 184.7 66 32.5 51.8-30.7-9.4 68.5 56.1 27.6 43.3-227-92.7-38-8.1 34.4Z"/><path fill="#002b5c" d="m713.619 244.305 2.7-55.3c.3-6.2-1.3-12.1-4.6-17.2-3.3-5.2-8-9.2-13.6-11.3l-427-146.2c-.8-.2-1.4-.3-1.9-.3l-3.2.2c-.8.1-1.7.1-2.3.1l-43.8 2.5c-1.1.1-1.6.4-1.8 1.2-1.3 23.1 7.1 44.4 24.6 63.3 0 0-164.8-55.9-165.2-56.1-1.1-.4-1.9-.4-2.6-.4l-1.2.1c-1.3.1-3.1.3-4 .2l-53.1 3.3c-1.3.2-1.7.6-1.8 1.7v2.4c-.7 33.5 17.1 63.2 52.2 87.9-2.2 33.5 13.9 61.8 47 83.1-1.2 36 18.2 58.6 38.5 72.8.7 37.4 29.9 63.2 45.1 72.6l67.5 195.5c.3.8 1.1 1.7 1.8 2l72.9 35.9 37.9-8.6-5.4 39.1 77.4 38.1 23.8-6.9c24.2 8.3 50.1 12.7 77.1 12.7 131.7 0 238.4-106.7 238.4-238.4.1-68.6-29-130.5-75.4-174m-18-72.7c3.6 1.7 6.3 4.8 7.8 8.1.6 1.3-.1 2.7-1.4 3.1-2.2.7-5.8 1.7-10.3 2.4-5.1.8-11.4 1.3-15 1.6-1.6.1-3-.7-4-2-2.7-3.6-6.4-6.1-14.8-9.2l-120.1-43.4 32.9-4.1 124.9 43.5Zm-162.3 24.3c4.4 1.6 7.3 5 8.9 7.6l1.2 2.1c.7 1.5-.2 3.2-1.7 3.7-2.6.8-7 2-12.4 2.9-5.2.8-11.5 1.4-15.9 1.8-1.4.1-2.7-.6-3.4-1.5-3-3.9-7.8-7.5-13-9.4l-134.7-49 39.6-5 131.4 46.8Zm-196-81.9c-12.2-12.7-20.6-29.9-22.7-53.6 66.7 25.8 147.9 55.9 197.8 73.9v.1l-23.8 33.1-151.3-53.5Zm189.4 67.1-25.4-9.1 23.7-33 132.6 48.2c6.7 2.5 11.2 9.2 11 16.4l-.3 7.1c-34.7-19.7-74.8-30.9-117.5-30.9-8.2.2-16.2.6-24.1 1.3m-258.2-158.3 284.1 98.9-32.7 3.9c-22.1-8.2-245.7-90.9-274.6-101.5l23.2-1.3Zm-38.5 3.7c18.5 7.9 43.6 17.9 71.8 28.9 1.6.6 2.7 2.2 2.8 3.9.7 20.1 5.9 35.5 14.2 48.2-15.2-5.3-31.1-10.8-47.2-16.4-23.6-16.5-41-37.7-41.6-64.6m-152.5 7.8 305 108-39.2 4.7-297.8-110.8 32-1.9Zm144.3 202.7c-36.6-16.3-63.2-35.2-66-74.3l136.7 53.1-26.3 36.7c-.7 1-2 1.4-3.2.9-14.2-5.5-28.2-11.1-41.2-16.4m35.5 27.8-22.2 30.9c-.8 1.2-2.4 1.5-3.6.7-15.3-9.3-39.9-29.7-41.9-58.9l67.7 27.3Zm-68.1-102.5c-32.3-14.8-65.2-36.7-69.5-86.2l215.3 80.5-33.8 47.1c-.7 1-2 1.4-3.2.9-5.9-2.3-83.2-32.3-108.8-42.3m-162.1-123.3c21.8 9.3 49.2 20.2 78.8 31.7 1.6.6 2.8 2.2 2.8 3.9 1.1 29.4 10.8 50.1 26.4 66.5l-.8-.3c-52.2-19.7-103.9-51.9-107.2-101.8m52.2 89.4c14.2 8.6 30.7 16.6 49.5 23.7 3 1.1 7.3 2.8 12.5 4.8 1.7.7 2.9 2.3 3 4.2.6 22.4 8.5 39.3 20.1 52.5-4-1.6-7.2-2.9-9.4-3.7-34.6-13.2-74.4-37.9-75.7-81.5m47.2 82.5c7.4 3.9 15.3 7.6 24 10.9 4.5 1.7 13.4 5.3 24.8 9.9 1.8.7 2.9 2.4 2.9 4.3.2 20 9.1 36.5 20.2 49-1.5-.6-2.8-1.1-3.7-1.5-28.7-10.9-65.9-30.2-68.2-72.6m76 125.7c-13.6-9.4-32.5-27.3-36.8-52.2 9.8 5.3 18.8 8.7 24.5 10.9 2.6 1 8.6 3.5 16 6.5 5.9 2.4 12.6 5.2 19 7.8l-18.9 26.4c-.9 1.2-2.6 1.5-3.8.6m238.7 297.1-56.1-27.6 9.4-68.5-51.8 30.7-66-32.5-64-184.7 135.9-189.5s137.2 49.9 144.3 52.5c7.1 2.6 12.2 10 11.9 17.9l-2 52.1-134.8-52.4-85.3 126.4 51.6 142.5 62.2-20.3c5.5-1.8 9.6-6.5 10.6-12l6.2-37.1-29.6-28.1 8-34.4 92.7 38-43.2 227Zm-112.6-274.7 42.7 117.4-29.7 9.7-42.9-118.5 29.9-8.6Zm74.6 1.8 34.9-7.7 89 36.5-33.2 8.3-90.7-37.1Zm146 279.5c-19.6 0-38.6-2.5-56.7-7.3l4.8-25.1.2-1 .5-2.7.3-1.8 1.5-8.1 39.9-209.1-103.7-42.6-52.9 11.6-12.3 52.7 30 28.5-5.2 31c-.2 1.2-1.3 2.4-2.6 2.8l-10.6 3.5c-3.7-10.8-37.5-101.9-42.2-115.7-.4-1.1-.2-2.2.4-3.2l31.4-47.7c1.6-3.2 3.6-6.2 5.9-9l25.7-39 104.5 40.6 45.3-9.5 3.5-73.2c.3-6.7-1.4-13.2-5-18.8-.8-1.3-1.7-2.5-2.7-3.7 123.3.1 223.2 100.1 223.2 223.4.1 123.4-99.9 223.4-223.2 223.4m200.7-28.8h-5.3v14.6h-3.6v-14.6h-5.3v-3.1h14.3v3.1Zm24.3 14.6h-3.6v-14.1h-.1l-5.1 14.1h-3.5l-5-14.1h-.1v14.1h-3.6v-17.7h6.3l4.1 11.6h.1l4.3-11.6h6.2v17.7Z"/></svg>