<svg xmlns="http://www.w3.org/2000/svg" viewBox="0 0 178.576 192.273"><title>Colorado Rockies Primary Logo on Dark</title><path d="M38.299 12.25S6.509 24.707 6.479 65.22c-.037 41.502 30.648 49.341 30.648 49.341S21.329 94.722 21.374 62.879c.06-34.288 16.925-50.629 16.925-50.629" fill="#33006f"/><path d="M146.392 178.797c-6.573-6.464-18.569-40.423-28.483-42.659 3.633-1.828 26.502-7.157 26.603-31.884-.101-26.727-24.858-35.389-49.618-35.389-5.262 0-14.854.39-24.603.966-12.374.775-18.723 1.356-28.15 2.127v9.094c13.296 0 16.082 3.094 16.082 17.599v17.296c-18.322-3.869-30.348-24.258-30.348-52.914 0-30.341 14.251-51.678 35.075-51.678 7.835 0 14.723 3.135 20.202 8.809 5.491 5.674 9.397 13.899 11.123 23.88h7.36l-1.401-40.913H94.43c-.622 1.959-1.401 2.745-2.82 2.745C87.7 5.876 78.464 0 61.704 0c-18.165 0-33.67 6.659-44.472 18.404C6.266 30.345 0 46.592 0 66.164c0 13.509 3.914 28.775 12.846 40.914 8.921 12.135 23.333 20.944 44.314 20.944.36 0 .704-.03 1.064-.037v38.168c0 14.116-3.09 17.019-16.082 17.019v9.094h58.636v-9.094c-12.071 0-16.558-1.742-16.558-16.052v-25.917h8.198s30.221 51.074 31.045 51.071c2.139-.008 36.097-.022 36.097-.022v-9.045c.001-.002-6.819 1.118-13.168-4.41M6.479 65.221c.03-40.513 31.82-52.97 31.82-52.97S21.434 28.592 21.374 62.88c-.045 31.839 15.753 51.681 15.753 51.681s-30.685-7.839-30.648-49.34m71.442 117.92h-13.36V79.483l13.359-.925v104.583zm58.707-78.363c.067 20.363-24.843 25.491-24.843 25.491s9.202-5.543 9.206-25.262c.011-19.91-8.805-25.539-8.805-25.539s24.375 2.198 24.442 25.31M84.22 131.722v-6.386c.584-.022 1.18-.056 1.753-.056 1.888 0 3.607 0 5.011.393 1.566.195 3.142.584 4.543 1.172l.479-1.367c4.536-13.311 8.296-27.798 9.547-38.959h-7.359c-3.742 10.03-8.416 17.539-13.974 22.554V78.149h7.577c15.007 0 22.906 10.056 22.906 25.333 0 19.926-8.041 28.626-30.483 28.24m39.97 51.475s-17.213-30.779-25.123-41.801c0 0 5.805-.921 8.64-1.738 2.584-.734 4.464-1.476 4.464-1.476 6.745 3.393 16.389 18.461 21.539 30.783 5.554 11.112 9.528 14.277 9.528 14.277l-19.048-.045z" fill="#c4ced4"/><path fill="#33006f" d="M64.56 183.142h13.363V78.559l-13.363.921zM120.993 105.005c-.008 19.719-9.206 25.266-9.206 25.266s24.906-5.131 24.839-25.494c-.067-23.112-24.438-25.307-24.438-25.307s8.817 5.629 8.805 25.535M133.712 168.964c-5.15-12.322-14.794-27.385-21.539-30.783 0 0-1.884.742-4.468 1.476-2.831.82-8.64 1.738-8.64 1.738 7.914 11.026 25.127 41.801 25.127 41.801l19.045.045s-3.97-3.161-9.525-14.277"/><path fill="#c4ced4" d="M176.138 185.33l-1.682 4.531h-.033l-1.615-4.531h-2.457v6.943h1.42v-5.524h.03l1.947 5.524h1.367l2.008-5.524h.041v5.524h1.412v-6.943zM163.479 186.566h2.094v5.704h1.412v-5.704h2.093v-1.236h-5.599z"/></svg>