<svg xmlns="http://www.w3.org/2000/svg" viewBox="0 0 300 300"><title>Miami Marlins logo</title><path d="M177.284 218.846c-.077.106-.137.202-.194.292.056-.091.117-.185.194-.292zm39.533-41.142c-.104.04-10.479 4.203-20.604 15.448-3.883 4.311-7.905 8.891-12.661 14.241-2.176 2.739-4.33 5.427-5.95 7.466h2.78c1.387-1.768 3.053-3.882 4.811-6.095 4.24-4.774 8.496-9.534 12.768-14.28 9.39-10.427 19.447-15.161 19.539-15.198l6.926-2.992c-1.636.163-3.417.305-6.26.88l-1.349.53z" fill="#41748d"/><path d="M119.802 160.793c-.603 13.371 2.119 33.731 21.007 47.916 4.845 3.639 9.084 5.005 12.744 5.005 1.724 0 3.32-.303 4.79-.815.217-.075.425-.169.625-.281 2.37-1.324 5.068-3.485 7.453-5.675l10.169-8.967c2.422-2.109 5.629-4.895 9.923-8.618 13.079-11.341 22.242-13.226 26.809-13.18 3.069.03 4.812 1.002 4.812 1.002l.032-.006c2.844-.574 4.624-.717 6.26-.88l.647-.28a312.509 312.509 0 0 0-3.111-1.138c-3.174-1.083-6.29-1.679-8.773-1.679-8.643 0-18.401 4.662-29.004 13.856-4.211 3.651-17.486 16.024-17.62 16.149l-.596.554c-2.618 2.443-7.491 6.991-12.115 7.019-3.038 0-8.081-1.334-11.983-4.264-13.008-9.769-19.857-24.415-21.952-47.151-.071.89-.098 1.409-.098 1.409l-.019.024z" fill="#00a3e0"/><path d="M169.938 267.983c.554 14.677 5.529 24.199 5.581 24.295l.473.886c2.096 2.097 4.396 3.983 6.82 5.79l.166.047-5.211-9.478c-.05-.096-4.401-8.668-5.112-21.646-.757.076-1.502.125-2.226.125-.166-.001-.327-.014-.491-.019z" fill="#41748d"/><path d="M169.938 267.983c-2.812-.094-5.338-.975-7.392-2.169a14.966 14.966 0 0 1-2.165-1.533c3.666 23.657 13.533 27.926 13.96 28.099l1.647.78.004.003-.473-.886c-.052-.096-5.027-9.617-5.581-24.294z"/><path d="M84.285 148.763a79.067 79.067 0 0 0 2.406 16.087c-1.452-18.937 1.87-34.869 8.687-47.984a327.058 327.058 0 0 0-5.334-.037c-4.3 9.965-6.257 20.691-5.759 31.934zm87.423-78.192c-.511.01-1.024.017-1.532.032-22.4.698-43.148 6.745-58.02 17.974a75.288 75.288 0 0 0-6.782 5.78 74.377 74.377 0 0 0-7.191 8.335c2.647-.445 5.247-.83 7.795-1.161 15.708-17.506 39.405-27.611 65.73-30.96z" fill="#ef3340"/><path d="M190.265 91.199l9.644-.589c1.09-9.355 5.095-11.66 5.095-11.66-12.736 4.233-14.739 12.249-14.739 12.249z" fill="#41748d"/><path d="M153.995 22.88c.01.623.01 1.253.026 1.491 1.25 17.895-5.073 30.995-10.588 38.431 8.392-3.581 18.974-6.527 31.105-6.606-3.889-7.599-10.921-20.273-20.543-33.316z" fill="#00a3e0"/><path d="M148.757 223.131c5.647-2.371 11.278-2.447 15.857-.212.557.271 1.104.583 1.628.928 1.264-1.085 2.831-1.704 4.338-1.706l6.006-.001c.061-.68.112-1.347.148-1.967l.007-.114c.017-.097.04-.173.061-.255.055-.214.14-.42.253-.61l.036-.056c.056-.09.117-.186.194-.292.092-.127.193-.261.323-.428.633-.818 1.607-2.068 2.777-3.56h-2.78c1.62-2.039 3.774-4.727 5.95-7.466 4.756-5.35 8.778-9.929 12.661-14.241 10.125-11.245 20.5-15.407 20.604-15.448l1.349-.53-.032.006s-1.743-.972-4.812-1.002c-4.567-.046-13.731 1.839-26.809 13.18-4.293 3.723-7.5 6.509-9.923 8.618l-10.169 8.967c-2.385 2.189-5.083 4.351-7.453 5.675-.2.112-.409.206-.625.281-1.47.511-3.066.815-4.79.815-3.66 0-7.899-1.366-12.744-5.005-18.888-14.184-21.61-34.545-21.007-47.916l.019-.023s.027-.519.098-1.409c.256-3.2 1.092-11.25 3.363-17.742a72.75 72.75 0 0 0-2.984 2.947 65.667 65.667 0 0 0-4.924 5.794 56.927 56.927 0 0 0-4.436 6.868l-.124.227c-.135.245-.269.49-.399.74a61.716 61.716 0 0 0-4.778 12.218c.023-.192.042-.397.067-.578 7.083-41.903 63.121-60.993 92.096-60.763l12.662-12.31 39.899-4.269s-.803-.652-2.704-1.41c-2.534-1.011-7.021-2.212-14.158-2.31a77.394 77.394 0 0 0-5.86.153l-22.101 1.342s-.27-10.647 11.045-14.924l1.176-.443c9.012-3.383 34.07-12.588 49.298-18.174l7.453-2.733 2.589-.949 2.232-.818-51.224 9.234-11.045 1.989c-8.778-.322-15.862.792-15.862.792a50.078 50.078 0 0 0-12.159-4.18 62.216 62.216 0 0 0-4.078-.869c-5.958-12.675-17.654-34.25-36.139-54.342-5.045 14.917 2.069 24.917-7.768 45.453-1.103 2.303-2.109 4.385-4.329 6.827-8.505 9.356-13.222 10.458-21.85 16.266-14.22 8.849-24.503 19.996-31.259 32.289a208.068 208.068 0 0 1 14.562-2.994 74.48 74.48 0 0 1 7.191-8.335 75.288 75.288 0 0 1 6.782-5.78c14.872-11.229 35.62-17.276 58.02-17.974.508-.016 1.021-.022 1.532-.032-26.324 3.349-50.022 13.454-65.73 30.96 18.975-2.468 34.98-1.922 44.508-.577-6.792 2.497-13.685 5.642-20.255 9.447a109.187 109.187 0 0 0-11.611 7.725 291.868 291.868 0 0 0-23.241-1.258c-6.817 13.115-10.139 29.047-8.687 47.984a78.929 78.929 0 0 1-2.406-16.087c-.498-11.243 1.46-21.969 5.76-31.934-4.047.008-7.912.097-11.574.238-3.441 9.504-5.03 19.444-4.908 29.364h.001c.001.025-.001.051-.001.076.17 12.923 6.47 31.448 12.282 42.958-.246-.354-.467-.697-.705-1.047a81.728 81.728 0 0 0 5.338 7.909l.036-.002.026.039a38.646 38.646 0 0 1 7.138-2.955c.376-.115.75-.223 1.121-.323 2.835-.76 3.437-.828 3.437-.828-.051.019-.105.04-.161.063l.8-.09a40.042 40.042 0 0 1 9.239-1.102c5.367.009 7.683.308 7.683.308-2.159 1.766-3.251 2.605-5.328 4.511-3.966 3.438-7.064 8.195-9.264 14.459 2.249 1.56 4.579 3 6.98 4.314a8.085 8.085 0 0 1-.122-1.345 7.982 7.982 0 0 1 3.402-6.537c.054-.048.105-.098.159-.145a8.297 8.297 0 0 1 1.449-1.586 8.299 8.299 0 0 1 5.314-1.931c4.572 0 8.292 3.72 8.292 8.293a8.28 8.28 0 0 1-4.887 7.549 8.121 8.121 0 0 1-.426.318c-.392.35-.817.66-1.27.926 5.757 2.166 12.626 4.029 20.212 5.253.282-.184.561-.373.848-.547a28.297 28.297 0 0 1 3.6-1.839zM199.909 90.61l-9.644.589s2.003-8.016 14.738-12.248c0 0-4.005 2.305-5.094 11.659zm-56.476-27.808c5.516-7.436 11.838-20.536 10.588-38.431-.017-.238-.016-.868-.026-1.491 9.622 13.043 16.654 25.716 20.543 33.316-12.131.079-22.713 3.025-31.105 6.606z"/><path d="M277.099 53.044l-2.589.949-7.453 2.733c-15.228 5.586-40.286 14.791-49.298 18.174l-1.176.443c-11.315 4.278-11.045 14.924-11.045 14.924l22.1-1.342a76.39 76.39 0 0 1 5.861-.153c7.137.098 11.623 1.299 14.158 2.31 1.901.758 2.704 1.41 2.704 1.41l-39.899 4.269L197.8 109.07c-28.975-.23-85.013 18.86-92.096 60.763-.024.181-.044.386-.067.578a61.716 61.716 0 0 1 4.778-12.218c.13-.25.265-.495.399-.74l.124-.227a56.805 56.805 0 0 1 4.436-6.868 66.155 66.155 0 0 1 4.924-5.794 72.75 72.75 0 0 1 2.984-2.947c9.008-8.453 19.552-14.305 27.163-17.833 15.538-7.201 33.496-11.674 46.87-11.674h.013l1.703.012 13.572-13.269 44.342-4.77c-4.155-3.11-12.022-7.373-24.121-7.614-1.607-.032-3.304.048-5.357.177l-18.09 1.104.982-2.905c1.14-3.367 3.868-6.152 7.299-7.449 10.799-4.083 65.526-24.212 70.868-26.176l1.76-1.717.145-.14-1.346.347-9.756 2.515c.002.001-.802.295-2.23.819zM90.044 116.829c1.745-.004 3.527.01 5.334.037 7.325.111 15.129.486 23.241 1.258 3.683-2.817 7.585-5.393 11.611-7.725-24.086-1.052-56.466.155-87.363 10.207.796-.153 13.415-2.47 32.376-3.398 4.93-.241 9.865-.367 14.801-.379z" fill="#41748d"/><path d="M130.23 110.4c6.57-3.805 13.463-6.95 20.255-9.447-9.528-1.345-25.533-1.891-44.508.577a207.817 207.817 0 0 0-22.357 4.155c6.756-12.293 17.039-23.44 31.259-32.289 8.628-5.808 13.345-6.91 21.85-16.266 2.22-2.442 3.227-4.525 4.329-6.827 9.838-20.536 2.724-30.537 7.768-45.453 18.485 20.092 30.181 41.667 36.139 54.342 1.368.243 2.727.534 4.078.869a50.078 50.078 0 0 1 12.159 4.18s7.084-1.114 15.862-.792l11.045-1.989 51.221-9.234 9.756-2.515 1.343-.347 2.698-2.631-76.283 13.666-.215-.007a93.17 93.17 0 0 0-2.797-.042c-5.178 0-9.462.426-11.555.679l-.579.07-.53-.244a53.034 53.034 0 0 0-12.016-3.873c-.362-.077-.685-.153-1.008-.228l-.959-.224-.471-.897c-6.472-13.417-17.867-33.412-35.392-52.469-1.894-1.905-2.998-2.953-4.197-3.99a107.07 107.07 0 0 0-1.473 4.903c-1.361 4.577-2.075 11.534-2.137 20.722.107 4.372-.219 15.7-5.539 25.059-3.218 5.435-8.113 10.193-15.889 15.46-.668.415-1.273.805-1.897 1.219l-.086.054-1.668.986c-3.678 2.166-8.714 5.133-12.638 8.121-11.71 8.401-19.627 17.758-26.214 31.015-12.002 3.181-24.477 7.673-36.764 13.905l.045-.009c30.899-10.054 63.279-11.261 87.365-10.209z" fill="#00a3e0"/><path d="M247.596 158.922c.461-1.415.374-2.223.485-3.243-.476 1.316-1.179 2.559-2.316 2.85a2.053 2.053 0 0 1-.481.069s.578 3.623-3.155 5.999a26.861 26.861 0 0 1-.203 1.899c.512-.315 1.121-.73 1.728-1.242 1.495-1.259 2.979-3.096 2.967-5.424-.001-.001.457-.299.975-.908zm-2.508 9.728c.479-1.5.919-3 1.31-4.47-.804 1.588-2.192 3.84-3.822 4.42 0 0 .007 1.308-1.215 2.298-.14.115-.289.22-.444.314-.23.806-.496 1.627-.787 2.457 1.33-.769 3.618-2.358 3.752-4.247-.001 0 .525-.291 1.206-.772zm-1.336 3.911c-.506 1.109-1.31 2.411-4.611 3.686a51.954 51.954 0 0 1-1.153 2.587c.207-.077 2.32-.868 3.983-1.721a98.613 98.613 0 0 0 1.781-4.552zm-17.462 24.786a64.748 64.748 0 0 0 4.06-3.429c-.8.11-1.622.181-2.433.187a56.982 56.982 0 0 1-3.626 3.428 33.43 33.43 0 0 0 1.999-.186zm10.172-10.107c-1.198.444-2.458.82-3.729 1.072a44.851 44.851 0 0 1-2.756 3.539c1.11-.151 2.19-.389 3.119-.633a45.94 45.94 0 0 0 3.366-3.978zm-27.585 20.457l-.147.075s6.834-2.818 14.386-8.086c-.531.005-.996-.008-1.396-.036l-.174.136c-3.411 2.643-7.585 5.347-12.669 7.911zm31.82-27.699l-.002.001-4.786 2.762-.077.044s-.036.101-.113.288c-.181.436-.591 1.351-1.327 2.625a28.738 28.738 0 0 0 4.266-1.731 32.278 32.278 0 0 0 2.039-3.989zm-112.483-31.547l-2.752 1.034c.013.056.521 2.92.646 6.773l.015.445.266.33c.028.035 2.838 3.551 4.254 8.481l2.822-1.087c-1.315-4.579-3.66-7.969-4.45-9.027-.208-4.089-.746-6.719-.801-6.949zm6.226 6.618c.029.025 2.924 2.502 4.305 7.202.925-.373 1.85-.747 2.774-1.123-1.27-4.31-3.644-7.01-4.643-8-.048-2.552-.677-5.595-1.221-7.778-.928.39-1.852.778-2.771 1.161.54 2.191 1.149 5.203 1.101 7.491l-.014.651.469.396zm7.132-3.627l.616.463c.031.024 3.156 2.413 4.487 7.243l2.721-1.134c-1.249-4.342-3.689-6.97-4.825-8.006.194-3.98-1.122-7.343-1.426-8.061l-2.096.908-.594.304c.016.035 1.576 3.527 1.19 7.48l-.073.803zm7.94-3.078l.813.518c.033.021 3.232 2.108 4.626 6.928.896-.374 1.794-.748 2.695-1.121-1.293-4.178-3.738-6.642-4.989-7.679.448-4.469-1.373-8.348-1.456-8.522l-2.624 1.25c.017.037 1.753 3.773 1.095 7.676l-.16.95zm13.27 4.169l.269-.061c.82-.332 1.641-.663 2.462-.991-1.07-4.256-3.449-6.697-4.765-7.766.92-4.586-.88-8.74-.963-8.927l-2.66 1.172c.017.04 1.722 4.025.584 7.955l-.316 1.09.98.57c.035.019 3.287 1.962 4.409 6.958zm7.795-3.067l.116-.02c.881-.34 1.762-.675 2.642-1.006-.878-4.227-3.142-6.602-4.494-7.68 1.389-4.703-.393-9.133-.475-9.333l-2.689 1.105c.018.042 1.707 4.242.082 8.245l-.505 1.211 1.161.614c.136.074 3.298 1.868 4.162 6.864zm7.8-2.966l.402-.05c.803-.284 1.604-.564 2.402-.838-.677-4.27-2.854-6.619-4.245-7.712 1.856-4.818.092-9.527.009-9.741l-2.713 1.043c.017.044 1.688 4.499-.414 8.555l-.691 1.332 1.354.648c.032.016 3.256 1.613 3.896 6.763zm7.801-2.536c.948-.299 1.891-.589 2.83-.869-.512-4.262-2.593-6.618-3.99-7.741 2.233-4.714.739-9.484.526-10.109-.417.124-.835.25-1.254.378l-1.504.54c.017.048 1.65 4.802-.91 8.887l-.888 1.388 1.493.695c.134.066 3.29 1.676 3.697 6.831zm2.853-10.123l1.283.838c.033.022 3.142 2.11 3.616 7.037.954-.25 1.902-.487 2.843-.711-.506-4.056-2.472-6.583-3.75-7.826 2.45-4.261 1.611-8.727 1.222-10.22-.938.211-1.88.437-2.828.674.287 1.065 1.189 5.317-1.482 8.97l-.904 1.238zm12.742 6.095a90.677 90.677 0 0 1 2.741-.473c.008-4.333-1.804-6.772-3.156-7.982 2.74-4.203 2.072-8.827 1.813-10.112-.964.122-1.925.262-2.884.417.096.417 1.123 5.298-2.082 9.07l-1.234 1.451 1.725.807c.031.014 3.111 1.517 2.905 6.816l.172.006zm11.052-1.124c.331-4.169-1.233-6.897-2.377-8.301 2.724-3.386 2.547-7.486 2.238-9.506a56.773 56.773 0 0 0-2.947-.001c.276 1.369.802 5.564-2.284 8.472l-1.254 1.163 1.356 1.039c.121.097 2.879 2.36 2.337 7.281a59.767 59.767 0 0 1 2.931-.147zm8.255-16.814a40.613 40.613 0 0 0-3.099-.556c.304 1.086 1.167 5.177-2.184 7.764l-1.186.915.95 1.157c.027.034 2.483 3.094 1.949 7.646.985.076 1.947.187 2.888.334.47-3.985-.881-7.075-1.806-8.658 2.582-2.655 2.867-6.14 2.488-8.602zm4.891 18.666c1.467-4.105.612-7.661.024-9.319 1.281-1.586 2.445-3.674 2.237-6.72-.006-.094-.015-.187-.023-.28a33.56 33.56 0 0 0-3.067-1.165c.083.52.154 1.094.193 1.693.117 1.784-.646 3.9-1.985 5.039l-.864.744.509 1.019c.081.162 1.821 3.748.191 8.141.956.238 1.886.519 2.785.848zm5.216 2.682c1.987-3.786 1.689-7.36 1.342-9.13 1.273-.924 2.124-2.137 2.538-3.62a7.547 7.547 0 0 0 .261-1.669 31.08 31.08 0 0 0-3.135-2.342c.255 1.039.365 2.194.072 3.239-.295 1.052-.976 1.849-2.083 2.438l-1.085.586.393 1.168c.057.169 1.237 3.809-.801 7.834.868.444 1.701.942 2.498 1.496zm7.572-10.132c-.405 1.18-1.284 2.059-2.686 2.685l-1.034.462.29 1.095c.01.04.936 3.734-1.87 7.713a21.383 21.383 0 0 1 1.866 1.965c2.872-3.78 2.945-7.493 2.759-9.274 2.366-1.997 2.297-2.871 2.366-3.459-.627-.868-.843-1.1-1.514-1.878-.041.235-.1.466-.177.691zm1.35 8.461l-1.203.393.446 1.185c.012.031 1.055 2.962-2.371 6.127.448.692.862 1.405 1.241 2.137 3.641-3.113 3.855-6.325 3.65-7.981 1.181-.665 1.88-1.809 2.047-3.651-.551-1.08-.735-1.357-1.334-2.337-.234 2.278-1.062 3.666-2.476 4.127zm.134 14.82c3.606-3.117 4.44-6.442 4.626-8.022.72-.348 1.529-1.386 1.529-3.189-.479-1.292-.537-1.362-1.072-2.541-.159 1.844-.682 3.411-1.878 3.674l-.999.22.05 1.021c.001.035.105 3.142-3.136 6.35.318.792.61 1.622.88 2.487zm7.352-7.885c-.173 1.47-.51 2.728-1.086 3.391-.254.292-.522.425-.867.429l-1.035.013-.04 1.034c-.002.034-.166 3.017-3.649 5.477.177.74.341 1.501.486 2.289 3.777-2.314 4.886-5.304 5.209-6.781.582-.181 2.456-1.981.982-5.852zm29.446 117.238c-3.822-.025-7.289-1.024-10.029-2.889a14.118 14.118 0 0 1-1.982-1.627c-4.667 2.992-9.905 4.573-15.166 4.573s-9.626-1.967-12.289-5.539c-2.809-3.769-3.433-8.945-1.756-14.576l2-6.411c.635-1.895.604-3.345-.083-3.986-.754-.703-2.424-.722-4.063-.046-.775.321-1.593.835-2.366 1.488-.058.049-.105.106-.162.156.151-.071.275-.125.359-.16 1.306-.555 2.545-.541 3.157.034.606.569.69 1.835.224 3.384l-1.69 5.549c-1.867 6.267-1.133 12.067 2.068 16.332.906 1.208 1.997 2.506 4.469 3.914 2.279 1.298 4.977 1.957 8.019 1.957 4.64 0 9.817-1.521 15.39-4.519 3.117 3.045 7.512 4.802 12.13 4.834h9.933l2.608-2.467-10.771-.001zm-71.722-1.785l7.695-25.297c.515-1.664.428-3.016-.233-3.619-.676-.617-2.05-.629-3.5-.029-.757.312-1.521.761-2.27 1.334-.148.114-.289.234-.431.353 1.285-.503 2.481-.506 3.081.057.606.569.689 1.834.224 3.385l-7.975 26.36h16.189l3.14-2.564-15.92.02zm-24.096-.004c-6.712 2.339-12.633 2.242-17.122-.283a13.824 13.824 0 0 1-3.392-2.681c-.36.265-.726.522-1.098.771-.333.224-.658.408-.988.611a13.617 13.617 0 0 0 1.758 1.803 15.02 15.02 0 0 0 2.165 1.533c2.054 1.194 4.58 2.074 7.392 2.169.164.006.325.019.491.019.724 0 1.469-.049 2.226-.125 1.889-.19 3.871-.607 5.928-1.267h14.561l3.384-2.564-15.305.014zm-55.43-45.038c-.054.024-.103.058-.158.082a8.225 8.225 0 0 1-3.248.662c-4.573 0-8.294-3.72-8.294-8.293 0-1.733.549-3.39 1.53-4.776-.055.046-.106.097-.159.145a7.983 7.983 0 0 0-3.402 6.537c0 .459.048.906.122 1.345.641 3.773 3.917 6.649 7.872 6.649a7.946 7.946 0 0 0 4.043-1.106 7.952 7.952 0 0 0 1.27-.926c.144-.103.287-.208.424-.319zm154.841.736c-4.573 0-8.294-3.72-8.294-8.292 0-1.762.566-3.448 1.58-4.848-.087.071-.167.149-.25.223a7.982 7.982 0 0 0-3.403 6.538 7.994 7.994 0 0 0 7.993 7.994c2.042 0 3.9-.772 5.312-2.032.125-.088.247-.179.366-.274-.02.008-.037.021-.057.029a8.252 8.252 0 0 1-3.247.662z" fill="#ef3340"/><path d="M262.319 244.962l5.407-17.904c.054-.18.12-.363.201-.559l.049-.109c.084-.186.141-.31.206-.431l.074-.136c.089-.156.154-.266.223-.375l.082-.125a7.481 7.481 0 0 1 2.582-2.35c-2.085.372-3.525 1.303-4.528 2.387-1.475 1.419-1.996 3.271-2.338 4.4l-5.408 17.903c-.361 1.183-1.088 2.366-2.089 3.47.041-.023.085-.039.126-.062 2.643-1.494 4.718-3.834 5.413-6.109zm-76.023.365l5.586-18.271c.055-.179.12-.359.199-.553l.051-.115c.082-.182.138-.303.201-.423l.08-.143c.088-.154.153-.264.221-.372l.114-.172a7.438 7.438 0 0 1 1.176-1.323c-.483.196-.944.44-1.378.729-2.199 1.301-3.657 3.584-4.106 5.063l-5.695 18.275c-.507 1.514-1.442 3.013-2.632 4.312.118-.058.235-.104.353-.168 2.665-1.434 4.899-4.055 5.83-6.839zm-29.041 17.96c-3.625 1.966-7.431 3.013-11.037 3.014-3.077 0-5.88-.737-8.33-2.19a14.546 14.546 0 0 1-4.142-3.663c-.43.283-.884.564-1.352.837-.384.224-.799.447-1.221.667a14.418 14.418 0 0 0 4.321 3.949c2.435 1.442 5.217 2.174 8.271 2.174h.005c4.474 0 8.825-1.484 12.939-4.395.081-.057.163-.106.244-.164l.302-.229zm-38.061 1.724l-.076-.001c-5.73-.037-10.649-2.277-13.493-6.148-2.673-3.636-3.333-8.296-1.856-13.122l5.709-18.685c.051-.171.117-.354.2-.557l.046-.104c.084-.189.144-.314.209-.437l.075-.136c.089-.158.156-.271.229-.384l.088-.132c.101-.148.181-.257.266-.366.265-.335.558-.647.876-.933a10.89 10.89 0 0 0-3.5 2.509c-1.057 1.067-1.685 2.239-1.989 3.243l-4.8 15.709c-1.663 5.442-.878 10.727 2.175 14.879 3.357 4.569 9.592 6.959 14.016 6.959 3.399 0 6.191-.617 8.822-2.014 1.614-.772 3.162-1.828 4.729-3.209-3.768 1.915-7.821 2.929-11.726 2.929zm8.96-15.613a13.037 13.037 0 0 0 2.313-2.127c.44-4.242 2.044-8.576 4.644-12.542 2.339-3.567 5.359-6.632 8.789-8.946a30.25 30.25 0 0 0-4.197 2.862c-3.884 2.963-6.633 6.56-8.665 10.217-1.972 3.549-3.237 7.367-3.692 11.078.274-.171.544-.351.808-.542zm28.163-12.55h.002c.257.072.494.158.689.268.566.321.889.799.915 1.354l-3.269 10.952-.297.995c.268-.211.537-.42.798-.655a17.895 17.895 0 0 0 3.157-3.736l2.414-7.924c-.162-1.819-.941-2.889-2.379-3.269a4.378 4.378 0 0 0-1.11-.137c-1.523 0-3.33.683-5.089 1.923a15.58 15.58 0 0 0-.797.604c-.281.226-.527.438-.799.687-.043.04-.082.087-.125.127a13.292 13.292 0 0 1 2.329-.972c1.489-.445 2.696-.459 3.561-.217z" fill="#ef3340"/><path d="M280.634 203.171a8.299 8.299 0 0 0-5.314 1.931 8.413 8.413 0 0 0-1.4 1.514 8.257 8.257 0 0 0-1.58 4.848c0 4.572 3.721 8.292 8.294 8.292a8.225 8.225 0 0 0 3.248-.662c.02-.008.037-.021.057-.029a8.286 8.286 0 0 0 4.988-7.601c-.001-4.573-3.72-8.293-8.293-8.293zm0 14.035a5.748 5.748 0 0 1-5.741-5.741 5.748 5.748 0 0 1 5.741-5.741 5.748 5.748 0 0 1 5.741 5.741 5.748 5.748 0 0 1-5.741 5.741zm-3.515 34.406c-.433-.584-.494-1.489-.17-2.547l8.183-26.94-10.917.012c-1.043.001-2.104.304-3.072.836a7.471 7.471 0 0 0-2.582 2.35l-.082.125a7.873 7.873 0 0 0-.223.375l-.074.136a6.807 6.807 0 0 0-.206.431l-.049.109c-.081.196-.147.38-.201.559l-5.407 17.904c-.695 2.274-2.77 4.615-5.413 6.109-.041.024-.085.04-.126.062-1.671.92-3.437 1.433-4.991 1.433-.309 0-.864-.048-1.103-.371-.358-.485-.312-1.706.118-3.109l2.077-6.785c2.495-8.231.842-15.181-4.422-18.591-3.023-1.959-6.857-2.501-11.088-1.568-3.266.721-6.723 2.362-10.017 4.754-1.707-2.238-4.244-3.891-7.184-4.675-3.464-.924-7.387-.675-11.121.695l.234-.777-10.912.001c-1.57.002-3.18.681-4.446 1.815a7.438 7.438 0 0 0-1.176 1.323l-.114.172c-.077.122-.15.246-.221.372l-.08.143c-.071.139-.138.28-.201.423l-.051.115a6.39 6.39 0 0 0-.199.553l-5.586 18.271c-.931 2.784-3.166 5.405-5.83 6.84-.118.063-.235.11-.353.168-1.124.55-2.244.853-3.26.853-1.199 0-2.128-.413-2.69-1.192-.821-1.14-.907-2.943-.233-4.958l7.566-24.898-4.911.001-6.006.001c-1.507.002-3.074.621-4.338 1.706a14.947 14.947 0 0 0-1.628-.928c-4.578-2.235-10.21-2.159-15.857.212a28.03 28.03 0 0 0-3.599 1.84c-.287.173-.566.363-.848.547-.136.089-.274.173-.409.264-3.43 2.315-6.45 5.379-8.789 8.946-2.6 3.966-4.205 8.3-4.644 12.542-.683.8-1.459 1.514-2.313 2.127-.265.191-.534.371-.807.541-1.84 1.145-3.842 1.79-5.613 1.79-1.223 0-2.147-.338-2.602-.954-.434-.585-.494-1.489-.171-2.546l7.922-26.086-10.919.002c-1.589.002-3.222.7-4.496 1.862a6.826 6.826 0 0 0-1.142 1.299l-.088.132c-.073.113-.14.226-.229.384l-.075.136a7.613 7.613 0 0 0-.209.437l-.046.104a5.77 5.77 0 0 0-.2.557l-5.709 18.685c-1.476 4.826-.817 9.486 1.856 13.122 2.844 3.871 7.762 6.111 13.493 6.148l.076.001c3.906 0 7.958-1.014 11.727-2.928.031-.015.062-.028.093-.044.056-.028.104-.058.159-.087.423-.22.837-.443 1.221-.667.468-.273.922-.555 1.352-.837a14.59 14.59 0 0 0 4.142 3.663c2.45 1.453 5.253 2.19 8.33 2.19 3.607-.001 7.412-1.048 11.037-3.014l-.304.229c-.081.058-.163.107-.244.164 1.544 10.808 4.502 19.337 8.81 25.336 3.464 4.824 6.63 6.374 7.518 6.733.049.022.972.464 2.245.894 2.833.956 5.834 1.829 7.531 2.309-2.424-1.807-4.724-3.692-6.82-5.79l-.003-.002-.001-.001-1.647-.78c-.427-.173-10.294-4.442-13.96-28.099a13.555 13.555 0 0 1-1.758-1.803c.33-.204.655-.388.988-.611.392-.263.753-.518 1.098-.771a13.824 13.824 0 0 0 3.392 2.681c4.489 2.524 10.409 2.621 17.122.283l15.305-.013 7.023-23.012c.365-1.371 1.51-2.952 3.03-4.227.142-.119.283-.24.431-.353a10.09 10.09 0 0 1 2.27-1.334c1.449-.6 2.823-.588 3.5.029.661.603.748 1.955.233 3.619l-7.695 25.297 15.92-.017 6.858-22.524.021-.076c.399-1.493 1.529-3.14 3.025-4.455.057-.05.105-.107.162-.156.773-.653 1.591-1.168 2.366-1.488 1.639-.676 3.309-.657 4.063.046.687.641.717 2.092.083 3.986l-2 6.411c-1.676 5.631-1.053 10.808 1.756 14.576 2.663 3.572 7.028 5.539 12.289 5.539s10.499-1.58 15.166-4.573c.61.601 1.273 1.146 1.982 1.627 2.74 1.865 6.207 2.864 10.029 2.889h10.769l4.053-13.281h-12.141c-1.222-.003-2.146-.342-2.603-.958zm8.802 11.684h-8.867c-5.039-.032-9.246-1.993-11.578-5.387-3.3 2.51-8.647 5.441-15.613 5.441-4.435 0-8.073-1.603-10.243-4.512-2.316-3.106-2.798-7.482-1.356-12.322l1.976-6.338c.979-2.919.708-5.28-.762-6.654-1.507-1.407-4.168-1.618-6.78-.539-3.18 1.314-6.209 4.667-7.045 7.801l-6.305 20.708-10.583.011 6.691-21.997c.836-2.706.496-4.924-.955-6.248-1.447-1.319-3.762-1.507-6.194-.501-3.324 1.374-6.427 4.647-7.218 7.613l-.143.538-.023-.061-6.286 20.644-10.583.011.483-1.588c-5.439 2.629-10.494 3.71-14.641 3.127-3.853-.542-6.866-2.476-8.729-5.595-4.634 4.122-10.019 6.314-14.897 6.314-2.561 0-4.981-.603-7.082-1.849-2.054-1.217-3.646-2.95-4.731-5.15-4.448 3.625-9.991 5.693-15.264 5.694h-.128c-4.872-.031-9.02-1.893-11.383-5.106-2.184-2.971-2.707-6.829-1.473-10.865l5.708-18.683c.518-1.711 2.335-3.105 4.049-3.107h7.469l-6.917 22.788c-.565 1.849-.366 3.556.561 4.809.948 1.282 2.601 1.988 4.653 1.988 3.959 0 8.564-2.481 11.217-6.038.286-4.075 1.771-8.264 4.295-12.115 3.145-4.798 7.584-8.578 12.499-10.643 4.957-2.083 9.84-2.179 13.749-.271a12.194 12.194 0 0 1 3.171 2.225c.65-1.557 2.318-2.743 3.917-2.745l7.471-.008-6.533 21.553c-.937 2.802-.729 5.442.572 7.248 1.045 1.453 2.736 2.253 4.761 2.253 4.759 0 10.074-4.31 11.846-9.608l5.625-18.332c.518-1.71 2.335-3.104 4.049-3.106l7.471-.008-1.049 3.444c4.512-3.431 10.177-4.73 14.911-3.388 3.334.945 5.774 3.07 6.899 5.998 7.332-6.284 15.344-8.206 20.465-4.888 4.255 2.757 5.513 8.629 3.367 15.709l-2.074 6.78c-.711 2.316-.617 4.173.269 5.372.67.907 1.791 1.407 3.155 1.407 5.377 0 11.438-4.398 12.97-9.412l5.41-17.911c.519-1.711 2.336-3.105 4.049-3.106l7.469-.001-7.179 23.634c-.565 1.848-.366 3.556.561 4.809.948 1.281 2.601 1.987 4.653 1.987h8.643l-2.44 8.176z" fill="#00a3e0"/><path d="M158.999 232.366a6.92 6.92 0 0 0-1.76-.221c-4.738 0-10.46 4.401-13.253 10.52-1.514 3.316-1.848 6.644-.916 9.132.553 1.476 1.528 2.566 2.819 3.152 3.866 1.754 9.962-1.11 13.879-6.521.306-.423.597-.861.889-1.336l2.647-8.685c-.117-3.148-1.685-5.349-4.305-6.041zm-12.056 20.258c-.67-.304-1.169-.884-1.483-1.723-.686-1.829-.368-4.512.849-7.177.941-2.064 2.404-4.073 4.119-5.686.043-.04.082-.088.125-.127.271-.249.518-.461.799-.687.272-.22.54-.423.797-.604 1.759-1.24 3.566-1.923 5.089-1.923.396 0 .769.046 1.11.137 1.438.38 2.217 1.45 2.379 3.269l-2.414 7.924a17.864 17.864 0 0 1-3.157 3.736c-.261.234-.53.444-.798.655-2.678 2.106-5.628 3.017-7.415 2.206zm-32.849-41.152c0 4.573 3.721 8.293 8.294 8.293a8.225 8.225 0 0 0 3.248-.662c.055-.024.104-.057.158-.082a8.282 8.282 0 0 0 4.887-7.549c0-4.573-3.72-8.293-8.292-8.293a8.299 8.299 0 0 0-5.314 1.931 8.363 8.363 0 0 0-1.449 1.586 8.236 8.236 0 0 0-1.532 4.776zm2.552 0a5.747 5.747 0 0 1 5.741-5.74 5.747 5.747 0 0 1 5.74 5.74 5.748 5.748 0 0 1-5.74 5.742 5.748 5.748 0 0 1-5.741-5.742z" fill="#00a3e0"/><path d="M286.374 211.465a5.747 5.747 0 0 0-5.741-5.741 5.748 5.748 0 0 0-5.741 5.741 5.748 5.748 0 0 0 5.741 5.741 5.748 5.748 0 0 0 5.741-5.741zm-163.987 5.749a5.748 5.748 0 0 0 5.74-5.742 5.747 5.747 0 0 0-5.74-5.74 5.747 5.747 0 0 0-5.741 5.74 5.748 5.748 0 0 0 5.741 5.742zm152.682 35.918c-.927-1.253-1.126-2.961-.561-4.809l7.179-23.634-7.469.001c-1.714.001-3.531 1.395-4.049 3.106l-5.41 17.911c-1.532 5.014-7.593 9.412-12.97 9.412-1.365 0-2.485-.5-3.155-1.407-.887-1.199-.98-3.057-.269-5.372l2.074-6.78c2.146-7.079.887-12.952-3.367-15.709-5.12-3.317-13.133-1.396-20.465 4.888-1.125-2.928-3.565-5.053-6.899-5.998-4.735-1.342-10.4-.044-14.911 3.388l1.049-3.444-7.471.008c-1.715.002-3.531 1.396-4.049 3.106l-5.625 18.332c-1.773 5.297-7.087 9.608-11.846 9.608-2.024 0-3.715-.8-4.761-2.253-1.3-1.806-1.509-4.446-.572-7.248l6.533-21.553-7.471.008c-1.599.002-3.267 1.188-3.917 2.745a12.194 12.194 0 0 0-3.171-2.225c-3.909-1.908-8.792-1.812-13.749.271-4.915 2.065-9.354 5.846-12.499 10.643-2.524 3.851-4.009 8.04-4.295 12.115-2.653 3.557-7.259 6.038-11.217 6.038-2.052 0-3.705-.706-4.653-1.988-.927-1.253-1.126-2.961-.561-4.809l6.917-22.788h-7.469c-1.715.002-3.531 1.396-4.049 3.107l-5.708 18.683c-1.234 4.035-.711 7.894 1.473 10.865 2.363 3.214 6.511 5.075 11.383 5.106h.128c5.273 0 10.816-2.069 15.264-5.694 1.086 2.201 2.677 3.933 4.731 5.15 2.101 1.245 4.521 1.849 7.082 1.849 4.878 0 10.263-2.192 14.897-6.314 1.863 3.119 4.876 5.053 8.729 5.595 4.147.584 9.202-.497 14.641-3.127l-.483 1.588 10.583-.011 6.286-20.644.023.061.143-.538c.791-2.967 3.894-6.24 7.218-7.613 2.432-1.005 4.747-.818 6.194.501 1.452 1.324 1.791 3.542.955 6.248l-6.691 21.997 10.583-.011 6.305-20.708c.836-3.133 3.865-6.487 7.045-7.801 2.612-1.079 5.273-.868 6.78.539 1.47 1.373 1.741 3.735.762 6.654l-1.976 6.338c-1.441 4.84-.96 9.215 1.356 12.322 2.17 2.91 5.807 4.512 10.243 4.512 6.966 0 12.312-2.932 15.613-5.441 2.333 3.394 6.54 5.354 11.578 5.387h8.867l2.443-8.177h-8.643c-2.056.001-3.708-.705-4.656-1.986zm-114.413-6.041a20.92 20.92 0 0 1-.889 1.336c-3.916 5.411-10.013 8.275-13.879 6.521-1.291-.586-2.265-1.675-2.819-3.152-.931-2.488-.598-5.817.916-9.132 2.793-6.12 8.514-10.52 13.253-10.52.606 0 1.195.072 1.76.221 2.62.693 4.188 2.893 4.305 6.04l-2.647 8.686z"/><path d="M65.531 226.11c2.989-4.038 7.082-9.568 10.958-14.608l.07-.086c6.977-8.297 11.419-12.373 17.021-15.578a35.974 35.974 0 0 1 5.005-2.308 37.043 37.043 0 0 1 4.29-1.298l-.8.09c.056-.023.11-.044.161-.063 0 0-.602.068-3.437.828-.371.1-.745.208-1.121.323a38.646 38.646 0 0 0-7.138 2.955c-.172.092-.354.178-.523.273l-.003.002c-5.876 3.361-10.514 7.607-17.745 16.201a2.89 2.89 0 0 0-.11.138l-7.677 10.202.712 3.385.337-.456zm-32.12 41.018c-3.039 2.545-7.936 4.408-14.132 5.289-3.051.434-6.327.753-8.589.761 1.941-1.52 4.335-3.611 6.433-6.077 1.528-1.672 3.415-4.337 4.768-8.257.986-2.858 14.801-47.609 16.374-52.702l.06-.196c.2-.668.367-1.281.511-1.872.101-.414.184-.788.252-1.141.369-1.765.412-3.124.406-3.458.029-1.659-.21-3.118-.628-4.284-.097-.27-.216-.581-.369-.823l-.073-.118-.001.002-.002-.009-2.454 2.462.069.122c.144.25.244.569.324.846.521 1.807.402 4.169-.386 7.132l-16.687 53.652c-2.861 8.914-14.457 16.081-14.574 16.152l-.899.549 1.049.1c.032.003 1.756.162 4.387.162 2.284 0 5.25-.12 8.384-.565 8.984-1.278 15.273-4.645 18.182-9.727.392-.671 1.528-2.505 2.039-3.436-.749 1.232-1.613 2.446-2.613 3.556-.371.405-.953 1.085-1.831 1.88zm47.3-35.458l-4.511 6.057-.698 2.249-.001.002-9.014 29.052-.137.439 21.94-.001 2.573-2.566.119-.12-21.153.002 10.882-35.114zm-33.286 2.295l6.772 32.008 2.235-1.7-7.467-35.343-1.54 5.035z" fill="#ef3340"/><path d="M114.468 195.95c2.077-1.906 3.169-2.745 5.328-4.511 0 0-2.316-.299-7.683-.308-2.34 0-5.598.228-9.239 1.102a37.103 37.103 0 0 0-4.29 1.298 35.859 35.859 0 0 0-5.005 2.308c-5.602 3.205-10.044 7.281-17.021 15.578l-.07.086c-3.876 5.04-7.969 10.57-10.958 14.608l-.337.455-.712-3.385-6.053-28.757-.039-.188-19.97.005.002.009.001-.002.073.118c.153.243.272.554.369.823.418 1.166.658 2.625.628 4.284.006.334-.038 1.693-.406 3.458-.069.353-.152.727-.252 1.141a36.702 36.702 0 0 1-.511 1.872l-.06.196c-1.572 5.093-15.387 49.844-16.374 52.702-1.352 3.921-3.24 6.585-4.768 8.257-2.097 2.466-4.491 4.557-6.433 6.077 2.262-.008 5.538-.327 8.589-.761 6.196-.881 11.093-2.744 14.132-5.289.878-.795 1.46-1.475 1.828-1.882 1-1.11 1.865-2.324 2.613-3.556 2.357-3.878 3.542-7.94 4.005-9.531l5.567-18.193 1.541-5.035 7.467 35.343 19.77-26.545 4.51-6.057-10.882 35.114 21.153-.001c-.404-1.371-.67-2.333-.896-3.385-.267-1.546-.248-2.151-.054-3.605.123-.921.386-1.924.77-3.24l13.839-44.502c.177-.565.372-1.1.563-1.642 2.201-6.264 5.299-11.021 9.265-14.459zm-26.112 59.845c-.425 1.459-.719 2.582-.862 3.659-.242 1.812-.2 3.259.133 4.552l.056.219h-14.38l.071-.227 14.204-45.834-29.811 40.033-8.346-39.502-10.018 32.737c-.571 1.962-2.306 7.931-6.068 12.103-1.175 1.304-4.751 5.274-14.892 6.333l-.496.052.355-.351c1.801-1.785 4.307-4.95 6.011-9.892 1.036-3.004 16.306-52.479 16.46-52.977.58-1.953.91-3.44 1.136-5.129.238-1.787.194-3.276-.133-4.553l-.057-.219 14.592-.004 7.528 35.843s10.836-14.598 14.667-19.577c6.759-8.04 11.037-11.964 16.348-15.004 6.461-3.611 12.951-4.368 17.259-4.368.196 0 .392.002.586.007l.458.012-.349.297c-4.773 4.061-8.244 9.714-10.611 17.284l-13.841 44.506z" fill="#00a3e0"/><path d="M112.807 194.004l.349-.297-.458-.012a22.899 22.899 0 0 0-.586-.007c-4.308 0-10.799.758-17.259 4.368-5.311 3.039-9.588 6.964-16.348 15.004-3.831 4.979-14.667 19.577-14.667 19.577l-7.528-35.843-14.592.004.057.219c.327 1.277.371 2.766.133 4.553-.226 1.69-.556 3.176-1.136 5.129-.154.499-15.424 49.974-16.46 52.977-1.704 4.942-4.21 8.107-6.011 9.892l-.355.351.496-.052c10.141-1.059 13.717-5.029 14.892-6.333 3.762-4.172 5.497-10.141 6.068-12.103l10.018-32.737 8.346 39.502 29.811-40.033-14.204 45.834-.071.227h14.38l-.056-.219c-.332-1.293-.375-2.74-.133-4.552.143-1.077.436-2.2.862-3.659l13.841-44.506c2.367-7.569 5.839-13.223 10.611-17.284z"/><path d="M73.562 146.508l.001-.076h-.001c-.122-9.921 1.468-19.86 4.908-29.364-1.095.042-2.171.089-3.227.141-2.411 7.212-4.849 17.543-4.6 29.223.161 7.538 1.436 15.635 4.57 23.819 1.51 3.843 4.812 10.647 9.925 18.168.238.35.459.694.705 1.047-5.811-11.509-12.111-30.034-12.281-42.958z" fill="#00a3e0"/><path d="M157.008 237.117a3.155 3.155 0 0 0-.689-.268h-.001c-.865-.242-2.073-.228-3.561.218.038.223.078.448.112.67l.163 1.046c.273 1.744.865 5.534 1.624 10.64l3.269-10.952c-.028-.555-.351-1.033-.917-1.354z"/><path d="M294.5 267.891h-.012l-.587-1.837h-.896v2.81h.516v-2.238h.014l.708 2.235h.495l.734-2.235h.012v2.235H296v-2.807h-.889l-.611 1.837zm-3.998-1.335h.76v2.308h.515v-2.308h.768v-.502h-2.043v.502z" fill="#00a3e0"/></svg>