<svg xmlns="http://www.w3.org/2000/svg" viewBox="0 0 216 216.001"><path d="M107.999 4.963C51.184 4.963 4.963 51.185 4.963 108c0 56.816 46.222 103.038 103.036 103.038 56.816 0 103.038-46.222 103.038-103.038-.001-56.815-46.223-103.037-103.038-103.037z" fill="#12284b"/><path d="M107.999 0C48.448 0 0 48.449 0 108c0 59.552 48.448 108.001 107.999 108.001C167.551 216.001 216 167.552 216 108 216 48.449 167.551 0 107.999 0zM4.963 108c0-56.815 46.222-103.037 103.036-103.037 56.816 0 103.038 46.222 103.038 103.037 0 56.816-46.222 103.038-103.038 103.038C51.184 211.038 4.963 164.816 4.963 108z" fill="#ffc52f"/><path d="M107.999 206.171c-54.131 0-98.169-44.038-98.169-98.169 0-54.132 44.038-98.171 98.169-98.171 54.132 0 98.171 44.039 98.171 98.171 0 54.13-44.039 98.169-98.171 98.169zm0-193.838c-52.751 0-95.667 42.917-95.667 95.669 0 52.751 42.916 95.668 95.667 95.668 52.752 0 95.67-42.917 95.67-95.668 0-52.752-42.918-95.669-95.67-95.669z" fill="#003ea0"/><path d="M156.51 86.541v14.449c0 12.059-1.971 19.363-11.44 39.389-9.971 21.083-22.265 27.343-36.979 27.343-9.674 0-18.77-3.187-26.116-9.072l-.067.025-1.642-1.467-.302-.268a39.588 39.588 0 0 1-5.772-6.445.37.37 0 0 1-.062-.087c-.093-.124-.182-.251-.271-.377a39.985 39.985 0 0 1-2.419-3.841c-.087-.142-.166-.289-.242-.428-2.421-4.359-4.019-8.699-5.359-12.326-.384-1.041-.743-2.02-1.099-2.929-2.776-7.133-8.151-21.071-10.752-28.093-2.705-7.292-3.118-12.467-1.387-17.308 1.853-5.184 5.999-9.332 11.655-13.959 5.666-4.636 10.528-8.486 17.248-13.338 4.205-3.034 8.719-4.643 13.051-4.643 1.835 0 3.568.295 5.158.872.284.102.599.22 1.01.375 1.46.55 2.756 1.3 3.873 2.224.115-.067.229-.131.333-.195 3.089-1.804 6.553-2.756 10.022-2.756 2.745 0 5.433.593 7.774 1.715.51.24.805.393 1.143.573.162.087.344.182.59.306 1.842.943 3.429 2.153 4.709 3.56 2.053-.69 4.043-1.036 5.943-1.036 2.896 0 5.604.79 8.045 2.346l.584.371c1.118.712 1.682 1.07 2.552 1.673 6.628 4.589 10.219 9.668 10.219 23.347" fill="#ffc52f"/><path d="M143.843 66.73c-.934-.646-1.478-.983-2.998-1.951-2.956-1.884-6.873-2.508-12.215-.118l-1.012.451c-1.187-2.437-3.295-4.07-5.12-5.002-.748-.384-.954-.506-1.629-.83-3.626-1.733-8.875-1.984-13.77.879-.983.572-2.272 1.334-3.382 1.991-1.132-1.933-2.876-3.096-4.512-3.711a232.2 232.2 0 0 0-.965-.357c-3.617-1.318-8.904-.619-14.216 3.216-6.327 4.569-10.969 8.209-17.039 13.18-11.105 9.083-13.462 14.305-8.963 26.442 2.474 6.673 7.721 20.297 10.728 28.027 1.724 4.432 3.524 10.179 6.782 15.725v.002c.297.506.606 1.012.93 1.514.084.135.175.262.264.395a36.586 36.586 0 0 0 5.346 6.425c.169.164.337.326.51.486.087.078.164.16.253.24.002 0 .005-.004.007-.007 6.624 6.03 15.401 9.696 25.25 9.696 18.069 0 32.716-14.647 32.716-32.714v-.038c0-17.248-13.981-31.227-31.229-31.227-9.367 0-18.779 5.419-24.334 13.961a14610.05 14610.05 0 0 0-11.214-27.398c-2.046-4.984-1.578-7.508 1.549-10.406 1.598-1.48 3.542-2.965 5.699-4.427 2.201-1.489 4.691-.612 4.691 2.301v30.86c5.029-5.077 11.205-8.389 19.11-9.849l-.124-25.47a59.79 59.79 0 0 1 1.487-.903c2.015-1.167 3.455.129 3.455 2.006v23.719c.127-.002.253-.007.377-.007a36.085 36.085 0 0 1 18.282 4.958V72.198c.506-.204.981-.393 1.347-.539 2.02-.803 3.384.451 3.384 2.277 0 1.824-.14 28.188-.14 28.188 7.423 6.118 12.237 15.131 12.996 25.29 3.542-7.534 6.063-14.554 6.063-26.424V86.541c0-12.033-2.727-15.907-8.364-19.811m-34.547 45.534c10.415 0 18.857 8.444 18.857 18.859 0 10.413-8.442 18.857-18.857 18.857s-18.857-8.444-18.857-18.857c.001-10.415 8.443-18.859 18.857-18.859" fill="#12284b"/><path d="M94.997 131.124c0-3.422 1.205-6.564 3.214-9.03 3.997 5.33 3.997 12.727 0 18.058a14.246 14.246 0 0 1-3.214-9.028m5.715 11.435c5.262-6.687 5.262-16.189 0-22.876a14.224 14.224 0 0 1 8.584-2.874c3.22 0 6.194 1.072 8.586 2.874-5.262 6.687-5.262 16.189 0 22.876a14.225 14.225 0 0 1-8.586 2.874 14.224 14.224 0 0 1-8.584-2.874m19.671-2.407c-3.997-5.331-3.997-12.727 0-18.058a14.255 14.255 0 0 1 3.216 9.03 14.259 14.259 0 0 1-3.216 9.028" fill="#fff"/><g fill="#fff"><path d="M39.11 77.988l-5.627.078 7.737 3.527-1.435 3.149-2.254-1.027.364-.791-10.114-4.61-.36.791-2.234-1.017 1.435-3.149 1.211.551 8.028-.042-5.243-6.066-1.211-.551 1.447-3.171 2.23 1.017-.372.813 10.114 4.612.372-.813 2.25 1.025-1.443 3.171-7.737-3.527 3.64 4.278-.798 1.752zM42.866 49.28l1.858 1.6-.567.659 8.44 7.267.567-.659 1.858 1.6-2.917 3.385-1.842-1.616.567-.659-8.44-7.267-.567.659-1.858-1.6 2.901-3.369zM66.532 45.56l2.238-1.558 1.914 2.743-7.425 5.179-1.403-2.012.715-.497-6.374-9.133-.715.498-1.403-2.01 3.668-2.557 1.403 2.012-.771.537 6.37 9.133 2.294-1.6-.511-.735zM88.534 22.218l.747 2.312-.843.296 1.51 12.516.376 1.155-2.574.831-.376-1.157-4.288-7.091.647 8.268.372 1.155-2.574.831-.372-1.155-6.094-11.037-.855.254-.747-2.312 3.141-1.013.372 1.155 3.948 7.153-.568-8.244 2.05-.663 4.34 7.027-.983-8.11-.372-1.157 3.143-1.014zM113.394 34.081l.827.014-.04 2.452-3.505-.058.068-4.33-4.124-.066-.068 4.33-3.529-.058.04-2.452.823.014.14-8.524 2.418-5.025 4.855.078 2.234 5.079-.139 8.546zm-2.545-8.2l-1.327-3.001-1.375-.022-1.423 2.955-.064 3.804 4.124.066.065-3.802zM139.889 26.186l-.747 2.36-.851-.272-3.125 9.829-2.426 2.641-5.83-1.852-.48-3.567 3.125-9.826-.851-.272.747-2.358 3.409 1.083-3.664 11.531.188 1.599 2.338.743 1.091-1.169 3.672-11.553 3.404 1.083zM160.113 37.45l1.998 1.377-1.391 2.02-.715-.493-5.275 3.129-1.043 6.042.715.493-1.391 2.02-2.018-1.391 1.295-7.373-1.039-.715-3.86 5.605-2.945-2.028 1.391-2.018.719.493 6.314-9.173-.715-.493 1.391-2.018 2.945 2.028-3.848 5.585 1.039.715 6.433-3.805zM174.735 56.295l.655-.535-1.734-2.132-3.341 2.721 2.594 3.181-1.918 1.562-2.593-3.179-3.341 2.723 1.738 2.13.675-.549 1.71 2.096-2.578 2.1-5.722-6.985 1.918-1.562.563.691 8.6-7.007-.567-.693 1.918-1.562 5.706 6.997-2.573 2.1-1.71-2.097zM186.352 76.326l.775-.338-1.095-2.522-3.952 1.714 1.634 3.762-2.27.985-1.634-3.762-3.952 1.714 1.095 2.522.799-.346 1.075 2.48-3.049 1.323-3.613-8.274 2.27-.985.356.821 10.178-4.414-.356-.821 2.27-.983 3.592 8.282-3.049 1.323-1.074-2.481z"/></g><g fill="#fff"><path d="M41.096 165.278l-5.491-7.053 1.934-1.505.552.703 8.787-6.842-.551-.705 1.934-1.507 5.491 7.053-1.231 2.41-2.857 2.224-2.086.492-.987 1.902-2.857 2.224-2.638.604zm3.836-4.961l.38-.703-2.126-2.729-3.437 2.673 2.086 2.677.943-.242 2.154-1.676zm3.605-7.601l-3.417 2.661 2.126 2.729.759-.184 2.17-1.688.448-.843-2.086-2.675zM62.863 180.885l.711.498-1.403 2.012-2.01-1.405 1.183-6.58-1.431-.997-3.473 4.981-2.933-2.046 1.403-2.01.715.498L62 166.703l-.715-.497 1.403-2.012 7.009 4.891-.639 3.605-1.982 2.837-3.025 1.772-.488-.34-.7 3.926zm-1.53-8.5l2.857 1.992.667-.4 1.982-2.837.176-.937-2.797-1.954-2.885 4.136zM86.54 180.306l.26-.807-2.613-.849-1.331 4.098 3.9 1.267-.763 2.354-3.9-1.267-1.331 4.098 2.613.849.272-.829 2.57.835-1.027 3.161-8.592-2.767.763-2.354.851.276 3.425-10.548-.851-.278.763-2.354 8.588 2.789-1.023 3.161-2.574-.835zM116.543 179.948l.04 2.428-.891.038-2.206 12.412.02 1.213-2.705.044-.02-1.213-2.03-8.034-1.794 8.096.02 1.213-2.705.044-.02-1.213-2.605-12.334-.895-.008-.04-2.43 3.301-.054.02 1.215 1.686 7.994 1.866-8.052 2.154-.034 2.098 7.986 1.431-8.044-.02-1.215 3.295-.052zM134.274 178.719l-.276-.801-2.597.897 1.403 4.072 3.88-1.339.807 2.34-3.876 1.339 1.403 4.072 2.601-.897-.284-.823 2.554-.883 1.087 3.141-8.528 2.969-.807-2.34.843-.292-3.62-10.484-.843.292-.807-2.34 8.532-2.947 1.087 3.141-2.559.883zM161.656 174.879l.703-.512 1.443 1.986-1.986 1.439-5.83-3.277-1.407 1.023 3.561 4.915-2.893 2.098-1.439-1.984.703-.512-6.534-9.017-.707.512-1.439-1.986 6.921-5.015 3.193 1.788 2.03 2.801.683 3.441-.484.35 3.482 1.95zm-8.532-1.345l2.821-2.044-.156-.763-2.034-2.803-.823-.476-2.765 2.004 2.957 4.082zM180.194 158.493l-4.192 5.537-2.633-.585-1.407-1.065 1.63-2.156.751.567.891.188 1.814-2.394-.412-.827-1.514-1.149-7.365 2.588-3.269-2.476-1.275-2.376 4.192-5.535 2.63.585 1.391 1.051-1.618 2.138-.695-.525-.943-.198-1.814 2.394.46.835 1.451 1.125 7.361-2.587 3.289 2.492 1.277 2.373z"/></g><path fill="#ffc52f" d="M181.471 193.188h2.21v6.007h1.494v-6.007h2.211v-1.296h-5.915zM193.045 196.657h-.036l-1.703-4.765h-2.592v7.303h1.496v-5.813h.039l2.049 5.813h1.441l2.112-5.813h.035v5.813h1.494v-7.303h-2.565z"/></svg>