<svg xmlns="http://www.w3.org/2000/svg" viewBox="0 0 223.227 247.096"><title>New York Yankees primary light logo</title><path fill="#FFF" d="M134.847 72.202l-1.475-3.43-1.838 3.088-3.745.31 2.34 2.715-.952 3.653 3.414-1.527 3.158 2.116-.236-3.75 2.875-2.223M119.882 71.83l-1.443-1.99-.738 2.256-2.372.747 1.907 1.4-.085 2.49 1.98-1.464 2.358.896-.706-2.393 1.523-1.838M162.287 93.413l-1.528-2.19-.82 2.414-2.568.716 2.137 1.55-.156 2.67 2.212-1.474 2.372.96-.663-2.51 1.56-2.126M43.534 182.36c.1-.086.197-.16.31-.257-.016-.032-.06-.085-.076-.085-.112-.054-.54-.214-1.036-.406.26.256.534.49.802.747zM153.85 76.455l-3.846 1.753-3.83-2.202.448 4.19-3.35 2.884 4.29.823 1.662 4.146 2.276-3.784 4.247-.203-2.762-3.3M128.58 106.577c-4.542-2.137-9.41-1.688-10.867.46-.37.556-.808 1.24-.904 1.507-.08.32-.188.63-.3.962.096-.3.22-.608.3-.897.084-.28.53-.985.892-1.52 1.46-2.168 6.326-2.616 10.872-.48 4.552 2.16 7.8 7.203 6.535 10.515v-.01c1.296-3.325-1.962-8.368-6.53-10.538zM51.04 151.382c3.243 3.6 13.073-7.8 11.07-11.038-2.665-3.334-13.976 7.81-11.07 11.038zM41.605 130.15c-6.422 6.38-16.937 7.652-22.082 2.105-6.347-6.86 1.538-18.785 8.052-30.133 6.662-11.615 11.7-21.852 3.863-23.39-5.065-.974-10.766 5.535-13.453 10.46-2.607 4.788-5.797 11.883-5.022 22.92 0 17.376 4.74 33.618 12.855 47.702l15.787-29.664zM44.633 183.386c-.026-.033-.058-.085-.08-.14 0 0-.015.033-.032.044.034.03.07.063.113.096zM176.814 136.508c-1.746-2.426-8.522 3.11-8.896 6.486 5.417-.214 10.285-4.542 8.896-6.486zM143.026 144.223c4.76-.63 9.537-4.606 8.746-6.422-1.122-2.543-7.714 2.053-8.746 6.423zM177.605 38.297c-.48.567-1.026 1.186-1.58 1.838 1.393.502 4.15 1.442 5.533 1.924-1.277-1.284-2.596-2.534-3.953-3.763zM192.87 140.26c-1.123 1.09-2.362 2.04-3.528 2.852-.037 3.623-3.766 3.772-3.974 3.57-.636.726-.155 3.782 3.082 3.92 5.37.29 5.273-6.784 4.557-9.403-.068-.31-.084-.632-.138-.94zM127.623 139.115c-.69-1.53-4.734-.973-7.202 0l-2.526 3.91-.99 1.604c5.515.426 11.9-2.918 10.72-5.515z"/><path d="M111.616 0C50.066 0 0 50.073 0 111.61c0 42.785 23.813 81.092 62.164 100.06-.17.32-.534 1.036-.534 1.036-1.785 3.483-5.487 10.707-6.62 11.24l-2.094.653c-1.036.244-2.1.5-3.045 1.24-1.01.757-2.553 3.706-2.553 5.213l-.086.545c-.09.46-.2 1.08-.2 1.86 0 2.478 1.222 6.378 8.654 10.503l1.496.792c10.12 4.765 13.65 1.014 14.987-.374l.373-.374c1.224-.897 2.72-3.89 2.746-5.17.006-.034.006-.066.006-.108 0-1.143-.395-2.116-.79-3.067l-.695-2.073c-.005-.033-.005-.076-.005-.096 0-1.43 3.894-8.9 5.786-12.544 0 0 .828-1.603 1.08-2.094 10.016 2.885 20.42 4.37 30.95 4.37 61.533 0 111.61-50.073 111.61-111.61S173.15 0 111.617 0zm.01 217.878c-11.775 0-23.075-1.955-33.653-5.482-3.66 7.192-6.92 13.827-8.8 18.155-1.325 3.08-1.635 4.447-.32 5.996.25.3.657 1.036.72 1.303.278 1.035-.914 2.403-1.538 2.81-1.298.855-4.103 1.057-9.13-1.24-5.028-2.298-6.295-5.108-6.37-6.657-.042-.737.36-2.5 1.363-2.907.262-.096 1.1-.213 1.496-.17 2.01.138 3.12-1.155 4.81-4.02 2.397-4.07 5.753-10.01 9.327-16.466-37.73-16.284-64.165-53.77-64.267-97.452 0 .065-.01.117-.01.193l.01-.427v.235c.198-9.852 5.845-17.845 8.848-23.05 3.682-6.41 15.313-19.895 26.025-10.865 13.41 11.326-23.027 46.13-13.726 52.55 4.684 3.24 12.896-1.1 17.935-5.833l15.67-29.14 8.874-.267-38.265 72.246c3.018 4.294 6.38 8.334 10.017 12.073.02 0 .06-.01.09 0l3.704 1.43c.117.044.23.13.31.258l.085.15c.957-.897 1.845-1.848 2.764-2.756-.01-.01-.038-.043-.054-.043-.332-.106-5.647-1.667-5.647-1.667-.29-.074-.46-.33-.46-.608 0-.054.005-.118.015-.172.102-.34.465-.545.802-.438l5.83 1.7c.116.042.218.116.303.2l.113.12c.78-.803 1.544-1.615 2.29-2.438-.03-.043-.09-.106-.1-.106l-6.39-1.955c-.272-.095-.45-.34-.45-.62 0-.053.01-.116.027-.17.102-.352.46-.524.79-.428l6.556 1.988c.1.032.197.085.277.17l.123.13c1.18-1.347 2.36-2.726 3.45-4.158-.042-.054-.11-.17-.132-.182-.523-.063-6.533-.684-6.533-.684-.332-.042-.572-.31-.572-.64 0-.01 0-.043.005-.063.032-.363.342-.6.695-.567l6.833.706c.182.01.347.128.454.267l.037.074c.94-1.282 1.87-2.554 2.746-3.847-1.72-.202-6.358-.758-6.358-.758-.33-.043-.57-.31-.57-.63 0-.043 0-.065.004-.085.042-.343.357-.6.71-.556l6.988.824c.748-1.175 1.442-2.394 2.137-3.6l-5.412-.503c-.358-.03-.615-.34-.588-.694.032-.363.34-.62.705-.577l6.02.555c.077-.14.162-.267.242-.417.02-.033.016-.043.032-.085 0 0 .016 0 .022-.022.08-.138.182-.266.25-.426.177-.29.562-.407.872-.246.304.17.433.534.26.876-.02.054-.062.106-.095.15l4.996 4.604c.255.246.282.652.042.92-.235.256-.652.277-.903.042l-4.805-4.424c-.876 1.55-1.768 3.067-2.725 4.574l4.472 5.664c.224.278.17.673-.102.886-.278.224-.678.182-.897-.106 0 0-3.024-3.825-4.205-5.322-.973 1.486-1.998 2.885-3.056 4.296l3.73 5.236c.203.29.138.674-.145.898-.288.202-.7.128-.897-.16 0 0-2.18-3.046-3.473-4.884-1.062 1.38-2.21 2.704-3.35 4.007l3.82 4.05c.252.257.242.663-.015.898-.262.245-.667.235-.908-.022 0 0-2.345-2.477-3.735-3.93-.754.833-1.54 1.645-2.33 2.458l3.312 3.74c.23.256.208.684-.06.908-.26.224-.672.213-.896-.065 0 0-2.042-2.286-3.26-3.674-.95.94-1.86 1.944-2.843 2.832-.032.02-.043.043-.07.053l2.07 3.303c.068.128.068.267.062.374 7.72 6.635 16.402 12.085 25.726 16.113 5.546-10.205 10.997-20.483 13.727-26.05 1.474-2.983 6.138-12.118 11.487-23.403-2.656 2.03-8.132 4.69-9.526 2.522-2.923-4.532 5.99-11.723 4.306-13.71-1.025-1.22-5.2 1.913-8.612 5.844 0 0-1.89 3.644-4.482 8.228l-6.08.063c-.37-.277 7.73-12.16 6.16-13.548-2.24-1.935-15.35 19.244-21.51 14.756-.524-.385-1.918-1.966-.054-5.92-2.757 3.644-9.472 6.593-12.294 4.157-6.053-5.27 10.392-22.868 17.022-16.766.513.47.706.94.667 1.315l.883-1.413 6-.063c-2.726 7.34-8.367 13.987-6.92 15.023 2.522 1.816 17.012-20.42 21.954-15.58 1.538 1.52 1.426 3.485 1.03 4.564 3.495-3.654 10.878-7.17 13.272-4.68 2.89 3.003-5.943 11.894-3.997 13.123.795.513 2.762-.673 3.814-1.39 4.178-8.933 8.596-18.87 12.154-28.102-.18-.075-7.772-3.418-14.985-6.218-8.395-3.268-17.06-12.394-14.923-23.047 2.5-12.567 18.544-12.834 25.736-13.39 2.052-.15 3.37.524 0 .866-3.8.386-5.823.568-9.532 2.277 8.96-.278 25.127 2.865 38.334 9.468 9.665 4.83 20.2 12.662 26.24 18.84 3.07 3.13 4.17 3.663 1.864-.718-.454-.833-.95-1.624-2.004-2.98-1.475-1.904-3.59-5.023.855-.857 4.552 4.264 10.343 15.153 7.506 28.51 0 0-.057.747-.142 1.1-.065.096-2.752 1.186-3.736 1.89 1.38-2.883 2.507-6.538 2.49-10.588-.428-6.625-1.566-8.72-8.057-14.992-5.658-5.45-17.183-13.816-25.8-18.155-19.865-9.96-49.78-15.184-51.772.716-1.197 9.597 7.97 16.65 13.09 18.626 3.948 1.528 11.374 3.996 15.65 6.26l-.675 2.053c.93-2.405 1.812-4.777 2.602-7.053.273-.78.508-1.53.76-2.298-.242.694-.498 1.42-.76 2.158-7.197-4.798-11.428-9.96-9.478-13.688 3.634-6.924 14.982-5.75 26.826.054 11.85 5.812 19.85 14.64 16.504 20.997-1.983 3.784-8.773 3.698-17.054.93-.01.023-.022.044-.037.055-11.866 16.51-29.893 46.364-36.66 58.183-3.014 5.267-8.357 15.162-13.57 25.132 9.54 3.132 19.58 4.798 29.832 4.702 28.637-.245 54.378-11.925 72.453-30.956l-3.953 2.715c-.294.203-.706.118-.903-.192-.077-.085-.108-.213-.108-.342 0-.213.096-.406.272-.534 0 0 2.65-1.794 4.19-2.874-.84-.556-1.737-1.218-2.657-1.998l-5.93 3.943c-.3.202-.695.117-.898-.16-.183-.31-.108-.706.175-.91 0 0 4.75-3.162 5.653-3.74-.486-.427-.988-.865-1.49-1.356-.16.02-.337 0-.48-.096-.172-.127-.235-.33-.225-.533-.048.096-.106.202-.197.278l-6.273 3.696c-.304.173-.695.076-.876-.223-.17-.3-.08-.694.225-.875l6.272-3.708h.032c-.62-.61-1.234-1.23-1.848-1.88l-7.278 3.312c-.32.128-.7 0-.838-.332-.16-.31 0-.706.3-.834 0 0 5.4-2.436 6.913-3.088-.834-.887-1.673-1.807-2.48-2.735-.073.085-.17.16-.27.193l-6.823 1.987c-.353.096-.71-.107-.797-.45-.032-.042-.037-.106-.037-.17 0-.268.176-.535.46-.61 0 0 6.155-1.795 6.614-1.934-.893-1.025-1.758-2.06-2.59-3.077l-8.368.3c-.352.01-.667-.28-.667-.63-.01-.364.262-.653.625-.653l7.4-.267c-1.34-1.677-2.57-3.312-3.612-4.734l-6.214 1.143c-.347.065-.684-.17-.747-.513 0-.043-.012-.085-.012-.117 0-.3.213-.577.523-.62 0 0 4.276-.78 5.66-1.036-.786-1.123-1.41-2.106-1.828-2.875-.182-.31-.058-.705.24-.866.322-.16.696-.055.877.266.4.717 1.01 1.657 1.75 2.757.637-.63 1.503-1.496 1.503-1.496.245-.257.65-.257.903 0 .245.245.245.673 0 .897l-1.646 1.646c.925 1.314 2.01 2.778 3.227 4.306l3.756-4.252c.224-.267.625-.29.903-.065.25.234.283.64.048.896l-3.91 4.435c.96 1.166 1.97 2.384 3.007 3.602 1.288-1.538 3.634-4.317 3.634-4.317.24-.256.63-.3.903-.085.272.245.31.64.065.92l-3.745 4.465c.855.972 1.72 1.913 2.607 2.875 1.105-1.38 3.574-4.457 3.574-4.457.21-.288.63-.33.903-.096.28.225.312.62.097.887 0 0-2.51 3.11-3.718 4.574.81.833 1.617 1.635 2.408 2.415l3.99-5.493c.215-.278.605-.34.888-.14.294.215.358.63.144.91l-4.082 5.62c.498.45.973.897 1.454 1.314 1.132-1.39 3.318-4.018 3.318-4.018.24-.288.625-.33.903-.096.272.225.315.62.09.887l-3.333 4.06c1.02.835 2.025 1.582 2.944 2.17.213-.438 1.885-3.772 1.885-3.772.143-.32.55-.46.86-.29.314.15.448.546.282.846l-1.475 2.96c8.228-9.253 14.71-20.14 18.91-32.237 0 0 7.88-6.978 10.87-11.68 0 0-.453 2.085-.885 3.795-11.287 46.61-53.297 81.24-103.375 81.24zM69.34 153.765c.223-.278.64-.288.902-.063l2.98 2.714c.264.246.29.64.055.887-.24.278-.64.288-.914.043l-2.976-2.682c-.262-.236-.283-.642-.048-.9zm4.824-5.47c.187-.3.593-.385.886-.192l1.42.908c.284.183.386.59.183.887-.182.29-.582.396-.882.193l-1.42-.92c-.288-.193-.373-.577-.186-.876zm-2.667-2.715c.272.224.32.64.09.897-.23.267-.63.32-.902.107l-1.56-1.293c-.278-.223-.32-.63-.096-.907.23-.267.635-.31.903-.074l1.564 1.27zm40.862-75.365c6.47-4.478 22.118-8.324 36.127-.78 10.295 5.567 17.76 14.714 19.9 28.092l-7.805 4.487c-7.41-8.388-14.09-13.378-19.217-15.932-5.113-2.554-17.065-7.683-28.45-8.25l-.556-7.617zm33.755 65.79c-.61.225-2.116 1.037-3.265 1.753-2.35-2.66-10.6-8.388-15.014-9.905-.074-.022 1.112-1.57 1.112-1.57 4.546 1.848 15.392 8.12 17.086 9.69l.08.033zm9.536 15.676c-.047-.35.21-.65.573-.694l2.832-.288c.363-.033.667.213.705.566.048.352-.213.673-.566.706l-2.837.278c-.375.043-.68-.215-.706-.567zm24.263 6.68v-1.015h4.52v1.015h-1.688v4.584h-1.138v-4.584h-1.694zm11.012.128l-1.63 4.456H188.2l-1.576-4.456h-.02v4.456h-1.14v-5.6h1.972l1.3 3.665h.036l1.357-3.665h1.965v5.6h-1.143v-4.457h-.027zm8.505-11.017c-.256.9-.636 1.797-1.245 2.63-2.35 3.184-6.385 3.6-9.723 3.045-2.137-.363-4.537-1.774-5.525-3.4-.41-.65-.673-1.302-.87-1.932-8.437 5.076-18.92 6.476-21.485 1.496-.347-.685-.534-1.37-.608-2.053-9.388 6.742-21.73 8.87-24.37 3.11-.314-.706-.46-1.453-.496-2.16l-.246 1.016c-6.026 5.47-12.507 7.523-14.644 5.888-3.575-2.724-.326-6.272-2.127-7.8-.49-.416-1.324-.5-2.68-.416l2.484-3.868 2.415-3.847c.025-.022.073-.033.11-.064l2-3.09c3.755-1.922 9.905-2.96 10.936.546 1.438 4.937-5.423 9.18-10.183 9.97 3.622.64.037 4.69 3.734 5.17 1.635.225 6.24-3.076 8.794-6.453 3.404-7.96 20.128-14.96 22.456-9 2.014 5.162-7.56 9.78-15.44 9.842-.32 0-.208-.074-.246 0-.678 2 .294 4.2 3.986 4.157 3.585-.033 8.837-1.497 13.918-5.835 2.932-7.886 20.105-14.51 21.68-8.965 1.39 4.872-7.154 9.04-14.356 9.585-.34.02-.224-.096-.25 0-.696 2.01.287 4.2 3.973 4.167 3.042-.032 6.306-1.27 10.398-3.536.283-3.91 4.724-6.07 6.802-4.157 1.486-1.06 3.062-2.34 4.264-3.773.07-.695.187-1.38.282-2.03.71-4.318 6.31-8.816 8.298-7.427 1.35.984.614 4.22-3.067 7.352-.673.684-1.128.79-.14 2.82.498.984 1.107 2.608 1.384 4.457 6.52-4.788 10.083-12.737 10.724-31.053l-.054-.096c0-26.595-10.535-50.723-27.622-68.524-.154.277-.427.416-.726.31l-6.822-2.36c-.737.917-1.475 1.836-2.16 2.68 1.604.77 5.2 2.48 5.2 2.48.235.117.363.33.363.577 0 .106-.01.182-.074.278-.14.322-.53.46-.85.31 0 0-3.847-1.837-5.434-2.617-.513.63-.973 1.218-1.32 1.677 11.95 8.645 20.302 22.12 21.836 37.272-.01.15-18.005 10.375-22.953 13.175-.2-1.336-.472-2.672-.807-3.964l19.762-12.77c.172-1.42-.988-6.325-1.405-7.127L166.95 87.27c-1.363-3.077-3.115-5.96-5.19-8.58l19.764-17.343c-2.848-4.476-5.765-7.565-9.424-10.76L155.18 72.14c-3.565-2.8-7.61-5.002-11.996-6.433l9.552-24.812c-4.632-1.507-9.89-2.072-15.162-1.58L133.492 63.9c-.806-.05-1.613-.116-2.425-.116-2.677 0-5.29.267-7.828.78l.475-22.322c-2.17.79-4.985 2.147-7.048 3.76l.39 20.41c-1.628.62-3.226 1.325-4.76 2.16-.34-5.696-1.39-22.365-1.266-22.452 8.4-5.95 18.674-9.456 29.76-9.456 10.68 0 20.672 3.45 29.023 9.18.358-.44.812-1.027 1.298-1.67l-5.037-5.03c-.246-.258-.246-.653 0-.91.245-.234.657-.234.914 0 0 0 3.803 3.826 4.91 4.937.69-.843 1.41-1.762 2.174-2.68l-3.813-5.418c-.193-.3-.122-.695.176-.898.283-.19.678-.128.882.15 0 0 2.72 3.9 3.585 5.16.62-.726 1.197-1.398 1.742-2.02-17.417-15.322-40.27-24.64-65.305-24.64-27.408 0-52.21 11.167-70.134 29.172.315.246.625.523.94.77l7.25-2.683c.332-.118.706.054.823.374.02.074.037.15.037.213 0 .267-.154.513-.417.62 0 0-4.62 1.71-6.572 2.436 1.064.93 2.09 1.88 3.1 2.853l6.72-2.5c.333-.14.71.032.83.362.116.33-.05.706-.38.823l-6.14 2.298c.498.502.984 1.004 1.47 1.518l6.818-2.18c.33-.096.7.085.802.417.112.332-.086.695-.41.802l-6.226 1.997c.72.78 1.453 1.57 2.16 2.372l8.606-1.348c.347-.063.678.182.732.535.054.352-.187.673-.534.736l-7.843 1.23c.72.844 1.43 1.678 2.125 2.543l8.5-1.197c.353-.066.674.17.732.533.044.352-.197.663-.545.717l-7.816 1.132c1.245 1.635 2.44 3.29 3.564 5l9.8-.855c.35-.033.666.235.694.588.032.352-.22.662-.583.695l-9.097.79c1.116 1.742 2.185 3.505 3.18 5.31l9.547-.277c.352-.01.647.278.65.63v.01c0 .342-.27.63-.613.653l-8.928.245c.87 1.658 1.697 3.346 2.468 5.055l9.04.545c.347 0 .614.31.598.652-.015.374-.326.63-.678.6 0 0-6.048-.353-8.366-.492.914 2.094 1.784 4.23 2.543 6.4l9.61.79c.353.033.616.353.583.696-.026.352-.332.62-.69.588 0 0-6.645-.556-9.076-.77.722 2.16 1.352 4.35 1.908 6.54l8.954 2.36c.332.077.545.44.46.78-.09.343-.443.546-.78.45l-8.26-2.17c.556 2.352 1.02 4.714 1.4 7.096.08.14.097.29.06.44 0 0 .004.03.004.053l8.297 2.895c.337.107.513.49.402.812-.124.332-.48.513-.818.406l-7.683-2.703c.417 2.992.69 6.048.812 9.093l8.895 3.783c.326.117.486.512.342.844-.14.32-.52.47-.84.332 0 0-6.224-2.64-8.36-3.548.02.813.07 1.592.07 2.383 0 2.127-.077 4.17-.205 6.178l8.27 3.323c.322.15.487.535.353.845-.128.32-.502.49-.834.352 0 0-5.956-2.393-7.917-3.184-.213 2.715-.556 5.408-1.042 8.143l8.458 3.536c.326.14.476.502.337.845-.144.31-.513.47-.84.34 0 0-6.464-2.713-8.167-3.44-.326 1.646-.695 3.313-1.123 5.012l4.125 3.46c.262.225.3.63.074.898-.224.267-.625.31-.897.085l-4.413-3.708c-.027-.01-.027-.074-.054-.085-.054-.063-.085-.14-.107-.213-.02-.085-.043-.16-.032-.235 0-.032-.026-.063-.02-.106.42-1.657.764-3.27 1.08-4.883-2.165.886-7.188 2.927-7.188 2.927-.32.13-.7-.02-.833-.352-.136-.332.025-.705.357-.834l7.944-3.238c.482-2.64.81-5.267 1.038-7.907-1.79 1.163-6.257 4.156-6.257 4.156-.293.202-.688.14-.886-.172-.197-.31-.117-.694.176-.886l7.112-4.734c.134-2.01.208-4.018.208-6.123 0-.715-.037-1.463-.06-2.2-1.75 1.4-6.65 5.28-6.65 5.28-.28.213-.68.182-.904-.118-.22-.256-.17-.673.107-.886l7.404-5.877c-.133-3.11-.422-6.21-.844-9.256l-5.712 5.696c-.245.256-.65.256-.902 0-.257-.246-.257-.652 0-.91l6.39-6.378c-.385-2.404-.856-4.797-1.438-7.16L69.273 94.2c-.252.246-.658.246-.908 0-.256-.256-.256-.652 0-.908l2.452-2.458c-.545-2.116-1.154-4.23-1.848-6.283-1.402 1.377-5.96 5.93-5.96 5.93-.25.277-.656.277-.907 0-.25-.225-.25-.63 0-.887l6.412-6.41c-.76-2.15-1.62-4.254-2.544-6.317l-5.667 5.536c-.257.235-.658.235-.903-.01-.246-.247-.246-.674.01-.91l6.006-5.865c-.77-1.688-1.582-3.334-2.442-4.96-1.34 1.41-5.358 5.61-5.358 5.61-.246.258-.647.258-.904.023-.262-.246-.267-.663-.026-.908l5.67-5.94c-.99-1.797-2.058-3.537-3.164-5.28l-4.98 5.418c-.24.246-.65.267-.903.022-.263-.235-.284-.64-.038-.898l5.12-5.545c.02-.033.068-.023.09-.044-.893-1.357-1.812-2.66-2.774-3.964l-4.14 6.218c-.197.29-.588.374-.88.182-.295-.202-.386-.6-.177-.908l4.38-6.572c-.16-.213-.314-.427-.48-.64-.132-.075-.223-.192-.27-.353-.546-.696-1.113-1.39-1.684-2.064L48.91 61.75c-.167.32-.55.448-.872.277-.31-.172-.428-.567-.267-.856l3.8-7.2c-.05-.086-.118-.13-.166-.203-.213-.065-.39-.213-.422-.46-.01-.01 0-.022 0-.043-.422-.49-.855-.973-1.298-1.442l-2.752 6.742c-.14.34-.502.48-.828.363-.326-.13-.475-.513-.358-.845l2.976-7.298c-.855-.897-1.72-1.805-2.624-2.67l-2.87 6.763c-.138.32-.5.48-.827.352-.324-.172-.48-.514-.346-.846l3.05-7.223c-.928-.886-1.858-1.752-2.825-2.596-.572 1.73-2.288 6.998-2.288 6.998-.117.32-.48.513-.812.406-.337-.106-.528-.47-.41-.812l2.45-7.49c-.298-.28-.607-.513-.902-.77-10.473 10.8-18.52 23.953-23.226 38.613L6.775 92.45c8.863-49.794 52.37-87.59 104.707-87.59 58.74 0 106.37 47.627 106.37 106.355l.058.182c.043 2.745-.37 10.653-1.855 13.72-5.154 10.622-13.286 19.523-16.625 22.354z" fill="#FFF"/><path d="M120.42 139.115c-.036.032-.084.043-.11.063l-2.416 3.847 2.527-3.91z" fill="#E4002B"/><path d="M116.81 108.543c.095-.267.534-.95.903-1.507 1.46-2.148 6.326-2.597 10.866-.46 4.567 2.17 7.826 7.213 6.528 10.536v.01c-.016 0 0 .023-.016.033-.23.6-.705 1.41-.886 1.646-.72.963-1.49 2.01-2.287 3.11 8.28 2.768 15.07 2.854 17.053-.93 3.345-6.356-4.654-15.183-16.504-20.996-11.846-5.803-23.194-6.978-26.827-.054-1.95 3.73 2.28 8.89 9.478 13.688.264-.737.52-1.464.76-2.16.208-.694.432-1.334.63-1.954.112-.33.22-.64.3-.96zM127.836 127.853c4.414 1.517 12.663 7.245 15.014 9.905 1.15-.716 2.656-1.527 3.265-1.752l-.08-.032c-1.695-1.57-12.54-7.843-17.087-9.692 0 0-1.186 1.55-1.112 1.57z" fill="#132448"/><path d="M217.91 111.397l-.058-.182c0-58.728-47.63-106.354-106.37-106.354-52.337 0-95.843 37.796-104.706 87.59l10.317-10.94C21.8 66.85 29.846 53.693 40.317 42.89c.294.258.604.492.903.77l-2.452 7.49c-.117.344.074.707.41.813.333.107.696-.085.813-.406 0 0 1.717-5.267 2.288-6.998.967.843 1.897 1.708 2.826 2.596l-3.05 7.223c-.134.33.02.673.346.844.326.128.69-.033.828-.352l2.87-6.764c.903.866 1.768 1.774 2.623 2.67l-2.975 7.3c-.117.33.032.715.358.844.326.117.69-.022.828-.363l2.753-6.743c.443.47.875.95 1.298 1.442 0 .02-.01.03 0 .042.034.246.21.395.423.46.048.074.117.117.165.202l-3.798 7.202c-.16.29-.043.684.267.856.32.17.705.043.87-.278l3.548-6.733c.57.675 1.138 1.37 1.683 2.064.048.16.14.278.272.352.165.214.32.428.48.64l-4.38 6.573c-.21.31-.118.705.176.907.293.193.684.107.88-.182l4.14-6.218c.963 1.303 1.882 2.607 2.775 3.964-.02.022-.07.012-.09.044L53.27 68.7c-.245.256-.223.662.038.897.252.245.663.224.903-.022l4.98-5.417c1.107 1.742 2.175 3.483 3.164 5.278l-5.67 5.94c-.24.246-.234.663.027.91.258.234.66.234.905-.023 0 0 4.018-4.2 5.358-5.61.86 1.625 1.672 3.27 2.442 4.96l-6.006 5.865c-.257.235-.257.662-.01.908.244.246.645.246.902.01l5.668-5.535c.925 2.064 1.785 4.17 2.544 6.317l-6.412 6.41c-.25.257-.25.663 0 .888.252.277.658.277.908 0 0 0 4.557-4.553 5.958-5.93.694 2.05 1.303 4.166 1.848 6.282l-2.452 2.458c-.256.256-.256.652 0 .908.25.246.657.246.908 0l1.907-1.935c.58 2.362 1.052 4.755 1.437 7.16l-6.39 6.378c-.257.257-.257.663 0 .91.25.255.657.255.903 0l5.712-5.697c.42 3.045.71 6.144.844 9.254l-7.404 5.877c-.278.214-.326.63-.107.887.224.3.625.332.903.118 0 0 4.9-3.88 6.652-5.28.022.737.06 1.486.06 2.2 0 2.106-.075 4.115-.21 6.124l-7.11 4.733c-.294.193-.374.577-.177.886.198.31.593.373.887.17 0 0 4.467-2.992 6.257-4.156-.23 2.64-.556 5.268-1.037 7.907l-7.944 3.24c-.332.128-.492.5-.358.833.133.33.512.48.833.352 0 0 5.023-2.04 7.188-2.927-.315 1.613-.658 3.227-1.08 4.883-.005.044.022.075.022.107-.01.076.01.15.032.235.022.074.054.15.107.213.025.01.025.076.053.085l4.413 3.708c.272.224.673.182.897-.085.224-.267.187-.673-.074-.897l-4.126-3.462c.428-1.7.797-3.367 1.123-5.01 1.704.726 8.168 3.44 8.168 3.44.326.127.695-.033.84-.342.138-.342-.012-.706-.338-.845L73.7 129.72c.486-2.734.828-5.427 1.042-8.142 1.96.79 7.918 3.184 7.918 3.184.332.14.706-.032.834-.352.133-.31-.032-.695-.352-.844l-8.27-3.323c.127-2.01.203-4.05.203-6.177 0-.79-.048-1.57-.07-2.383 2.137.908 8.362 3.548 8.362 3.548.32.14.7-.01.84-.33.142-.333-.017-.728-.343-.846l-8.896-3.783c-.122-3.044-.395-6.1-.812-9.092l7.682 2.703c.337.108.695-.073.818-.405.112-.32-.065-.705-.402-.812l-8.297-2.895c0-.022-.005-.043-.005-.043.038-.16.022-.31-.058-.45-.38-2.382-.845-4.743-1.4-7.095l8.26 2.17c.336.095.688-.107.78-.45.084-.34-.13-.705-.46-.78l-8.955-2.36c-.557-2.192-1.187-4.382-1.91-6.54 2.432.213 9.078.77 9.078.77.358.03.663-.236.69-.59.032-.34-.23-.662-.583-.694l-9.61-.79c-.76-2.17-1.63-4.307-2.544-6.4 2.32.138 8.367.49 8.367.49.352.032.663-.224.678-.6.016-.34-.25-.65-.6-.65l-9.038-.546c-.77-1.71-1.598-3.397-2.47-5.054l8.93-.245c.34-.02.613-.31.613-.65v-.012c-.004-.352-.3-.64-.65-.63l-9.55.278c-.993-1.807-2.062-3.57-3.178-5.31l9.098-.79c.363-.034.615-.343.583-.696-.027-.352-.342-.62-.695-.588l-9.8.855c-1.122-1.71-2.318-3.366-3.563-5l7.816-1.132c.35-.054.59-.364.546-.717-.058-.363-.38-.6-.73-.534l-8.502 1.197c-.695-.864-1.405-1.698-2.126-2.543l7.843-1.23c.348-.062.59-.383.535-.735-.054-.353-.385-.6-.732-.535l-8.607 1.347c-.706-.802-1.438-1.592-2.16-2.372l6.226-1.998c.325-.107.523-.47.41-.802-.1-.332-.47-.513-.8-.417l-6.818 2.18c-.487-.512-.973-1.014-1.47-1.517l6.138-2.298c.332-.117.497-.49.38-.823-.118-.33-.497-.502-.828-.363l-6.722 2.5c-1.01-.972-2.035-1.922-3.1-2.853 1.952-.726 6.573-2.436 6.573-2.436.263-.106.417-.352.417-.62 0-.064-.016-.138-.037-.212-.117-.32-.49-.492-.823-.374l-7.25 2.682c-.315-.246-.625-.523-.94-.77 17.924-18.004 42.726-29.17 70.134-29.17 25.036 0 47.888 9.317 65.305 24.64-.544.62-1.12 1.293-1.74 2.02-.867-1.26-3.586-5.16-3.586-5.16-.204-.28-.6-.342-.882-.15-.3.203-.37.598-.176.897l3.814 5.417c-.764.92-1.485 1.838-2.174 2.682-1.106-1.11-4.91-4.937-4.91-4.937-.257-.235-.67-.235-.914 0-.246.256-.246.65 0 .908l5.038 5.032c-.486.64-.94 1.23-1.298 1.668-8.35-5.728-18.342-9.18-29.023-9.18-11.087 0-21.36 3.506-29.76 9.457-.123.086.925 16.756 1.266 22.45 1.534-.833 3.132-1.537 4.76-2.158l-.39-20.41c2.063-1.613 4.878-2.97 7.048-3.76l-.476 22.322c2.54-.514 5.15-.78 7.828-.78.812 0 1.618.064 2.425.116l4.083-24.587c5.273-.492 10.53.073 15.162 1.58l-9.552 24.812c4.387 1.43 8.43 3.633 11.995 6.433l16.92-21.553c3.66 3.195 6.577 6.284 9.425 10.76L161.76 78.685c2.074 2.618 3.825 5.503 5.19 8.58l20.35-14.104c.416.803 1.576 5.707 1.404 7.13l-19.762 12.768c.336 1.292.608 2.628.806 3.964 4.948-2.8 22.942-13.025 22.953-13.175-1.533-15.152-9.884-28.626-21.835-37.272.347-.46.806-1.047 1.32-1.677 1.587.78 5.434 2.618 5.434 2.618.32.15.71.01.848-.31.063-.096.074-.172.074-.278 0-.246-.128-.46-.363-.578 0 0-3.597-1.71-5.2-2.478.684-.845 1.42-1.764 2.16-2.682l6.82 2.36c.3.107.573-.032.727-.31 17.087 17.803 27.622 41.93 27.622 68.526l.053.096c-.64 18.316-4.205 26.265-10.723 31.052-.277-1.848-.886-3.473-1.383-4.456-.99-2.03-.534-2.137.14-2.82 3.68-3.132 4.417-6.37 3.066-7.353-1.988-1.39-7.587 3.11-8.298 7.426-.095.653-.213 1.337-.282 2.032-1.203 1.43-2.778 2.714-4.264 3.772-2.08-1.913-6.52.246-6.803 4.157-4.092 2.266-7.356 3.506-10.397 3.537-3.686.033-4.67-2.158-3.974-4.167.026-.096-.09.02.25 0 7.203-.545 15.747-4.713 14.357-9.585-1.576-5.546-18.748 1.08-21.68 8.965-5.08 4.338-10.334 5.803-13.918 5.834-3.692.043-4.665-2.158-3.986-4.157.037-.074-.075 0 .245 0 7.88-.063 17.455-4.68 15.44-9.84-2.328-5.963-19.052 1.036-22.455 8.997-2.554 3.377-7.16 6.678-8.794 6.454-3.697-.48-.113-4.53-3.734-5.17 4.76-.792 11.62-5.034 10.183-9.97-1.03-3.506-7.18-2.468-10.937-.546l-1.998 3.09c2.47-.974 6.513-1.53 7.202 0 1.18 2.596-5.204 5.94-10.718 5.513l.99-1.603-2.486 3.868c1.357-.085 2.19 0 2.682.417 1.8 1.528-1.448 5.076 2.127 7.8 2.137 1.635 8.618-.417 14.644-5.888l.247-1.016c.037.706.182 1.453.497 2.16 2.64 5.76 14.98 3.632 24.37-3.11.073.683.26 1.367.607 2.05 2.566 4.98 13.048 3.58 21.485-1.495.198.63.46 1.28.87 1.932.99 1.625 3.39 3.035 5.526 3.4 3.34.555 7.374.138 9.724-3.046.61-.834.99-1.73 1.245-2.63 3.338-2.83 11.47-11.73 16.625-22.352 1.487-3.064 1.9-10.972 1.856-13.717zm-41.886-71.262c.555-.652 1.1-1.272 1.58-1.838 1.358 1.23 2.677 2.48 3.954 3.762-1.384-.483-4.14-1.423-5.534-1.925zm.79 96.373c1.39 1.944-3.478 6.272-8.896 6.486.374-3.376 7.15-8.912 8.896-6.486zm-25.042 1.293c.79 1.817-3.985 5.792-8.746 6.423 1.032-4.37 7.624-8.966 8.746-6.422zm36.68 12.802c-3.24-.14-3.72-3.195-3.083-3.922.207.202 3.936.054 3.973-3.57 1.165-.81 2.405-1.762 3.527-2.852.054.31.07.63.14.94.714 2.62.81 9.692-4.56 9.404z" fill="#E4002B"/><path d="M215.885 132.842c-2.992 4.702-10.872 11.68-10.872 11.68-4.2 12.095-10.68 22.984-18.91 32.237l1.476-2.96c.164-.3.03-.696-.284-.846-.31-.17-.716-.032-.86.29 0 0-1.672 3.333-1.885 3.77-.918-.587-1.923-1.334-2.943-2.168l3.334-4.06c.225-.268.183-.663-.09-.888-.278-.234-.663-.192-.903.096 0 0-2.185 2.63-3.318 4.018-.482-.417-.957-.866-1.455-1.314l4.082-5.62c.213-.28.15-.695-.144-.91-.283-.2-.673-.138-.887.14l-3.99 5.493c-.792-.78-1.6-1.58-2.41-2.414 1.207-1.464 3.718-4.574 3.718-4.574.214-.267.182-.662-.096-.887-.273-.234-.694-.19-.903.096l-3.574 4.458c-.886-.962-1.752-1.903-2.606-2.875l3.745-4.466c.244-.278.207-.674-.066-.92-.273-.213-.662-.17-.903.086 0 0-2.345 2.778-3.632 4.317-1.037-1.218-2.047-2.436-3.008-3.6l3.91-4.436c.236-.256.203-.662-.047-.897-.278-.224-.678-.202-.903.065l-3.756 4.252c-1.218-1.527-2.302-2.992-3.227-4.306l1.646-1.646c.245-.224.245-.652 0-.897-.252-.257-.658-.257-.903 0 0 0-.867.866-1.502 1.496-.742-1.1-1.35-2.04-1.752-2.756-.182-.32-.556-.427-.876-.267-.3.16-.422.556-.24.866.416.77 1.042 1.753 1.826 2.874-1.383.257-5.658 1.036-5.658 1.036-.31.044-.523.32-.523.62 0 .032.01.074.01.117.064.342.402.578.748.513l6.214-1.143c1.042 1.42 2.27 3.056 3.612 4.734l-7.4.267c-.364 0-.637.29-.626.653 0 .352.315.64.667.63l8.368-.3c.833 1.016 1.698 2.053 2.59 3.078-.46.14-6.613 1.936-6.613 1.936-.283.074-.46.34-.46.61 0 .062.005.127.037.17.085.34.443.545.797.45l6.82-1.988c.103-.033.2-.107.273-.193.806.93 1.646 1.848 2.48 2.735-1.513.652-6.915 3.088-6.915 3.088-.3.128-.46.524-.3.834.14.332.52.46.84.332l7.277-3.313c.614.653 1.23 1.272 1.848 1.882h-.032l-6.27 3.708c-.306.182-.397.577-.226.875.182.3.572.396.876.224l6.273-3.697c.09-.076.15-.182.197-.278-.01.202.054.406.224.534.144.095.32.116.48.095.503.49 1.005.93 1.49 1.357-.902.577-5.652 3.74-5.652 3.74-.283.204-.358.598-.176.908.204.278.6.363.897.16l5.93-3.942c.92.78 1.817 1.442 2.657 1.998-1.538 1.08-4.19 2.874-4.19 2.874-.175.128-.27.32-.27.534 0 .13.03.257.106.342.197.31.608.395.903.193l3.952-2.716c-18.075 19.03-43.816 30.71-72.453 30.956-10.254.096-20.293-1.57-29.834-4.702 5.214-9.97 10.557-19.864 13.57-25.132 6.77-11.818 24.796-41.674 36.662-58.183.015-.01.026-.032.037-.054.796-1.102 1.566-2.15 2.287-3.11.182-.236.657-1.048.886-1.647.016-.01 0-.032.016-.032 1.266-3.31-1.983-8.355-6.535-10.513-4.547-2.137-9.414-1.688-10.873.48-.363.534-.808 1.24-.893 1.518-.08.29-.202.6-.3.897-.197.62-.42 1.26-.63 1.955-.25.77-.486 1.518-.758 2.298-.79 2.276-1.672 4.648-2.602 7.052-.037.096-.085.224-.133.342-3.557 9.23-7.976 19.168-12.153 28.1-1.053.718-3.02 1.904-3.814 1.39-1.945-1.228 6.887-10.118 3.996-13.12-2.395-2.49-9.78 1.024-13.272 4.68.395-1.08.508-3.046-1.03-4.564-4.943-4.84-19.433 17.396-21.955 15.58-1.448-1.037 4.194-7.683 6.92-15.024l-6 .063-.882 1.412c.04-.374-.153-.845-.666-1.315-6.63-6.1-23.076 11.498-17.022 16.766 2.822 2.436 9.537-.513 12.294-4.157-1.865 3.954-.47 5.535.054 5.92 6.16 4.488 19.27-16.69 21.51-14.755 1.57 1.39-6.53 13.272-6.16 13.548l6.08-.063c2.59-4.585 4.482-8.228 4.482-8.228 3.414-3.93 7.587-7.063 8.612-5.845 1.683 1.988-7.228 9.18-4.306 13.71 1.394 2.17 6.87-.49 9.526-2.522-5.348 11.284-10.013 20.42-11.487 23.402-2.73 5.567-8.18 15.846-13.726 26.05-9.323-4.027-18.004-9.477-25.725-16.112.005-.107.005-.246-.063-.374l-2.068-3.3c.026-.01.037-.033.07-.054.983-.887 1.89-1.892 2.842-2.832 1.218 1.39 3.26 3.675 3.26 3.675.224.277.636.288.897.064.267-.224.288-.652.06-.908l-3.314-3.74c.79-.813 1.576-1.625 2.33-2.458 1.39 1.453 3.734 3.93 3.734 3.93.24.258.647.268.908.023.257-.234.267-.64.016-.896l-3.82-4.05c1.138-1.304 2.287-2.63 3.35-4.008 1.292 1.838 3.472 4.883 3.472 4.883.198.288.61.362.897.16.283-.224.348-.61.144-.898l-3.728-5.236c1.058-1.41 2.083-2.81 3.056-4.296 1.18 1.497 4.205 5.322 4.205 5.322.22.288.62.33.897.106.272-.213.326-.608.102-.886l-4.472-5.664c.956-1.507 1.848-3.024 2.725-4.574l4.804 4.424c.25.235.666.214.902-.043.24-.267.213-.673-.043-.92l-4.997-4.604c.033-.042.076-.094.096-.148.17-.342.042-.706-.262-.876-.31-.16-.695-.043-.87.246-.07.16-.172.288-.252.427-.005.02-.016.02-.016.02-.02.044-.016.054-.037.086-.08.15-.165.278-.24.417l-6.022-.556c-.362-.043-.672.213-.704.577-.027.352.23.663.588.695l5.412.5c-.695 1.208-1.39 2.427-2.137 3.602l-6.99-.823c-.352-.044-.667.212-.71.555-.005.02-.005.043-.005.085 0 .32.24.588.57.63 0 0 4.64.556 6.36.758-.877 1.293-1.806 2.565-2.747 3.847l-.037-.074c-.106-.138-.27-.256-.453-.266l-6.833-.706c-.352-.032-.663.204-.695.567-.006.02-.006.053-.006.063 0 .332.24.6.572.64 0 0 6.01.62 6.533.685.02.01.09.128.132.182-1.09 1.432-2.27 2.81-3.45 4.157l-.124-.128c-.08-.085-.176-.14-.278-.17l-6.555-1.99c-.332-.095-.69.076-.79.43-.017.053-.027.116-.027.17 0 .278.176.524.45.62l6.39 1.955c.01 0 .068.062.1.105-.747.823-1.51 1.635-2.29 2.437l-.114-.118c-.085-.085-.187-.16-.304-.202l-5.83-1.7c-.336-.106-.7.097-.8.44-.01.053-.016.117-.016.17 0 .28.17.535.46.61 0 0 5.316 1.56 5.647 1.667.016 0 .044.03.055.042-.92.908-1.807 1.86-2.763 2.756l-.085-.15c-.08-.128-.193-.213-.31-.256l-3.703-1.43c-.032-.012-.07 0-.09 0-3.64-3.74-7-7.78-10.018-12.075L68.89 95.144l-8.874.267-15.67 29.14c-5.04 4.735-13.25 9.073-17.936 5.835-9.302-6.422 27.136-41.225 13.726-52.55-10.713-9.03-22.344 4.454-26.025 10.865-3 5.204-8.65 13.197-8.847 23.05.102 43.682 26.538 81.167 64.268 97.45-3.573 6.456-6.93 12.397-9.327 16.468-1.688 2.864-2.8 4.157-4.81 4.018-.394-.043-1.233.074-1.495.17-1.004.407-1.405 2.17-1.362 2.908.074 1.55 1.342 4.36 6.368 6.657 5.028 2.298 7.833 2.095 9.13 1.24.626-.406 1.817-1.774 1.54-2.81-.064-.267-.47-1.004-.722-1.303-1.314-1.55-1.004-2.917.32-5.995 1.882-4.328 5.14-10.963 8.8-18.155 10.58 3.527 21.88 5.482 33.655 5.482 50.078 0 92.088-34.632 103.372-81.243.43-1.71.885-3.795.885-3.795zM51.04 151.382c-2.906-3.228 8.405-14.372 11.07-11.038 2.004 3.238-7.827 14.64-11.07 11.038zm-33.056-62.19c2.687-4.925 8.388-11.433 13.453-10.46 7.838 1.537 2.8 11.775-3.863 23.39-6.514 11.348-14.4 23.274-8.052 30.133 5.145 5.546 15.66 4.274 22.082-2.105l-15.788 29.664c-8.116-14.083-12.855-30.326-12.855-47.7-.773-11.04 2.417-18.134 5.024-22.92zm26.65 94.194c-.044-.033-.08-.064-.113-.096.017-.01.027-.033.027-.033.028.043.06.096.086.13zm-.866-1.368c.016 0 .06.054.076.085-.113.096-.21.17-.31.256-.268-.257-.54-.492-.802-.748.497.19.924.352 1.036.406zm75.19-73.4l.816-.18c-6.394 19.296-19.19 46.16-21.8 49.75 13.685-26.03 20.31-47.058 20.983-49.57zm-15.094 47.135c1.78-3.484 23.14-39.323 26.538-44.44.16-.824-.834-1.402-.834-1.402-3.38 5.825-40.738 69.468-41.993 71.883 1.618-2.982 12.395-24.758 16.397-32.463 4.2-8.068 17.813-41.407 18.133-42.882 3.777-.128 7.913 1.58 10.147 4.637.037-.095-.86 1.38-.86 1.38-.85 1.303-14.982 24.138-16.253 26.414-1.294 2.318-33.98 58-33.98 58 8.075-15.696 20.935-37.665 22.704-41.127zm-27.083 47.09c.642-1.122.082-.01.006.225-.037.14-1.65 3.077-3.558 6.583 1.716-3.216 3.056-5.813 3.553-6.806zm-19.088 27.41c1.18-.31 3.42-3.164 3.542-3.41.118-.246.444-.492.29.043-.247 1.23-1.107 2.436-1.817 3.227-.422.48-.684.8-1.032.866-.833.212-1.142-.108-1.223-.364-.007-.397.074-.32.24-.364zm5.235 2.04c-.326 1.122-.71 2.756-1.025 4.21-.198.897-.674 1.08-1.17.897-.305-.118-.62-.342-.887-.556-.144-.128-.358-.17-.6-.278-.073-.032-.138.076-.218.032-.118-.085-.252-.33-.385-.406-.198-.085-.49-.267-.71-.363-.182-.118-.342-.33-.49-.407-.125-.054-.253.065-.37 0-.326-.17-.56-.417-.823-.556-.162-.085-.46-.277-.546-.352-.215-.193-.187-.32-.107-.438.112-.17.48-.257.652-.29.18-.03.8.204 1.506.535.57.278 1.186.663 1.666.802.395.106.882 0 1.1-.213.16-.138.07-.363.092-.588.01-.277.25-.577.107-.77-.192-.277-.38-.35-.555-.437-.224-.14-.46-.29-.69-.374-.416-.16-.576-.822-.084-.896 0 0 .444-.17.717-.44.155-.138.096-.35.278-.533.085-.095.31-.192.38-.298.048-.065-.07-.15.01-.224.08-.086.038-.193.16-.33.113-.12.396-.258.503-.407.107-.138.224-.266.332-.405 2.24-2.907 5.957-9.404 9.168-15.28-1.475 2.755-2.806 5.288-3.388 6.57-1.25 2.704-3.21 7.363-4.162 9.992-.054.14.065.288.01.406-.23.673-.4 1.165-.47 1.4zm9.36-14.895c-.03.063.022.16-.02.213-.225.342-.203.63-.322.995-.01.043-.128.054-.128.096.016.353-.39.578-.465.898-.15.556-.4 1.015-.608 1.582-.022.043-.133.043-.14.074-.032.213-.26.32-.33.49-.022.066.01.14-.017.173-.14.085-.192.234-.304.352-.043.02.005.17-.02.223-.06.15-.188.267-.22.427-.123.674-.337 1.304-.61 1.88-.075.162-.18.375-.117.568-.202 0 .048.278-.165.267 0 .15.044.34-.015.48-.17.417-.213.866-.315 1.325-.026.076-.133.15-.128.235.022.363-.374.64-.374.994 0 .3-.176.512-.304.812-.085.19-.24.34-.363.523-.186.278-.5.534-.65.834-.044.084.17.244.07.298-.07.022-.13.043-.167.096-.106.235.128.545-.154.652-.188.62-.835 1.154-1.038 1.752-.053.193.21.44.13.62-.21.47-.226.79-.38 1.26-.028.066-.092.12-.15.066-.075-.043-.086-.128-.103-.224-.01-.054-.177-.064-.155-.246.064-.62.45-.866.608-1.42.198-.78.32-1.475.465-2.2.037-.183.107-.375.133-.58.007-.062-.03-.105-.03-.16.02-.245.23-.416.175-.662.348-.427.257-1.025.62-1.496.053-.074.224-.224.282-.32.263-.492.187-1.005.502-1.52.037-.042.07-.01.095-.084.054-.117.348-.32.385-.438.02-.118-.118-.235-.048-.363.02-.03 0-.095.01-.15.092-.234.28-.405.353-.64.102-.31.193-.6.395-.834.054-.053.113-.106.124-.182.004-.085-.07-.17.176-.245-.016-.31.282-.503.358-.813.037-.14.208-.29.262-.44.074-.192.144-.34.193-.565.02-.065.07-.107.16-.076-.01-.085-.032-.19.005-.245.257-.48.658-.855.806-1.41.005-.032.118-.053.14-.095.037-.054-.005-.182.026-.235.3-.342.363-.758.614-1.165.038-.063-.004-.17.027-.234.075-.203.214-.384.3-.577.033-.074-.02-.182.016-.245.096-.16.198-.278.293-.428.192-.29.362-.662.55-1.058-.086.31.037.748-.14 1.036-.008.033-.275.044-.292.13zm1.406-2.715l-.112.193c0 .054 0 .096.005.14-.058-.055-.015.084-.08.03.022.077 0 .162-.048.194-.09.085-.102.15-.144.256-.005.022.033.054.016.065-.086.066-.07.183-.134.268-.09.118-.37.224-.45.374.183-.395.38-.78.59-1.047.153-.193.015-.054.11-.278.066-.14.455-1.218.525-1.38 1.775-4.166 32.394-58.373 49.85-86.69 4.06-6.316 8.712-13.827 9.13-14.5.25.202.72.962.677 1.592-.032.576-8.383 12.993-8.906 13.783-19.055 29-48.783 82.81-51.027 87zM5.252 111.942c0-.076.01-.128.01-.193v-.236l-.01.428z" fill="#E4002B"/><path d="M69.03 144.383c-.225.278-.183.684.095.908l1.56 1.294c.273.213.673.16.903-.107.23-.256.182-.673-.09-.897l-1.566-1.27c-.268-.237-.674-.194-.903.073zM75.77 150.09c.3.203.7.095.883-.194.204-.3.102-.705-.182-.886l-1.42-.908c-.293-.193-.7-.107-.886.19-.187.3-.102.685.187.877l1.42.92zM73.276 157.302c.235-.246.21-.64-.054-.887l-2.98-2.714c-.264-.223-.68-.213-.904.064-.235.257-.214.663.047.898l2.976 2.682c.275.246.676.236.916-.042zM159.194 151.97c.352-.033.614-.353.566-.706-.037-.352-.34-.6-.705-.566l-2.832.288c-.363.043-.62.343-.572.695.028.353.333.61.707.568l2.837-.278z" fill="#E4002B"/><path d="M141.365 86.083c5.13 2.554 11.808 7.543 19.217 15.932l7.806-4.487c-2.142-13.38-9.606-22.525-19.9-28.092-14.01-7.543-29.66-3.697-36.13.78l.557 7.62c11.385.563 23.337 5.693 28.45 8.247zm-19.875-9.917l-2.357-.897-1.982 1.463.086-2.49-1.907-1.4 2.37-.747.738-2.255 1.442 1.99 2.426.105-1.523 1.838.707 2.393zm14.26 2.96l-3.158-2.115-3.414 1.53.95-3.655-2.338-2.715 3.744-.31 1.838-3.088 1.475 3.43 3.542.95-2.875 2.223.235 3.75zm15.75 5.14l-2.276 3.783-1.66-4.147-4.29-.823 3.348-2.885-.45-4.19 3.832 2.203 3.847-1.753-.865 4.307 2.762 3.3-4.247.204zm12.438 13.795l-2.372-.96-2.212 1.474.155-2.67-2.138-1.55 2.57-.717.816-2.415 1.53 2.19 2.547.012-1.56 2.126.663 2.51zM192.094 162.944v-5.6h-1.966l-1.357 3.665h-.036l-1.3-3.665h-1.97v5.6h1.14v-4.457h.02l1.575 4.456h1.094l1.63-4.456h.027v4.456M182.744 162.944v-4.584h1.69v-1.015h-4.52v1.015h1.692v4.584M113.193 118.76c-4.275-2.266-11.7-4.735-15.65-6.262-5.118-1.977-14.286-9.03-13.09-18.625 1.994-15.9 31.908-10.675 51.772-.716 8.618 4.34 20.143 12.705 25.8 18.155 6.492 6.272 7.63 8.366 8.058 14.992.016 4.05-1.112 7.704-2.49 10.59.984-.706 3.67-1.795 3.736-1.892.084-.352.142-1.1.142-1.1 2.837-13.358-2.954-24.246-7.506-28.51-4.445-4.167-2.33-1.047-.855.856 1.054 1.357 1.55 2.148 2.005 2.98 2.308 4.382 1.207 3.848-1.865.718-6.038-6.177-16.574-14.01-26.24-18.84-13.206-6.602-29.373-9.745-38.333-9.467 3.708-1.71 5.733-1.892 9.532-2.277 3.37-.34 2.05-1.014 0-.866-7.192.556-23.236.823-25.737 13.39C80.335 102.54 89 111.667 97.4 114.935c7.213 2.8 14.805 6.144 14.986 6.22.048-.12.096-.247.133-.343l.673-2.053z" fill="#132448"/><path d="M58.674 230.98c.348-.066.61-.386 1.032-.867.71-.79 1.57-1.998 1.816-3.227.155-.535-.17-.29-.29-.044-.122.246-2.36 3.1-3.54 3.41-.166.043-.247-.033-.242.363.082.257.392.577 1.224.364z" fill="#FFF"/><path d="M67.55 220.496c.58-1.282 1.912-3.815 3.387-6.572-3.21 5.877-6.93 12.373-9.168 15.28-.108.14-.225.268-.333.407-.107.15-.39.29-.502.407-.123.14-.08.245-.16.33-.08.075.037.16-.01.225-.07.106-.295.202-.38.3-.183.18-.124.394-.28.533-.27.268-.715.44-.715.44-.49.073-.332.736.085.896.23.086.465.236.69.375.175.085.362.16.555.438.143.193-.096.492-.107.77-.022.223.07.45-.09.588-.22.214-.707.32-1.102.214-.48-.14-1.094-.524-1.665-.802-.706-.33-1.325-.566-1.507-.534-.172.032-.54.118-.652.29-.08.116-.107.244.107.437.085.076.384.267.545.352.262.14.497.385.823.556.118.065.246-.054.37 0 .15.076.31.29.49.406.22.095.513.277.71.362.134.075.268.32.386.406.08.044.144-.063.22-.032.24.107.453.15.598.278.267.213.582.438.886.556.497.182.973 0 1.17-.897.316-1.454.7-3.09 1.026-4.21.07-.235.24-.727.47-1.4.055-.117-.064-.266-.01-.405.952-2.63 2.913-7.29 4.163-9.992zM131.39 112.465s.897-1.474.86-1.38c-2.233-3.055-6.37-4.764-10.147-4.636-.32 1.474-13.934 34.813-18.133 42.88-4 7.705-14.778 29.482-16.397 32.464 1.255-2.415 38.612-66.058 41.993-71.882 0 0 .995.578.834 1.4-3.397 5.12-24.758 40.958-26.538 44.442-1.768 3.462-14.628 25.43-22.707 41.13 0 0 32.687-55.684 33.98-58.002 1.274-2.278 15.405-25.113 16.255-26.417zM72.17 217.29c-.095.15-.197.267-.293.428-.037.063.016.17-.016.245-.084.193-.223.374-.298.578-.032.064.01.172-.027.235-.25.407-.315.823-.614 1.165-.03.054.012.182-.026.235-.02.043-.133.063-.14.096-.148.556-.548.93-.805 1.41-.038.055-.016.16-.006.246-.09-.032-.14.01-.16.076-.048.224-.118.373-.193.566-.053.15-.223.3-.26.44-.077.31-.375.5-.36.81-.245.075-.17.16-.175.246-.01.076-.07.13-.124.182-.2.235-.292.524-.394.834-.074.235-.26.406-.352.64-.01.055.01.12-.01.15-.07.13.068.246.047.364-.036.117-.33.32-.384.438-.026.076-.058.043-.096.085-.315.513-.24 1.026-.502 1.518-.058.096-.23.246-.282.32-.363.472-.272 1.07-.62 1.497.054.246-.154.417-.176.663 0 .054.037.096.032.16-.026.204-.096.396-.133.578-.145.727-.268 1.42-.466 2.2-.16.556-.545.802-.608 1.42-.022.183.144.194.154.247.016.096.027.182.102.224.06.054.123 0 .15-.065.154-.472.17-.79.38-1.262.08-.182-.182-.428-.13-.62.205-.597.85-1.133 1.038-1.752.282-.107.048-.417.154-.652.037-.054.096-.074.166-.096.1-.054-.113-.213-.07-.3.15-.3.465-.555.652-.833.123-.182.278-.332.363-.523.128-.3.304-.513.304-.813 0-.353.395-.63.373-.995-.005-.085.102-.16.128-.235.103-.46.145-.908.316-1.325.06-.14.016-.33.016-.48.213.01-.037-.267.165-.267-.063-.193.043-.406.118-.567.272-.576.486-1.206.608-1.88.033-.16.16-.277.22-.427.026-.054-.022-.204.02-.224.114-.12.166-.268.305-.353.027-.033-.004-.107.016-.172.07-.17.3-.278.332-.49.005-.033.117-.033.14-.075.207-.567.46-1.026.607-1.582.076-.32.48-.545.465-.897 0-.042.118-.053.128-.095.118-.363.096-.652.32-.994.044-.053-.01-.15.023-.212.015-.085.282-.096.292-.13.177-.287.054-.726.14-1.035-.19.395-.36.77-.552 1.057zM124.722 127.68c.523-.79 8.874-13.206 8.906-13.783.043-.63-.427-1.39-.678-1.592-.417.673-5.07 8.185-9.13 14.5-17.456 28.317-48.075 82.524-49.848 86.69-.07.162-.46 1.24-.524 1.38-.095.224.043.085-.112.278-.21.267-.406.652-.588 1.047.08-.15.358-.256.45-.374.064-.085.047-.202.132-.267.016-.012-.022-.044-.016-.066.043-.106.054-.17.144-.256.048-.032.07-.117.048-.193.065.054.022-.085.08-.032-.004-.043-.004-.085-.004-.14l.112-.192c2.243-4.186 31.97-57.998 51.028-87z" fill="#FFF"/><path d="M119.774 108.437l-.817.182c-.673 2.51-7.298 23.54-20.98 49.568 2.606-3.59 15.403-30.453 21.797-49.75zM76.787 203.068c.076-.235.636-1.347-.005-.224-.497.994-1.837 3.59-3.553 6.807 1.905-3.505 3.52-6.443 3.557-6.582z" fill="#FFF"/></svg>