<svg viewBox="0 0 242.076 230.922" xmlns="http://www.w3.org/2000/svg"><path d="m236.32 199.173c-1.778-.87-3.68-1.364-5.68-1.49-.17-2.582-1.013-5.063-1.725-7.16-.305-.9-.595-1.746-.786-2.47-.9-3.37-1.148-4.754-.336-6.955 1.71-4.662-4.243-7.358-6.604-8.423l-.73-.33c-.686-.33-1.084-.166-2.138.257-.853.31-1.845.982-3.137 2.17 1.075-1.766 1.767-4.01 1.948-6.366.692-.495 1.348-1.302 1.88-2.356 1.768-3.535 1.85-9.436-3.238-15.347-2.072-2.387-16.582-14.944-29.34-25.9l-.053-.04c4.485-1.437 11.353-3.65 11.3-3.628.962-.27 2.512-.993 3.934.3 1.255 1.218 3.725 1.663 5.844.175 3.705-2.615 1.66-8.33.905-10.46-1.328-3.74-3.21-5.167-4.553-5.694-1.303-.516-2.682-.538-3.87.104-1.85.98-2.3 2.573-2.51 3.865-.24 1.405-2.487 1.737-6.466 2.74 0 0-13.678 3.73-14.65 4.02l-.067-.074-3.324-2.81c-.64-1.065-1.906-2.986-3.405-4.186-.258-4.268-3.58-9.373-6.3-11.45-.138-2.978-2.53-7.298-5.073-8.848-11.42-20.163-21.62-33.092-31.17-39.53l-.314-.206c-1.706-1.147-1.85-1.313-1.912-2.192-.588-7.948-2.717-15.554-5.414-19.657 1.065-1.694 2.682-4.742 3.782-8.98l1.214-4.578-1.384.92c.357-1.138.708-2.522 1.038-4.176l.032-.227c.108-1.376-.828-1.883-1.11-2.006-.115-.062-.234-.093-.343-.124.098-1.51-.046-3.328-.837-5.343l-1.06-2.718-1.96 2.16c-3.994 4.454-10.076 6.78-15.44 8.825-1.23.466-2.392.93-3.498 1.375-8.753 3.617-14.168 7.493-19.27 18.438-.112.104-.247.206-.397.33-2.32 1.944-7.15 6.015-9.88 14.056l-.454 1.333 1.177.755c2.82 1.798 5.87 3.08 9.725 4.423-14.441 32.265 13.039 51.415 36.029 63.157-1.333 2.44-2.398 4.723-2.677 7.42l-10.304 10.862c-.994.27-2.87.89-3.95 2.047-.37.394-.722.92-1.037 1.582-.29.072-.538.114-.76.165-6.44 1.272-16.727 3.628-44.042 11.224-3.947-3.616-10.515-5.94-16.995-5.94-10.24 0-16.855 5.497-23.64 13.764-9.792 11.938-20.857 44.585-6.196 61.886 2.5 2.945 11.926 12.474 28.08 11.266 4.324-.33 7.56-1.055 10.417-1.685 5.632-1.24 8.21-1.818 13.833 1.964l2.243 1.52 2.12-1.674c3.198-2.553 8.635-1.685 13.005-.672l8.48 1.974-4.444-7.482c-5.933-9.987-14.333-11.423-22.803-10.679 4.76-1.323 7.932-5.55 10.242-10.593-.31 3.308.27 6.832 3.39 9.055 5.04 3.576 11.348 1.995 16.014-.89 2.216 1.882 5.177 2.987 7.916 2.864 2.366-.042 4.402-.507 6.315-1.417 1.255.87 2.676 1.405 4.216 1.56 2.558.25 5.307-.578 8.165-2.458 1.493 1.508 3.442 2.314 5.66 2.314 1.037 0 2.112-.135 3.208-.394l-.104.393h15.42l2.067-7.566c.18 1.488.634 2.914 1.498 4.175.966 1.394 2.827 3.09 6.263 3.39 3.675.29 8.078-1.075 11.627-3.577 3.866 3.803 8.738 4.413 14.526 1.82 1.142.97 3.12 2.16 6.087 1.745 2.03-.144 4.082-.992 6.21-2.604 1.752 1.717 4.02 2.656 6.548 2.615 4.176-.062 7.68-2.554 10.434-5.127 3.028 3.132 7.627 6.274 14.686 5.085 1.21-.217 2.216-.465 3.1-.733 2.336-.61 2.63-.672 4.49.89l5.51 4.67.573-7.05c.104-.35.87-2.48 4.62-4.96l5.37-3.534-5.76-2.897zm-187.454 14.582c-7.808 1.395-15.88 2.863-22.773-.58-4.93-2.417-8.882-9.114-9.007-15.243-.113-5.53.62-11.286 2.615-17.362.585.6 1.267.94 1.96 1.21 1.54.547 3.76.526 5.612-.114 2.872-.95 5.663-1.89 8.39-2.82-.148.164-.31.31-.453.485-5.825 6.533-8.254 14.253-6.787 21.394-.832.506-2 1.157-3.245 1.757 0 0-3.21 1.51-3.364 1.593l-.873.527v1.022c0 1.003 0 1.003 3.882 3.36.01.01 1.617 1.053 2.5 2.872l1.04 2.19 2.393-.05c2.196-.073 3.942-1.26 5.017-2.212 3.715 1.622 7.642 1.24 11.083-1.065 2.91 1.715 5.933 2.067 7.493 2.108-1.85.258-3.69.6-5.482.93zm136.84-40.378h-9.83l-.077.3c-1.288-.198-2.688-.166-4.156.112-5.435 1.012-9.61 4.32-12.49 9.797.32-2.873-.01-5.075-1.363-6.82-1.565-1.996-3.767-3.102-6.387-3.226-.945-.04-1.943.063-2.96.29l.077-.31h-14.63l.01-.02h-1.946c2.635-1.303 4.474-4.01 4.474-7.152 0-4.392-3.576-7.957-7.968-7.957-3.343 0-6.21 2.088-7.395 5.002l2.207-8.63-17.13 6.74-2.806 12.287c-5.95-.88-9.964 2.243-12.495 5.373.45-.827 1.16-2.118 1.102-2.026l1.74-2.78h-16.893l.47-1.81h-13.6s-2.547 10.223-3.71 13.85c.59-2.614 2.993-12.887 2.993-12.887h-11.716c25-8.66 42.63-15.234 52.58-19.595 4.634-2.047 27.996-10.52 35.81-13.332 5.895-2.14 13.01-4.598 21.13-7.327 5.373 8.185 19.138 29.01 27.396 40.15-.516-.03-1.266-.03-2.438-.03zm-55.443-52.532 1.038.434-7.678 7.41c-3.074 0-4.123 3.06-4.123 3.06l-5.504 1.54c-.25-.25-1.577-.363-1.577-.363l6.887-5.973c5.65-1.748 10.956-6.11 10.956-6.11zm6.645 2.533 6.64 2.232-9.214 2.325s-.75-.486-1.74-.58z" fill="#fff"/><path d="m235.513 200.796c-2.418-1.22-4.78-1.436-6.65-1.333.217-2.82-.79-5.818-1.644-8.35-.327-.93-.62-1.83-.833-2.584-.89-3.36-1.312-5.25-.285-8.062 1.138-3.09-3.54-5.21-5.54-6.108l-.84-.382-.756.29c-2.6 1.002-7.916 7.317-17.455 19.45-1.12 1.395-2.257 2.852-3.166 3.99.6-2.688 2.51-11.38 3.415-15.544 3.684.33 6.51-1.984 7.213-5.5 3.044.756 6.423-3.73 6.423-9.424 1.602.113 6.19-6.996-.986-15.358-2.197-2.542-19.647-17.6-31.605-27.81l-.036-.042 14.443-4.64c.893-.26 2.53-.632 3.343-.56.522.053 1.633.797 2.175 1.396.528.516 1.976 1.168 3.68-.083 2.306-1.664 1.247-5.59.254-8.392-1.095-3.1-2.475-4.443-3.467-4.825-.806-.32-1.747-.434-2.64.052-2.077 1.074-1.116 3.317-2.253 4.154 0 0-.32 1.014-6.765 2.575l-14.79 4.216-.874.24-.067-.053c-2.636-2.253-4.27-3.628-4.27-3.628-1.038-1.778-2.505-3.71-3.818-4.445.3-4.35-4.107-10.397-6.366-11.43.625-1.912-1.97-7.338-4.522-8.455-8.128-14.407-19.15-31.5-30.86-39.355-1.875-1.272-2.884-1.83-3.028-3.793-.647-8.89-3.173-16.557-5.804-19.72.972-1.343 2.956-4.61 4.243-9.487 0 0-1.5.982-2.635 1.354.61-.714 2.124-2.42 3.478-9.095.057-.828-.625.703-2.248 1.633.27-1.168 1.643-4.27.072-8.32-5.24 5.83-13.627 8.175-19.594 10.656-9.06 3.74-13.787 7.637-18.495 17.89-1.664 1.498-7.136 5.31-10.035 13.837 2.883 1.86 6.035 3.122 10.506 4.662 0 0 .025 1.427.056 1.58-13.575 29.673 8.8 48.152 36.69 62.093-1.794 3.225-3.272 5.788-3.432 8.99l-11.094 11.68s-2.527.537-3.576 1.653c-.466.496-.832 1.312-1.07 1.912-.65.134-1.22.258-1.674.362-6.76 1.364-17.63 3.885-44.92 11.47-.098-.092-.186-.184-.285-.288-3.56-3.555-9.912-5.87-16.196-5.87-9.533 0-15.787 5.25-22.256 13.115-9.46 11.543-20.246 43.033-6.21 59.58 2.365 2.79 11.27 11.813 26.564 10.624 4.2-.32 7.374-1.023 10.17-1.633 5.788-1.27 8.97-1.974 15.218 2.233l1.162.775 1.09-.868c3.803-2.997 9.772-2.13 14.537-.992l4.366 1.002-2.294-3.845c-7.45-12.536-18.96-10.47-30.1-8.475-8.087 1.447-16.453 2.966-23.89-.703-5.56-2.77-9.864-9.983-10.004-16.835-.134-6.728 1.385-14.22 3.72-20.66 1.835 2.357 4.17 3.65 6.284 3.09.29-.072.554-.176.8-.29.208-.04.41-.06.61-.133 37.87-12.775 63.566-22.076 76.38-27.72 4.693-2.056 28.102-10.562 35.926-13.373 6.94-2.51 14.8-5.21 22.478-7.772 4.625 7.048 22.86 34.704 30.772 44.72-1.56 9.197-4.273 20.163-8.873 23.004-.196.103-.44.268-.64.392.997-5.374 4.304-19.564 4.826-21.702l.575-2.357h-10.86l-.193.724c-1.405-.58-3.153-.724-5.11-.35-8.408 1.58-13.513 9.33-15.166 23.024-.026.25-.062.497-.083.704-1.65 1.882-2.936 2.253-3.323 2.1-.134-.053-.165-.352-.156-.54.052-1.62.94-4.67 1.794-7.595 2.175-7.524 3.447-12.64 1.333-15.358-1.23-1.582-2.987-2.45-5.048-2.532-1.824-.093-3.69.444-5.385 1.292l.3-1.313h-11.264l-.315 1.508c-1.282 6.222-5.023 19.378-7.586 22.365-.5.61-1.503.972-2.195 1.075.703-3.41 3.9-15.182 5.968-22.562l.672-2.418-11.425-.01-.335 1.488c-.036.165-3.762 16.72-6.67 21.775-.838 1.458-1.613 1.87-1.912 1.768-.202-.062-.378-.362-.35-.776.283-3.865 6.526-28.886 8.908-38.197l.926-3.628-12.986 5.116-2.986 13.094c-.383-.134-.812-.238-1.308-.33-8.34-1.406-12.406 6.21-13.936 9.105-1.964 3.648-3.948 9.683-4.124 14.47-1.21 1.435-2.687 2.53-3.19 2.458-.417-.062-.52-.197-.62-.403-1.58-3.09 3.376-14.882 7.39-22.26l1.55-2.833h-15.996l.47-1.778h-9.844l-.34 1.468c-2.017 8.61-5.608 19.925-8.77 24.37-.378.527-.713.805-.936.95.196-2.056 2.723-13.435 5.075-23.49l.558-2.337h-11.25l-.48 1.81c-3.643-1.345-8.423-1.096-12.397 3.4-5.808 6.5-7.978 14.095-6.082 21.01-.848.63-2.703 1.704-4.516 2.552l-3.21 1.528 3.054 1.84s2.02 1.26 3.153 3.637l.53 1.127 1.24-.04c2.058-.053 3.665-1.47 4.714-2.575 3.772 2.15 7.92 1.746 11.368-1.095 3.126 2.325 6.79 2.51 7.968 2.51 9.647 0 13.342-12.773 16.03-22.095.366-1.25.707-2.44 1.038-3.504h3.705c-.24.548-.48 1.116-.72 1.706-1.07 2.593-2.29 5.528-3.234 8.37-1.045 3.162-3.484 10.614 1.11 13.88 4.537 3.203 10.697 1.508 15.188-1.716 2.14 2.44 5.276 3.472 7.668 3.36 2.51-.042 4.594-.6 6.537-1.79 1.208 1.127 2.618 1.778 4.2 1.943 2.97.29 5.942-1.282 8.325-3.09 1.203 1.87 3.05 2.925 5.338 2.936 1.89.01 3.9-.516 5.854-1.51l-.41 1.51h11.706l3.777-13.85c2.19-8.825 4.393-9.85 4.806-9.983.186-.04.34 0 .45.073-.01.58-.49 2.046-.936 3.38-.387 1.187-.873 2.686-1.38 4.453l-.133.507c-.987 3.462-2.626 9.26-.17 12.815.74 1.054 2.2 2.377 4.93 2.604 3.75.32 8.402-1.427 11.698-4.186 4.687 5.725 10.314 4.3 14.67 2.077 1.204 1.332 2.827 2.49 5.603 2.098 2.444-.144 4.68-1.632 6.557-3.337 1.504 2.212 3.71 3.39 6.304 3.348 4.222-.05 7.75-3.08 10.53-5.9 3.385 3.958 7.618 7.007 14.305 5.88 1.132-.176 2.093-.444 2.94-.67 2.502-.662 3.54-.952 6.114 1.238l2.843 2.398.305-3.7c0 .02.455-2.915 5.4-6.18l2.76-1.82-2.96-1.47zm-110.697-70.918c-1.323.27-1.968.466-2.868 1.282-.63.58-1.06 1.405-1.286 2.005-2.497.64-5.074 1.312-7.576 1.953-.568-.34-1.658-.785-3.354-.67-.155 0-.604-.094-.568-.56.032-.393 9.333-8.826 9.333-8.826 2.604-.537 12.133-6.077 12.133-6.077l2.913 1.188-.212.486-.422.733-7.54 8.01c-.164.186-.32.444-.552.475zm8.733-.094c-.652-.475-1.344-.775-2-.755-2.418.04-1.597-.828-1.04-1.458l6.476-6.035s5.096 2.1 11.208 4.26c-8.862 2.428-13.68 3.73-14.645 3.987zm-91.852 70.876c-.015 0-.052 0-.144-.123-.12-.145-1.174-1.715.196-7.163 1.007-4.03 2.497-6.75 4.175-7.617.326-.176.786-.35 1.427-.32-.868 7.504-3.25 15.224-5.654 15.224zm59.607-7.285c-.486 1.912-.987 3.917-1.432 5.974-.067.277-.832.898-1.907 1-.393.042-1.085.012-1.235-.36-.965-2.213.363-9.395 3.49-13.115.924-1.086 1.834-1.633 2.707-1.685.042 1.52-.914 5.312-1.622 8.185zm67.693 7.35c-.025 0-.072 0-.155-.115-.124-.145-1.173-1.726.2-7.172 1.03-4.124 2.41-6.645 4.084-7.524.563-.3 1.214-.382 1.927-.278-.987 7.563-3.524 15.088-6.056 15.088zm49.277.36c-.45.435-1.292.713-2.196.745-1.128.01-2.172-.342-2.858-1.003-3.48-3.255-3.48-3.255-1.794-5.435 1.08-1.406 2.026-2.708 2.95-3.97.807-1.146 1.578-2.18 2.337-3.162.27 1.943.832 3.752 1.355 5.457 1.078 3.492 1.62 5.56.205 7.368z" fill="#001541"/><path d="m134.624 166.35c0-3.39-2.764-6.16-6.165-6.16-3.396 0-6.16 2.77-6.16 6.16 0 3.4 2.764 6.158 6.16 6.158 3.4 0 6.164-2.758 6.164-6.16z" fill="#001541"/><path d="m114.55 146.33c6.645-2.48 14.194-5.22 18.323-6.717l.832-.31c.956-1.736.898-5.188-.853-6.614-.393-.32-.956-.56-1.488-.724-.584.134-1.086.248-1.38.237-.93.238-12.768 3.318-15.403 4 2.75 2.408 3.214 7.317-.03 10.128zm20.503-7.513c1.41-.506 3.276-1.188 3.276-1.188 6.22-2.244 13.713-4.837 22.27-7.72 0 0 .042-.01.094-.02l-.285-.445c-3.023-.672-6.48-1.726-9.813-2.842l-15.482 4.236c-.104.04-.238.083-.367.113 1.742 2.15 2.635 5.58.305 7.864zm-51.593-90.307s4.32 1.707 5.577-3.76c.672-2.966-1.572-7.276-4.45-6.057-.03.01.517-3.142-1.9-4.196-5.97 3.66-8.646 10.44-8.646 10.44 5.256-1.128 6.078-2.627 10.067-2.286 1.42.126 2.103.777 3.234 1.624-1.74-.403-3.08-.486-4.536-.527-2.03-.042-6.05 1.374-8.082 1.59 0 0 6.688 2.874 8.74 3.174z" fill="#fedb00"/><path d="m130.455 87.277c-1.81.3-4.057.373-7.494-.92-.128.982-2.68 2.398-3.828 2.626 8.31 7.038 37.547 17.94 45.902 19.894 1.34.31-.615-5.704-4.288-8.164-2.683-1.82-19.585-5.716-30.29-13.436zm2.273-.547c11.544 6.842 23.87 10.593 26.57 11.38.564-.394-.852-5.665-4.713-7.04-5.777-2.056-10.583-4.103-13.998-6.23-1.2.66-2.992 1.02-6.227-.25-.123.785-.372 1.55-1.632 2.14z" fill="#be0a14"/><path d="m97.098 39.49c-.59.95-1.685 1.55-2.89 1.467-1.724-.124-3.02-1.613-2.903-3.34.125-1.724 1.618-3.016 3.34-2.892 1.14.083 2.096.755 2.577 1.715-2.15-.228-2.62 1.85-2.62 1.85-1.395-1.705.403-2.676.403-2.676-1.198-.176-2.336.733-2.433 2.108-.093 1.364.934 2.574 2.314 2.667.926.06 1.732-.25 2.212-.9zm138.715 152.056h-1.375v3.73h-.93v-3.73h-1.36v-.806h3.665zm6.216 3.73h-.93v-3.616h-.02l-1.324 3.617h-.89l-1.275-3.617h-.025v3.617h-.92v-4.537h1.608l1.054 2.976h.025l1.096-2.976h1.6v4.537z" fill="#fff"/><g fill="#be0a14"><path d="m81.405 62.815c1.323-2.615 8.563-12.392 15.78-12.392-.583-1.375.135-9.446 6.264-15.584-1.396.33-3.278-.157-4.615-.735-.507-.34-1.117-.982-2.228-1.612-1.52-.89-3.42-.466-4.83.37-.833.487-6.347.352-7.226-1.146 2.353-5.715 7.06-11.626 16.144-15.45 6.202-2.594 13.446-4.165 18.014-8.95.206 7.43-10.81 12.433-10.81 12.433 6.64-1.478 11.167-5.994 11.167-5.922-2.853 7.4-9.953 11.544-9.953 11.544 2.264-.382 6.625-2.325 8.434-3.72 0 0-.79 3.854-7.023 9.373-.01-.01 3.106-.683 4.832-2.036 3.1 4.07 5.43 11.16 5.596 19.677.037 1.653.802 5.27 1.675 5.695 1.26.61.206-1.882.543-2.997 12.66 7.72 22.37 23.202 31.15 37.94-2.864-.88-9.023-3.35-12.64-5.25.367-.403.44-.734.465-1.22.207-2.78-2.243-4.537-3.487-5.136-.326-.157-.57-.074-.667.04-.105.155-.058.382.035.434.635.434 3.038 1.88 2.868 4.28-.04.63-.914 1.508-2.165 1.6-3.106.32-8.227-2.345-14.614-8.877-.19-.197-.522-.64-.96-.373-.41.238-.322.58-.207.744 3.275 5.416 9.957 8.505 9.957 8.505-.455 1.87-2.76 1.943-4.852 1.87-7.906-.216-13.244-9.02-14.69-11.274-.285-.425-.58-.54-.85-.404-.272.165-.438.27-.293.713.22.68 3.39 7.243 9 10.53.756.413-2.102 2.232-3.916 2.18-3.276-.072-11.027-3.1-13.678-14.49-.036-.175-.186-.443-.58-.372-.433.093-.443.403-.376.734 1.5 12.526 10.748 15.358 14.215 15.76 5.772 5.705 26.628 15.203 48.3 21.55 4.082 1.177 8.247 12.38 5.023 11.43-1.158-.33-2.662-.89-4.29-1.437-10.68-3.565-26.895-10.117-44.408-18.603-12.096-5.86-32.61-19.078-22.695-37.506 1.292-2.76 2.676-4.092 2.873-4.288.134-.073.222-.393.196-.548-.44-1.188-1.607-1.095-4.69 4.072-10.548 20.256 10.607 33.484 23.386 39.83 8.253 4.104 22.784 10.325 33.114 14.47l5.688 9.198c-5.25-1.043-22.188-7.7-27.16-9.943 0 0 1.81-1.6 1.18-3.09-.44-1.043-.694-1.705-2.09-2.872-1.467-.91-1.844-.27-1.203.443.604.652 1.854 2.708.64 4.124-2.005 2.314-7.68 4.92-10.898 6.728-1.405.3-2.093.27-2.243-.95-.198-1.51 1.967-4.764 4.5-8.837-4.373-2.015-48.42-21.186-40.705-50.258zm126.979 111.172c3.323 1.457 5.684-5.075 4.413-6.955-.43-.63-2.863-3.287-6.268-6.904l-2.057 9.498c2.134 2.573 3.575 4.205 3.91 4.36z"/><path d="m193.832 164.562.197-1.674 1.937-.765-25.305-32.473h2.248s14.422 18.665 24.89 31.76l7.257-2.833c-10.604-11.234-28.287-29.474-28.287-29.474l2.31.06c-.01-.195 34.224 35.357 34.224 35.357 1.87 2.12 5.074-5.033-.068-10.75-2.842-4.536-40.46-35.84-40.46-35.84.34.755.52 1.705.67 2.615 1.478 6.966-3.788 3.11-17.233-1.427 10.785 17.043 27.197 42.177 36.498 53.927.538-3.482.89-6.52 1.122-8.483zm8.398 15.502c2.754-.093 5.555-2.51 4.175-4.568l-2.495-3.204z"/><path d="m226.237 201.87c2.088-3.802-.708-9.125-1.7-12.867-.884-3.358-1.483-5.767-.233-9.156.553-1.54-3.906-3.472-4.646-3.813-3.808 1.488-20.132 23.78-21.827 25.196-.794.683-2.645 1.746-1.523-3.152 0 0 8.195-37.196 8.15-37.206l-8.66 3.36c-.973 8.216-3.546 31.386-11.42 36.233-.704.435-3.097 2.212-3.815.828-.393-.765 5.085-23.978 5.142-24.215h-6.95l-.54 2.13c-1.146-2.13-4.04-2.13-5.884-1.79-13.182 2.482-13.394 22.056-13.838 22.737-3.814 4.703-7.25 3.504-7.152.63.17-5 6.186-18.322 3.53-21.712-2.926-3.742-8.946-1.075-11.96 2.16l.92-4h-7.295c-1.05 5.085-4.852 19.533-8.005 23.233-1.65 1.933-5.87 2.51-5.684.435.206-2.386 6.164-23.697 6.164-23.697h-7.384s-3.793 16.928-6.878 22.302c-2.636 4.61-6.03 2.604-5.834-.083.367-4.888 8.975-38.55 8.975-38.55l-8.578 3.37-3.447 15.142s-.03-1.427-2.8-1.902c-6.082-1.013-9.462 3.45-11.943 8.092-1.85 3.483-3.9 9.726-3.9 14.324 0 0-3.01 3.918-5.34 3.628-7.977-1.023 5.344-25.475 5.344-25.475h-15.25l.48-1.797h-5.856c-1.617 6.955-5.312 19.77-9.07 25.05-2.035 2.865-4.344 2.07-4.407.094-.072-2.015 5.137-24.183 5.137-24.183h-7.358l-.698 2.666c-2.072-1.312-7.456-3.472-12.23 1.902-6.244 7.028-7.282 14.48-5.41 20.1.252 1.076-5.794 3.96-5.794 3.96s2.486 1.488 3.89 4.433c2.326-.052 4.28-3.255 4.527-3.09 3.576 2.687 7.948 2.646 11.57-1.24 2.216 2.336 5.523 3.194 8.01 3.194 9.91 0 12.896-17.467 15.677-25.632h7.896c-1.157 3.173-3.426 8.02-4.94 12.588-1.576 4.806-2.537 9.642.403 11.72 4.522 3.214 10.898.278 14.5-2.904 1.494 2.904 4.64 4.32 7.168 4.216 2.77-.062 4.873-.775 6.936-2.418 3.84 5.322 9.71 1.27 12.94-1.747.562 2.233 1.958 4.165 4.618 4.165 3.153.01 6.48-1.726 9.084-4.227l-1.15 4.228h7.734l3.416-12.454c3.736-15.088 8.366-11.07 8.737-10.48.853 1.334-.563 3.856-2.118 9.437-1.08 3.856-3.954 12.93 2.93 13.498 3.947.33 9.125-2.108 11.806-5.22 3.917 6.337 8.65 6.16 14.888 2.575 1.355 1.746 2.373 2.997 4.884 2.646 2.9-.135 5.756-2.977 7.328-4.61.878 2.53 2.728 4.66 5.745 4.61 4.2-.063 7.933-4 10.67-6.874 3.71 4.806 7.458 7.957 13.87 6.873 4.507-.766 6.26-2.7 10.62.98 0 0 .285-3.68 6.247-7.595-3.274-1.647-6.572-1.223-8.417-.644zm-184.54.704c-1.916 0-3.585-2.595-1.802-9.674 1.282-5.105 4.02-11.047 9.53-8.93 0 0-1.583 18.604-7.727 18.604zm60.037-2.832c-.532 2.5-5.59 3.7-6.754 1.013-1.938-4.465 2.49-18.954 8.997-17.362 2.263.546-.497 8.318-2.243 16.35zm67.264 2.893c-1.932 0-3.59-2.594-1.813-9.673 1.29-5.106 3.87-11.142 9.963-8.744 0 0-1.856 18.417-8.15 18.417zm50.703-.27c-1.643 1.727-5.575 1.976-7.802-.164-4.5-4.236-4.413-4.815-1.99-7.967 3.503-4.57 5.78-8.362 8.918-11.172-1.957 7.886 5.034 14.232.875 19.306z"/><path d="m124.207 166.35c0-2.347 1.902-4.27 4.253-4.27 2.35 0 4.257 1.923 4.257 4.27 0 2.356-1.907 4.247-4.257 4.247-2.352 0-4.253-1.89-4.253-4.248z"/></g><path d="m177.12 119.202 4.49 3.793 15.183-4.908s5.623-1.385 5.623-4.03c0-4.073 2.12 3.668 1.25 5.208 0 0 .72.692 1.954-.206 1.235-.9 1.013-3.36-.228-6.853-1.24-3.493-2.558-4.237-3.674-4.04-1.39.268-1.44 1.838-1.44 1.838s.232 1.405-1.344 2.594c-.796.588-3.194 1.653-7.028 2.407l-14.785 4.195z" fill="#fedb00"/><path d="m24.45 216.514c-6.454-3.182-10.93-11.182-11.074-18.5-.156-7.388 1.622-15.604 4.33-22.642-.584-1.086-1.08-2.326-1.432-3.65-1.432-5.414.377-10.87 3.56-12.08.18-.072.362-.154.563-.206 3.214-.93 6.295-1.737 9.25-2.563 1.045-.93 2.093-1.715 3.137-2.336 3.716-2.17 10.837-2.253 14.986.765-1.933 2.263-3.587 5.374-.858 7.896 2.135 2.056 5.648 1.22 7.095-1.24 2.233-3.782.414-8.04-2.227-10.738-3.167-3.173-9.023-5.322-14.847-5.322-8.185 0-13.987 4.155-20.768 12.422-9.765 11.894-19.18 41.877-6.24 57.14 4.34 5.116 13.104 10.862 24.974 9.973 12.974-1.013 16.498-5.88 26.59.89 4.755-3.753 12-2.337 16.148-1.355-11.87-19.987-34.58.745-53.19-8.454z" fill="#be0a14"/><path d="m112.105 138.27c-.574-.393-1.416-.66-2.124-.827h-.314c-1.194.3-2.155.547-2.155.547-4.392 1.106-7.456 1.82-9.105 2.15-8.95 1.798-22.545 5.26-44.006 11.213 2.273 3.08 3.663 7.473 1.255 11.576-1.05 1.776-2.894 3.006-4.95 3.285-1.903.25-3.77-.33-5.09-1.602-1.525-1.426-3.406-4.31-.657-8.7-1.09-.487-2.32-.756-3.576-.91l-20.8 5.942c-.103.03-.21.052-.31.083-2.665.972-3.874 5.736-2.675 10.242 1.23 4.67 4.372 8.247 7.213 7.493 2.848-.744 3.943-5.416 2.72-10.097-.477-1.778-.86-2.977-1.768-4.29 0 0 1.943 1.613 2.857 5.592.79 3.41.67 6.118-.286 7.978 36.58-12.35 61.477-21.403 73.987-26.88 1.464-.652 4.792-1.944 9.897-3.856 0 0 .51-.196.9-.34 1.173-2.038 1.396-6.885-1.012-8.6z" fill="#fedb00"/></svg>