<svg xmlns="http://www.w3.org/2000/svg" viewBox="0 0 233.564 233.564"><title>Texas Rangers primary light logo</title><path d="M116.782 0C52.46 0 0 52.46 0 116.782s52.46 116.782 116.782 116.782 116.782-52.46 116.782-116.782S181.104 0 116.782 0z" fill="#FFF"/><path d="M224.48 116.782v-2.04h-33.55c-.557-18.165-7.6-36.146-21.504-50.048-28.917-28.917-75.63-28.732-104.362 0-14.088 13.903-21.132 32.07-21.688 50.235H9.083v3.891h34.293c.37 18.35 7.6 36.332 21.503 50.42 28.916 28.732 75.63 28.732 104.36 0 13.904-13.903 21.133-32.254 21.504-50.606h33.552v-1.483c.185-.186.185-.186.185-.37z" fill="#FFF"/><path d="M116.782 9.083c-58.762 0-106.587 47.27-107.7 105.845h34.294c.556-18.166 7.6-36.332 21.503-50.235 28.916-28.732 75.63-28.917 104.36 0 13.904 13.903 20.948 31.883 21.504 50.05h33.552v2.038C224.48 57.465 176.1 9.084 116.782 9.084z" fill="#C0111F"/><path d="M116.782 3.893c-62.284 0-112.89 50.605-112.89 112.89s50.42 112.888 112.89 112.888c62.284 0 112.89-50.605 112.89-112.888S179.065 3.892 116.78 3.892zM87.865 184.627c.74 0 1.298 0 2.04-.185.74.927 1.482 1.298 2.223 1.854-1.483-.557-2.78-1.113-4.263-1.67zm136.616-67.474v1.483h-33.55c-.372 18.35-7.6 36.518-21.504 50.606-20.39 20.205-49.493 26.137-74.89 17.98l.557-.74c-1.668-.37-3.707-1.854-4.82-2.966-2.595.74-4.078-.556-5.932-1.112l-.184.556c-6.86-3.522-13.347-7.97-19.093-13.717-2.78-2.78-5.19-5.746-7.23-8.712.742.372 1.484.928 2.225 1.113l-.74-1.112s-1.855-1.297-3.338-2.41c-1.298-1.853-2.41-3.706-3.337-5.56 2.224 2.04 3.707 2.41 5.376 3.15l-.557-2.41c-1.483-.37-4.263-1.667-6.303-3.706-4.82-9.64-7.23-20.205-7.6-30.77H9.083v-1.484-.556-1.854C10.195 56.352 58.02 9.083 116.783 9.083c59.317 0 107.698 48.38 107.698 107.7v.37z" fill="#003278"/><g fill="#FFF"><path d="M38.742 150.334c1.298-.556 2.224-1.298 2.595-2.78.74-1.855.556-4.45-.37-6.86l-2.596-7.044-.37.37-1.483 1.3-1.668.555-3.338 1.483-2.04-.927-.37-.184s-1.112 2.224-1.112 2.595c-.37 0-5.746 2.04-5.746 2.04l-1.854-.185h-.556l2.41 6.488 1.854-1.854s4.634-1.67 5.932-2.225c0 .185.37.927.37 1.298-.184.37-6.672 7.23-6.672 7.23l1.854 5.19s1.668-2.41 1.668-2.596c.185-.185 5.376-5.56 5.746-6.117 1.668 2.038 3.892 2.965 5.746 2.224zm0-6.488c-.185.74-.927 1.298-1.668 1.668-.927.37-1.854.185-2.595-.185-.557-.372-1.113-.742-1.3-1.484l-.555-1.668c.556-.185 5.19-1.668 5.746-1.854.186.37.557 1.483.557 1.483.185.37.185.927.185 1.298-.185.185-.185.37-.37.74zM55.796 168.5l-7.6 2.595-2.224-.556h-.37l-1.113 2.223c-.372 0-6.304 2.224-6.304 2.224-.185 0-.74 0-2.04.185l-.926.185 3.893 4.45s.927-1.855.927-2.225c.185 0 2.41-.927 2.78-1.112.372.37 3.894 4.45 4.08 4.634-.186.37-1.3 2.41-1.484 2.595-.185 0-2.224.74-2.224.74l5.005 5.746.74-2.966 1.3-2.04 2.038-3.52 2.04-.742.184-.185-.372-2.78 3.522-7.23.185-.185-2.04-2.224v.186zm-4.264 4.82c-.74 1.11-2.41 4.262-2.78 5.004-.557-.556-2.225-2.41-2.596-2.966.557-.185 4.08-1.483 5.376-2.04zM86.752 193.71l-2.595 5.19s-.74 1.483-1.298 2.595c-.372-1.854-2.41-13.532-2.41-13.532l-5.006-2.41v.556l.185 2.41-1.3 2.594s-.926 1.668-.926 1.854c-.185.185-2.41.927-2.41.927l.74 2.595-1.853 3.522-.926 2.04-1.668 1.11-.556.372 5.746 2.78-.37-2.78s3.52-7.23 4.82-9.64c.37 1.855 2.78 16.313 2.78 16.313l2.41 1.112 3.707-7.786 2.04-.74.184-.186-.556-2.41 1.484-2.966s.927-1.854.927-2.04l1.484-1.11.37-.372-5.56-2.78c.373-.186.558 2.78.558 2.78zM122.158 209.466V214.842c-.37.185-.927.556-2.224.556-3.522 0-5.56-3.15-5.932-6.117l1.483-1.482.185-.185s-1.483-1.668-1.668-1.854l.185-.557c.74-2.41 2.595-5.005 5.932-5.005 2.41 0 4.077.556 5.004 1.668l.37.37.557.742.186-3.707-.185-.184c-1.667-1.112-3.15-1.483-5.745-1.668-5.005 0-9.64 2.966-11.122 7.415l-.185.927-1.483 1.483-.185.185 1.668 2.04c.927 5.004 5.746 8.71 11.122 8.897 3.893 0 5.005-.556 6.303-1.112l.74-.37v-7.045l.928-1.668.372-.556h-7.23c-.372-.558.926 1.852.926 1.852zM162.012 204.09l-2.966 1.298s-1.112.556-1.668.74c-.185-.37-2.224-5.375-2.41-5.93.556-.186 3.337-1.484 3.337-1.484l2.04-.185h.555l-1.668-4.264-1.854 1.668-3.15 1.298c-.186-.556-1.855-4.263-2.04-4.82.556-.185 4.634-2.04 4.82-2.04s3.522.186 3.522.186l-1.668-4.078-.556.185-12.79 5.56 2.224 1.67c0 .184 2.04 5.004 2.224 5.375-.185.185-1.112 2.41-1.112 2.41s2.224.74 2.595.927c.185.185 2.224 5.56 2.224 5.56l-.184 2.04v.556l13.16-5.746-1.667-3.893c-.558.186-2.968 2.966-2.968 2.966zM187.778 173.69c.37-.74.556-1.668.556-2.41 0-1.483-.556-2.966-1.483-3.707-1.11-.927-2.223-1.298-3.706-1.112-1.854.186-4.078 1.67-5.746 3.708l-4.82 5.746s2.41.74 2.595.74c0 0 4.078 3.523 4.078 3.708v.185c0 .556.186 2.224.186 2.224v.372s2.41-.185 2.78-.185c.186.185 4.635 4.078 4.635 4.078l.742 1.668.185.556 4.45-5.19-2.596-.742s-3.706-3.337-4.82-4.078l.928-.927c.37 0 9.64 2.224 9.64 2.224l3.706-4.263-2.966-.185c-.184-.37-7.598-2.225-8.34-2.41zm-3.337.37c0 .742-.184 1.3-.74 1.855 0 0-.74.927-1.112 1.298-.556-.37-4.078-3.707-4.45-4.078.372-.37.928-1.112.928-1.112.556-.74 1.112-1.112 1.854-1.112.74-.184 1.483.186 2.224.742.927.555 1.297 1.482 1.297 2.41zM212.617 142.548c-.74-1.668-2.224-2.966-3.893-3.337-.74-.184-1.854-.184-2.41 0-1.112.186-1.854.928-2.224 1.3l-1.298 1.297s-.37.556-.556.74h-1.854s-.556 2.225-.556 2.41l-.185.186c-1.482 1.483-2.41 1.483-2.78 1.298-.927-.37-2.41-1.667-1.668-3.706.556-1.668 1.298-2.595 2.41-3.15l.185-.186v-.37l-.74-1.855h-.557c-1.298.74-2.595 2.41-3.337 4.82-1.112 3.337-.37 7.415 2.966 8.712.555.185 1.297.37 2.038.37.927-.184 1.854-.74 2.78-1.297l.557-.556.185-.185 1.483.185h.185l.74-2.595 1.855-2.04c.74-.555 1.668-1.11 2.224-.926 1.112.372 1.668.928 2.224 1.67.557 1.11.557 2.41.186 3.706-.927 2.41-2.595 3.15-3.893 3.337h-.37v.37l.74 1.855h.37c1.484-.185 4.08-1.854 5.19-5.376.93-2.596.93-4.82.004-6.674zM55.98 62.284s-4.633-4.078-4.82-4.078c0-.37-.37-2.04-.37-2.04v-.37s-2.04.185-2.41.185c-.185-.184-3.522-2.965-3.893-3.336.37-.37 2.04-2.41 2.04-2.41l2.594-1.112.557-.185-3.707-2.595-.185.185-10.38 12.42 3.336 2.78.742-3.15s1.483-1.854 2.04-2.41c.555.37 3.706 3.15 3.892 3.337 0 .185.37 2.41.37 2.41s2.225-.185 2.41-.185c.186.184 4.82 4.077 4.82 4.077l.742 1.854.185.557 4.45-5.376c0-.186-2.41-.556-2.41-.556zM70.81 37.074c-.184.185-.926 2.41-.926 2.41s2.224.74 2.595.74c.184.186 2.78 5.562 2.78 5.562v2.41l12.42-6.488L85.826 38l-2.04 2.78s-4.077 2.04-4.82 2.596c-.37-.556-2.78-5.376-2.965-5.932.557-.185 3.338-1.854 3.338-1.854l1.854-.185h.556l-1.854-3.707-1.668 1.668-3.337 1.668c-.186-.556-2.225-4.263-2.41-4.634.555-.37 5.004-2.595 5.004-2.595H80.82l-2.038-3.893-.37.185-12.235 6.488 2.224 1.298c-.37 0 2.04 4.635 2.41 5.19zM147.738 40.225L149.962 38c.37.186 5.56 2.596 5.932 2.782 0 .37-.37 2.966-.37 3.15-.186.186-1.67 1.484-1.67 1.484l6.49 2.966-.557-2.78.927-6.304 1.854-1.483.185-.185-1.854-2.224.37-8.342v-.185l-2.595-1.3-.185.186-6.303 5.746-2.41.37h-.37v2.41c-.186.186-5.006 4.45-5.006 4.45l-1.667 1.112v.37l5.005 2.41v-2.41zm4.45-4.264c.555-.555 3.892-3.52 4.82-4.448-.186 1.298-.742 5.746-.742 6.488l-4.08-2.04zM182.032 67.845c1.483.556 3.15.37 4.82-.556.74-.372 1.298-1.113 1.668-1.67.556-.926.74-2.038.74-2.41v-1.667-.927l1.3-1.298s-1.113-2.04-1.3-2.04v-.184-.37c0-1.484.372-2.596 1.113-2.967.927-.37 3.15-.37 4.078 1.668.742 1.668.928 2.78.557 4.078v.37l1.854.742.186-.37c.556-1.855-.37-4.45-.927-5.747-1.484-2.966-4.82-5.56-8.157-4.078-.556.185-1.112.556-1.668 1.298-.556.74-.927 1.854-.927 2.78v1.112l-1.112.928-.185.185 1.3 2.41c0 .37.184 2.595.184 2.595 0 .927-.556 2.04-1.112 2.41-.74.556-1.668.556-2.595.37s-2.224-.926-3.15-2.78c-1.113-2.41-.372-4.263.37-5.376l.185-.37-1.854-.742-.185.185c-1.112 1.298-1.483 4.45.185 7.415.74 2.595 2.595 4.45 4.634 5.005zM111.962 35.035c.185-.185 3.522-4.45 4.078-5.19.556.74 3.522 5.376 3.522 5.376 0 .186.185 1.484.185 1.484v.37h6.86l-2.41-2.41s-3.894-5.745-4.45-6.672c.185-.37.927-1.298.927-1.298s-.927-.927-1.112-1.298c.37-.37 4.634-6.117 4.634-6.117l1.854-2.596h-6.117l.185.556s.556 1.112.556 1.483c-.185.37-3.15 4.263-3.707 5.005-.556-.74-3.337-5.005-3.337-5.19 0-.185-.185-1.483-.185-1.483v-.37h-6.488l2.04 2.41s3.52 5.375 4.077 6.302c-.185.37-.927 1.483-.927 1.483s1.112.927 1.298 1.298c-.37.556-5.005 6.488-5.005 6.488l-1.854 1.668-.74.556h6.116c.37-.002 0-1.67 0-1.855z"/></g><path fill="#FFF" d="M203.35 80.82l2.594 8.157h8.527l-6.858 5.005 2.596 8.156-6.86-5.005-7.043 5.005 2.78-8.156-7.043-5.005h8.526M29.474 80.82l2.78 8.157h8.527l-6.858 5.005 2.596 8.156-7.044-5.005-6.86 5.005 2.596-8.156-6.86-5.005h8.528M184.627 218.92h-2.41v6.303h-1.668v-6.303h-2.41v-1.298h6.302v1.298h.185zm10.566 6.302h-1.483v-6.117l-2.224 6.117h-1.483l-2.224-6.117v6.117h-1.67v-7.785h2.782l1.854 5.005 1.854-5.005h2.78v7.785h-.187z"/><g><path d="M111.777 44.86s-1.112-.928-1.854-1.3c-.556 0-1.112.186-1.668.186.556.185 2.224.927 2.595 1.298l.927-.185zM108.44 45.786s-1.112-.927-2.78-1.854c-.742.185-1.3.185-2.04.37 1.298.372 2.41 1.113 3.522 1.67l1.298-.186zM101.953 47.64l2.04-.556s-2.596-1.298-3.523-1.298c-.556-.185-.74-.37-1.112-.556-.927.185-1.668.37-2.595.74.556.186 1.668.372 2.224.742 1.297-.185 2.224.557 2.966.928zM96.948 49.864l2.04-.74c-.186-.372-2.782-1.484-4.264-1.484-.556-.37-1.112-.556-1.483-.556-.74.185-1.482.556-2.223.74.185 0 1.668.372 2.224.928 1.483-.186 2.78.556 3.708 1.112zM87.865 50.79c1.483-.184 3.15.742 4.078 1.3l2.04-.557c-1.113-.927-3.152-1.854-4.45-1.854-.556-.742-1.483-.372-2.224-.372l-2.596 1.112c.37.186 2.78-.37 3.15.37zM86.752 55.425l1.854-1.483c-1.483-.74-3.707-1.112-4.82-1.112-.556-.185-.556-.37-1.112-.556l-2.595 1.483c.37 0 2.41 0 2.78.74 1.483-.184 2.966.372 3.892.928zM76.186 59.503c1.668-.37 4.263-.927 6.673-.37l1.853-1.67c-2.78-.555-5.746-.37-7.23 0-.37-.555-1.11-1.11-1.11-1.11l-1.855 1.482c.742.185 1.112.927 1.668 1.668zM71.18 65.064c1.484-.74 4.635-1.298 7.786-.74l1.668-2.04c-4.82-.37-6.673.185-8.342.927-.556-.926-1.298-1.297-1.298-1.297L69.51 63.21c.93.186 1.115 1.113 1.67 1.854zM67.845 69.142c-.556-.927-1.483-1.668-1.483-1.668l-1.112 1.854c1.112.556.927 1.298 1.483 2.04 1.483-.742 4.263-2.04 7.6-1.67L76 67.66c-5.004-.186-7.784.37-8.155 1.482zM64.323 75.445c-.556-1.298-1.854-2.595-1.854-2.595l-.928 2.04c.74.555 1.298 2.038 1.854 2.78 1.483-.74 3.337-2.04 6.488-1.668l1.483-2.41c-4.078-.186-6.673.74-7.044 1.853zM61.357 81.562c-.556-1.668-2.04-2.966-2.04-2.966l-.926 2.224c1.113.556 1.3 2.04 1.855 2.78 1.483-.74 3.522-2.038 6.673-1.667l1.298-2.41c-3.708 0-6.488.927-6.86 2.04zM58.576 88.79c-.74-1.482-2.224-3.15-2.224-3.15l-.74 2.41c1.11.556 1.482 2.04 2.038 2.78 1.483-.74 3.15-1.853 6.303-1.482l.927-2.224c-4.82.184-5.933.555-6.304 1.667zM55.61 95.465c-.556-.927-2.224-2.966-2.224-2.966l-.556 2.41c1.112.555 1.483 2.038 2.04 2.78 1.482-.74 3.706-2.04 7.043-1.668l.74-2.41c-4.633.184-6.672.74-7.043 1.853zM53.942 103.435c-.556-.927-2.78-3.893-2.78-3.893l-.557 2.41c1.112.927 1.854 2.78 2.41 3.522 1.483-.74 3.707-2.78 6.86-2.224l.555-2.04c-4.634.186-5.376.743-6.488 2.225zM51.903 113.63c.556-1.297 2.966-2.41 6.117-2.038l.37-2.224c-3.706.185-5.56.927-5.93 1.854-.557-.927-3.338-3.707-3.338-3.707l-.37 2.41c1.854 1.48 2.595 2.964 3.15 3.706zM50.79 121.972c.186-.185.186-.556.557-.927.556-.74 2.224-1.668 5.746-1.483l.185-2.224c-4.078 0-5.376 1.112-5.746 1.483-.37.186-.37.742-.556 1.113-.556-1.668-3.337-4.263-3.337-4.263l-.186 2.41c1.112.37 2.966 3.336 3.337 3.892zM56.723 135.69v-2.41c-2.966-1.298-4.634-1.112-5.746-.556-.556-.927-3.522-2.04-3.522-2.04l.185 2.41c1.298.372 2.78 1.113 3.337 1.855 1.11-.743 3.15-.743 5.746.74zM50.606 128.646c.74-1.112 1.483-1.668 6.117-.74v-2.225c-5.56-.184-5.56.186-5.746.928-.556-.927-3.707-3.707-3.707-3.707v2.596c1.11.74 2.78 2.408 3.336 3.15zM51.162 141.436c.185-.74 1.112-.37 2.224.185s1.854.928 2.966 1.67v-2.41c-2.595-1.67-5.005-2.967-5.376-1.855-.556-.927-3.15-2.04-3.15-2.04l.555 2.596c1.484.373 2.41 1.115 2.782 1.856zM51.903 147.182c1.298-.185 2.224.37 4.82 2.224l-.185-2.224c-2.595-2.224-3.893-2.04-4.82-2.04-.556-.926-2.595-2.038-2.595-2.038l.37 2.41c.927.37 1.854.927 2.41 1.668zM160.53 127.163c-.928-.556-2.225-1.483-4.82-4.263l-1.855 1.112c.927.74 4.82 5.19 6.673 4.634 0 0-.927 5.746-.74 8.527l2.038-1.298c0-1.483 0-7.97.37-9.64.187 0-1.11 1.298-1.667.928zM166.09 123.27c-2.04-2.966-3.337-4.263-4.45-5.005l-1.482 1.112c.556.185 2.224 1.854 4.45 5.19l1.482-1.297c.185 3.893.37 7.415 0 9.268l1.668-1.298c.37-2.78.185-5.932-.185-8.898l-1.483.928zM92.128 179.807c-2.595.74-5.19-.556-7.044-1.112l-.556 1.483c2.595 1.298 5.005 1.112 7.044.74 1.112 1.484 1.854 2.225 4.263 3.152l.74-1.112c-2.408-.37-3.335-1.482-4.447-3.15zM93.982 175.544c-2.595.74-5.56-.37-7.415-.927l-.74 1.668c2.78.927 5.375 1.112 7.228.74.927 1.67 2.04 3.152 4.263 3.894l.927-1.484c-1.854-.556-3.707-1.668-4.263-3.892zM96.948 169.797l-.185.37c-2.595.742-5.932.186-7.785-.37l-.927 1.668c2.596.74 4.82.927 7.6.556l.186-.184c1.112 1.854 1.298 2.966 4.078 4.634l1.298-1.483c-1.855-.74-3.894-3.336-4.264-5.19z" fill="#003278"/><path d="M99.543 166.46l-.185.186c-2.595.556-5.56-.927-7.415-1.298l-1.112 1.668c2.596 1.298 5.006 1.483 7.416 1.483l.185-.186c.928 2.04 1.855 4.263 4.08 5.19l1.297-1.483c-1.67-.925-3.894-3.89-4.264-5.56zM94.723 161.64c.185.186.556.186.74.372V160.9l-.74.74zM138.84 149.22c-1.297-1.482-1.297-5.745-1.11-7.97l-.557.37c-2.595-.37-5.376-2.965-6.673-4.82h-.185v-13.53c0-4.82 6.673-6.674 6.673-6.674s-1.854-.74-3.522-2.04l-2.78.742s-5.933 1.668-5.933 5.746v23.913c0 1.668.74 2.78 3.893 2.78h1.668v-.555-7.23c1.668 1.484 3.522 2.782 4.82 2.782l.556-.37c0 2.965-.185 4.633.556 6.672l-1.483-1.298v14.46H95.835l6.117 5.745h2.595c.37.556.927 1.112 1.483 1.298l1.298-1.297h32.254V152l-2.41-2.223 1.67-.556z" fill="#003278"/><path d="M146.44 136.802l-.555.37c-2.595-.37-5.376-2.965-6.673-4.82l-2.41 1.113c2.224 2.224 5.005 4.82 7.044 5.005l.556-.37c0 3.336-.37 5.19.927 7.784l2.41-.927c-1.484-1.667-1.3-5.93-1.3-8.155zM155.524 132.353c-.927.185-2.04-.185-2.966-.927-.927-.74-4.263-4.634-4.263-4.634l-2.595 1.483c1.483 1.668 6.488 5.56 7.6 5.56l.185-.184c0 3.338-.37 5.19.927 7.6l2.41-.926c-1.483-1.483-1.483-5.747-1.298-7.97zM170.724 119.563c-.927-1.668-2.966-4.078-4.45-5.005l-1.297 1.298c1.298.74 4.263 3.522 5.005 5.56l.927-.926c.184 3.337.184 7.044-.186 8.712l1.668-1.298c.185-2.966.185-6.303-.37-8.898l-1.298.557zM174.988 116.41c.37 1.113.74 2.41.37 9.084l1.67-1.483c0-5.004-.186-6.302-.742-8.897l-1.298 1.298zM179.066 112.148c.74 2.595 1.298 6.86.74 9.268l1.484-2.04c.185-2.78-.556-6.302-1.112-8.71l-1.112 1.482zM182.217 107.514l-.556.927c1.67 2.04 2.225 4.45 2.41 7.6l1.113-1.853c0-3.15-2.225-7.415-2.966-6.673zM184.256 104.177l-.37.37.37-.37c-.927-1.668-2.04-3.707-3.707-4.82l-.928 1.112c1.298.926 2.78 2.78 3.707 5.004l.37-.74c.74.555 2.04 1.667 2.966 6.672l.74-1.854c-.74-4.634-2.965-6.487-3.15-5.375zM185.924 100.284l-.185.37c-.928-1.667-1.484-2.965-3.338-4.633l-.74 1.113c1.853 1.668 2.594 2.595 3.52 4.82l.372-.927v.185c.927.928 2.224 2.225 2.78 5.933l.557-2.04c0-2.78-2.595-5.56-2.966-4.82zM170.168 110.665l-1.483 1.298c1.298.74 4.263 3.522 5.005 5.56l1.112-1.11c-.74-1.855-2.966-4.45-4.634-5.748zM174.246 106.772l-1.298 1.112c.927.556 4.263 3.337 5.005 5.376l.927-1.298c-.74-1.853-2.966-4.078-4.634-5.19zM180.92 109.367l.74-1.298c-.927-1.67-2.224-3.894-3.893-5.19l-1.112 1.297c1.3.927 3.338 3.15 4.264 5.19zM186.666 98.245l.556-1.112c-.927-1.854-1.298-2.224-3.15-4.263l-.557 1.112c1.483 1.297 2.41 2.224 3.15 4.263zM187.037 97.69c.556.37 1.112 1.11 1.854 2.038-.184-.74-.37-1.483-.555-2.41l-.74-.74-.558 1.11zM186.48 91.387c-.185-.37-.74-.74-1.298-1.298l-.37.926c.926 1.112 2.038 2.224 2.78 4.078-.37-1.298-.74-2.41-1.112-3.707zM143.104 104.548l5.932 5.56h9.64V78.412l-5.376-5.004v31.142M124.567 107.143c0 3.707 6.117 6.117 6.117 6.117l2.41.927c-1.483-1.112-2.966-2.595-2.966-4.82V89.162h.927c3.707.37 6.488 1.298 8.342 2.78-3.15-3.15-7.97-4.82-14.83-4.82v20.02zM105.29 87.123c-12.42 0-17.426 4.263-17.426 15.015v2.41H75.63l5.56 5.19h11.68v-2.04c0-10.936 1.11-17.794 12.604-18.907 0-.74 0-1.482-.185-1.667.185 0 0 0 0 0z" fill="#003278"/><path d="M122.528 144.958v-23.912c0-3.707 3.15-5.746 5.376-6.86-2.224-1.297-5.376-3.52-5.376-7.043v-22.06h2.039c12.976 0 20.576 5.933 20.576 16.128v1.113h6.303v-27.25H77.67v27.25h8.526c0-.556.185-1.112.185-1.112l-.555.742c0-11.678 5.932-16.87 19.464-16.87h2.223v22.06c0 3.707-2.78 5.932-4.634 7.044 2.038.927 4.633 2.966 4.633 6.86v23.54c0 3.152-2.04 4.82-5.56 4.82h-4.45v10.567h35.22v-10.566h-4.078c-4.078.185-6.117-1.483-6.117-4.45z" fill="#C0111F"/></g></svg>